<svg width="80" height="80" viewBox="0 0 80 80" fill="none" xmlns="http://www.w3.org/2000/svg">
<circle cx="40.0004" cy="40" r="39.5" fill="#D84353" fill-opacity="0.24" stroke="#162D73"/>
<circle cx="40.0004" cy="40" r="35.5" fill="white" stroke="#162D73"/>
<g clip-path="url(#clip0_97_264)">
<path d="M58.4379 24.8438C58.4379 26.2244 57.3185 27.3438 55.9379 27.3438C54.5573 27.3438 53.4379 26.2244 53.4379 24.8438C53.4379 23.4631 54.5573 22.3438 55.9379 22.3438C57.3185 22.3438 58.4379 23.4631 58.4379 24.8438Z" fill="#D84353" fill-opacity="0.5"/>
<path d="M37.162 31.8491C37.162 33.2297 36.0426 34.3491 34.662 34.3491C33.2811 34.3491 32.162 33.2297 32.162 31.8491C32.162 30.4682 33.2811 29.3491 34.662 29.3491C36.0426 29.3491 37.162 30.4682 37.162 31.8491Z" fill="#B0E7F8"/>
<path d="M47.8083 34.3491C47.8083 35.7297 46.6893 36.8491 45.3083 36.8491C43.9277 36.8491 42.8083 35.7297 42.8083 34.3491C42.8083 32.9682 43.9277 31.8491 45.3083 31.8491C46.6893 31.8491 47.8083 32.9682 47.8083 34.3491Z" fill="#FFCB7C"/>
<path d="M26.5629 41.5625C26.5629 42.9431 25.4435 44.0625 24.0629 44.0625C22.6823 44.0625 21.5629 42.9431 21.5629 41.5625C21.5629 40.1819 22.6823 39.0625 24.0629 39.0625C25.4435 39.0625 26.5629 40.1819 26.5629 41.5625Z" fill="#D8EC84"/>
<path d="M20.7816 48.6196H27.3441V57.6562H20.7816V48.6196Z" fill="#D8EC84"/>
<path d="M31.3807 38.9062H37.9432V57.6562H31.3807V38.9062Z" fill="#B0E7F8"/>
<path d="M42.0271 41.4062H48.5896V57.6562H42.0271V41.4062Z" fill="#FFCB7C"/>
<path d="M52.6566 31.9009H59.2191V57.6562H52.6566V31.9009Z" fill="#D84353" fill-opacity="0.5"/>
<path d="M27.3441 47.8384H20.7816C20.3501 47.8384 20.0004 48.1881 20.0004 48.6196V57.6562C20.0004 58.0877 20.3501 58.4374 20.7816 58.4374H27.3441C27.7756 58.4374 28.1254 58.0877 28.1254 57.6562V48.6196C28.1254 48.1884 27.7756 47.8384 27.3441 47.8384ZM26.5629 56.8749H21.5629V49.4009H26.5629V56.8749Z" fill="black"/>
<path d="M37.9432 38.125H31.3807C30.9492 38.125 30.5995 38.4747 30.5995 38.9062V57.6562C30.5995 58.0878 30.9492 58.4375 31.3807 58.4375H37.9432C38.3748 58.4375 38.7245 58.0878 38.7245 57.6562V38.9062C38.7245 38.4747 38.3745 38.125 37.9432 38.125ZM37.162 56.875H32.162V39.6875H37.162V56.875Z" fill="black"/>
<path d="M48.5896 40.625H42.0271C41.5959 40.625 41.2458 40.9747 41.2458 41.4062V57.6562C41.2458 58.0878 41.5959 58.4375 42.0271 58.4375H48.5896C49.0211 58.4375 49.3708 58.0878 49.3708 57.6562V41.4062C49.3708 40.9747 49.0211 40.625 48.5896 40.625ZM47.8083 56.875H42.8083V42.1875H47.8083V56.875Z" fill="black"/>
<path d="M24.0629 44.8438C25.8723 44.8438 27.3441 43.3719 27.3441 41.5625C27.3441 40.9915 27.197 40.4541 26.9395 39.986L32.8412 34.5773C33.3625 34.9261 33.9887 35.1303 34.6619 35.1303C35.9354 35.1303 37.0408 34.4006 37.5843 33.3377L42.028 34.3811C42.0453 36.1758 43.5099 37.6303 45.3086 37.6303C47.1177 37.6303 48.5898 36.1584 48.5898 34.3491C48.5898 33.7921 48.4498 33.2675 48.2041 32.8076L54.0842 27.5494C54.6119 27.912 55.2503 28.125 55.9379 28.125C57.7473 28.125 59.2191 26.6531 59.2191 24.8438C59.2191 23.0344 57.7473 21.5625 55.9379 21.5625C54.1285 21.5625 52.6566 23.0344 52.6566 24.8438C52.6566 25.4007 52.7964 25.9253 53.0424 26.3852L47.1619 31.6434C46.6343 31.2805 45.9958 31.0678 45.3083 31.0678C44.0351 31.0678 42.9294 31.7975 42.3859 32.8601L37.9423 31.8167C37.9249 30.0223 36.4603 28.5678 34.6616 28.5678C32.8525 28.5678 31.3804 30.0397 31.3804 31.8491C31.3804 32.42 31.5275 32.9575 31.785 33.4256L25.8835 38.8342C25.3623 38.4851 24.7361 38.2812 24.0629 38.2812C22.2535 38.2812 20.7816 39.7531 20.7816 41.5625C20.7816 43.3719 22.2535 44.8438 24.0629 44.8438ZM55.9379 23.125C56.8857 23.125 57.6566 23.8959 57.6566 24.8438C57.6566 25.7916 56.8857 26.5625 55.9379 26.5625C54.99 26.5625 54.2191 25.7916 54.2191 24.8438C54.2191 23.8959 54.99 23.125 55.9379 23.125ZM45.3083 32.6303C46.2562 32.6303 47.027 33.4012 47.027 34.3491C47.027 35.2966 46.2562 36.0678 45.3083 36.0678C44.3607 36.0678 43.5895 35.2966 43.5895 34.3491C43.5895 33.4012 44.3607 32.6303 45.3083 32.6303ZM34.6619 30.1303C35.6095 30.1303 36.3807 30.9012 36.3807 31.8491C36.3807 32.7966 35.6095 33.5678 34.6619 33.5678C33.7141 33.5678 32.9432 32.7966 32.9432 31.8491C32.9432 30.9012 33.7141 30.1303 34.6619 30.1303ZM24.0629 39.8438C25.0107 39.8438 25.7816 40.6146 25.7816 41.5625C25.7816 42.5104 25.0107 43.2812 24.0629 43.2812C23.115 43.2812 22.3441 42.5104 22.3441 41.5625C22.3441 40.6146 23.115 39.8438 24.0629 39.8438Z" fill="black"/>
<path d="M59.2191 31.1196H52.6566C52.2251 31.1196 51.8754 31.4694 51.8754 31.9009V41.2628C51.8754 41.6943 52.2251 42.044 52.6566 42.044C53.0881 42.044 53.4379 41.6943 53.4379 41.2628V32.6821H58.4379V56.8749H53.4379V48.2943C53.4379 47.8628 53.0881 47.5131 52.6566 47.5131C52.2251 47.5131 51.8754 47.8628 51.8754 48.2943V57.6562C51.8754 58.0877 52.2251 58.4374 52.6566 58.4374H59.2191C59.6506 58.4374 60.0004 58.0877 60.0004 57.6562V31.9009C60.0004 31.4697 59.6506 31.1196 59.2191 31.1196Z" fill="black"/>
<path d="M52.6566 45.5603C52.862 45.5603 53.0637 45.4767 53.209 45.3311C53.3542 45.1859 53.4379 44.9844 53.4379 44.7791C53.4379 44.5728 53.3542 44.3719 53.209 44.2267C53.0637 44.0805 52.862 43.9978 52.6566 43.9978C52.4512 43.9978 52.2495 44.0805 52.1042 44.2267C51.959 44.3719 51.8754 44.5728 51.8754 44.7791C51.8754 44.9844 51.959 45.1859 52.1042 45.3311C52.2495 45.4767 52.4512 45.5603 52.6566 45.5603Z" fill="black"/>
</g>
<defs>
<clipPath id="clip0_97_264">
<rect width="40" height="40" fill="white" transform="translate(20.0004 20)"/>
</clipPath>
</defs>
</svg>
