<svg width="80" height="80" viewBox="0 0 80 80" fill="none" xmlns="http://www.w3.org/2000/svg">
<circle cx="40.0004" cy="40" r="39.5" fill="#D84353" fill-opacity="0.24" stroke="#162D73"/>
<circle cx="40.0004" cy="40" r="35.5" fill="white" stroke="#162D73"/>
<g clip-path="url(#clip0_97_263)">
<path fill-rule="evenodd" clip-rule="evenodd" d="M31.3632 59.2187H43.5514H48.6267C48.8795 59.2187 49.0857 59.0125 49.0857 58.762V49.5151V46.591C51.0125 44.405 52.2852 41.625 52.5867 38.5634C52.6355 38.0823 52.6577 37.5968 52.6577 37.1046C52.7064 35.7146 52.5556 34.3645 52.232 33.0809C51.7176 31.0479 50.7686 29.1835 49.4826 27.5984C46.9748 24.4991 43.1923 22.4617 38.8974 22.3043C36.2278 22.2046 33.7024 22.8453 31.5184 24.0425C27.7291 26.0621 26.401 28.7778 26.401 28.7778C25.0308 30.8773 24.1949 33.3647 24.0951 36.0517L21.1084 42.8356C20.7449 43.6647 20.6695 44.0549 21.6539 44.0549H23.9466L24.7292 52.6433C24.8157 53.5966 25.5141 54.3858 26.472 54.3858H28.7624C29.6492 54.3858 29.9597 54.7671 30.1215 55.4566L30.9041 58.7621C30.9619 59.0059 31.1105 59.2187 31.3632 59.2187Z" fill="#D84353" fill-opacity="0.5"/>
<path fill-rule="evenodd" clip-rule="evenodd" d="M38.4758 40.572H42.101H43.611V39.06V35.4353V31.8106V30.3009H42.101H38.4758H34.8506H33.3407V31.8106V35.4353V39.06V40.572H34.8506H38.4758Z" fill="#7DD9C2"/>
<path fill-rule="evenodd" clip-rule="evenodd" d="M35.722 54.3527C36.6666 54.3527 37.4316 53.5879 37.4316 52.6457C37.4316 51.7012 36.6666 50.9364 35.722 50.9364C34.7797 50.9364 34.0148 51.7012 34.0148 52.6457C34.0147 53.5878 34.7797 54.3527 35.722 54.3527Z" fill="#FFE6B4"/>
<path fill-rule="evenodd" clip-rule="evenodd" d="M43.5516 51.2221C44.4939 51.2221 45.2588 50.4573 45.2588 49.5151C45.2588 48.5706 44.4939 47.8058 43.5516 47.8058C42.607 47.8058 41.842 48.5706 41.842 49.5151C41.8421 50.4573 42.607 51.2221 43.5516 51.2221Z" fill="#FFE6B4"/>
<path fill-rule="evenodd" clip-rule="evenodd" d="M57.4311 24.1976C58.3757 24.1976 59.1407 23.4327 59.1407 22.4883C59.1407 21.5461 58.3758 20.7812 57.4311 20.7812C56.4888 20.7812 55.7239 21.5461 55.7239 22.4883C55.7239 23.4327 56.4888 24.1976 57.4311 24.1976Z" fill="#FFE6B4"/>
<path fill-rule="evenodd" clip-rule="evenodd" d="M57.4311 34.7879C58.3757 34.7879 59.1407 34.0231 59.1407 33.0809C59.1407 32.1364 58.3758 31.3716 57.4311 31.3716C56.4888 31.3716 55.7239 32.1364 55.7239 33.0809C55.7239 34.0231 56.4888 34.7879 57.4311 34.7879Z" fill="#FFE6B4"/>
<path fill-rule="evenodd" clip-rule="evenodd" d="M57.4311 45.3805C58.3757 45.3805 59.1407 44.6157 59.1407 43.6712C59.1407 42.7268 58.3758 41.9619 57.4311 41.9619C56.4888 41.9619 55.7239 42.7268 55.7239 43.6712C55.7239 44.6157 56.4888 45.3805 57.4311 45.3805Z" fill="#FFE6B4"/>
<path d="M30.5092 32.5918H32.5593V34.654H29.1123C28.6808 34.654 28.3311 35.0037 28.3311 35.4352C28.3311 35.8667 28.6808 36.2165 29.1123 36.2165H32.5593V38.2787H30.5092C30.0777 38.2787 29.7279 38.6284 29.7279 39.0599C29.7279 39.4914 30.0777 39.8412 30.5092 39.8412H32.5593V40.5719C32.5593 41.0034 32.9091 41.3531 33.3406 41.3531H34.0693V43.4007C34.0693 43.8322 34.419 44.1819 34.8505 44.1819C35.282 44.1819 35.6318 43.8322 35.6318 43.4007V41.3531H37.6945V44.7996C37.6945 45.2311 38.0443 45.5809 38.4757 45.5809C38.9072 45.5809 39.257 45.2311 39.257 44.7996V41.3531H41.3197V43.4007C41.3197 43.8322 41.6695 44.1819 42.101 44.1819C42.5325 44.1819 42.8822 43.8322 42.8822 43.4007V41.3531H43.6109C44.0424 41.3531 44.3922 41.0034 44.3922 40.5719V39.8412H46.4423C46.8738 39.8412 47.2236 39.4914 47.2236 39.0599C47.2236 38.6284 46.8738 38.2787 46.4423 38.2787H44.3922V36.2165H47.8392C48.2707 36.2165 48.6204 35.8667 48.6204 35.4352C48.6204 35.0037 48.2707 34.654 47.8392 34.654H44.3922V32.5918H46.4423C46.8738 32.5918 47.2236 32.242 47.2236 31.8105C47.2236 31.3791 46.8738 31.0293 46.4423 31.0293H44.3922V30.3008C44.3922 29.8693 44.0424 29.5195 43.6109 29.5195H42.8822V27.4698C42.8822 27.0383 42.5325 26.6885 42.101 26.6885C41.6695 26.6885 41.3197 27.0383 41.3197 27.4698V29.5195H39.257V26.0731C39.257 25.6416 38.9072 25.2919 38.4757 25.2919C38.0443 25.2919 37.6945 25.6416 37.6945 26.0731V29.5196H35.6318V27.4698C35.6318 27.0383 35.282 26.6885 34.8505 26.6885C34.419 26.6885 34.0693 27.0383 34.0693 27.4698V29.5195H33.3406C32.9091 29.5195 32.5593 29.8693 32.5593 30.3008V31.0293H30.5092C30.0777 31.0293 29.7279 31.3791 29.7279 31.8105C29.7279 32.242 30.0777 32.5918 30.5092 32.5918ZM34.1219 31.0821H42.8297V39.7908H34.1219V31.0821Z" fill="black"/>
<path d="M57.4314 35.5692C58.8048 35.5692 59.9221 34.453 59.9221 33.0809C59.9221 31.7077 58.8048 30.5904 57.4314 30.5904C56.3318 30.5904 55.3972 31.308 55.0689 32.2997H52.8309C52.4216 30.9166 51.8137 29.598 51.0191 28.3797H57.4314C57.8486 28.3797 58.1885 28.0523 58.2105 27.6405C58.2118 27.6274 58.2126 27.6135 58.2126 27.5984V24.8527C59.2044 24.5241 59.9221 23.5888 59.9221 22.4883C59.9221 21.1163 58.8048 20 57.4314 20C56.0592 20 54.9429 21.1163 54.9429 22.4883C54.9429 23.5884 55.6596 24.5237 56.6501 24.8524V26.8172H49.849C49.7071 26.6508 49.5618 26.4864 49.412 26.3252C46.6714 23.377 42.9475 21.6718 38.9265 21.5237C36.2083 21.4223 33.5166 22.0562 31.1428 23.3574C30.7644 23.5648 30.6258 24.0397 30.8332 24.418C31.0407 24.7965 31.5157 24.935 31.8939 24.7276C34.0202 23.562 36.4318 22.9941 38.8686 23.0852C46.3071 23.3591 52.1427 29.6359 51.8769 37.0769C51.8766 37.0868 51.8764 37.0967 51.8764 37.1066C51.8845 40.4087 50.6852 43.5935 48.4994 46.0747C48.3738 46.2173 48.3044 46.401 48.3044 46.5911V58.4375H44.3327V51.8771C45.3232 51.5487 46.04 50.6143 46.04 49.5152C46.04 48.1419 44.9236 47.0247 43.5514 47.0247C42.178 47.0247 41.0607 48.142 41.0607 49.5152C41.0607 50.6146 41.7784 51.5491 42.7702 51.8773V58.4375H36.5036V55.0077C37.4954 54.6795 38.2131 53.7449 38.2131 52.6455C38.2131 51.2723 37.0957 50.155 35.7223 50.155C34.3501 50.155 33.2338 51.2723 33.2338 52.6455C33.2338 53.7447 33.9506 54.6791 34.9411 55.0075V58.4375H31.6303L30.8822 55.278C30.6178 54.152 29.9244 53.6046 28.7624 53.6046H26.4719C25.9 53.6046 25.5538 53.0855 25.5072 52.5724L24.7245 43.9839C24.6879 43.5816 24.3505 43.2736 23.9465 43.2736H21.7704C21.7861 43.2362 21.8037 43.1952 21.8234 43.1503L24.81 36.3665C24.8498 36.2762 24.8721 36.1793 24.8757 36.0807C24.9668 33.6275 25.7205 31.2499 27.0552 29.2049C27.2911 28.8436 27.1893 28.3595 26.828 28.1237C26.4667 27.8878 25.9826 27.9896 25.7468 28.3509C24.2846 30.5912 23.4472 33.1887 23.3207 35.8716L20.3929 42.5217C20.177 43.0139 19.8814 43.688 20.2595 44.2667C20.6315 44.8361 21.3743 44.8361 21.6538 44.8361H23.2331L23.9511 52.7139C24.0779 54.1124 25.1616 55.1671 26.4718 55.1671H28.7622C29.2345 55.1671 29.2701 55.2489 29.3612 55.6366L30.1439 58.9418C30.2958 59.5847 30.7744 60 31.3631 60H48.6266C49.3104 60 49.8668 59.4447 49.8668 58.762V46.8816C51.6939 44.7234 52.8671 42.1121 53.2761 39.3446H56.65V41.3071C55.6596 41.6359 54.9428 42.571 54.9428 43.6712C54.9428 45.0445 56.0591 46.1617 57.4313 46.1617C58.8047 46.1617 59.9221 45.0445 59.9221 43.6712C59.9221 42.5708 59.2043 41.6354 58.2125 41.3069V38.5634C58.2125 38.5417 58.2114 38.5234 58.2097 38.507C58.1807 38.1019 57.8438 37.7821 57.4313 37.7821H53.4251C53.4345 37.5612 53.4392 37.3396 53.4388 37.1176C53.4771 36.0136 53.3962 34.9237 53.2029 33.8621H55.0691C55.3977 34.8525 56.3321 35.5692 57.4314 35.5692ZM57.4314 32.1529C57.9432 32.1529 58.3596 32.5692 58.3596 33.0809C58.3596 33.5914 57.9432 34.0067 57.4314 34.0067C56.9207 34.0067 56.5054 33.5914 56.5054 33.0809C56.5054 32.5691 56.9207 32.1529 57.4314 32.1529ZM56.5054 22.4883C56.5054 21.9778 56.9207 21.5625 57.4314 21.5625C57.9432 21.5625 58.3596 21.9778 58.3596 22.4883C58.3596 23 57.9432 23.4163 57.4314 23.4163C56.9207 23.4163 56.5054 23 56.5054 22.4883ZM35.7223 53.5713C35.2117 53.5713 34.7963 53.1559 34.7963 52.6455C34.7963 52.1338 35.2117 51.7174 35.7223 51.7174C36.2342 51.7174 36.6506 52.1338 36.6506 52.6455C36.6505 53.1559 36.2341 53.5713 35.7223 53.5713ZM43.5514 50.4409C43.0395 50.4409 42.6231 50.0256 42.6231 49.5152C42.6231 49.0034 43.0395 48.5872 43.5514 48.5872C44.062 48.5872 44.4774 49.0035 44.4774 49.5152C44.4774 50.0256 44.062 50.4409 43.5514 50.4409ZM57.4314 42.7433C57.9432 42.7433 58.3596 43.1596 58.3596 43.6712C58.3596 44.183 57.9432 44.5993 57.4314 44.5993C56.9207 44.5993 56.5054 44.183 56.5054 43.6712C56.5054 43.1595 56.9207 42.7433 57.4314 42.7433Z" fill="black"/>
<path d="M28.6489 26.892C28.8488 26.892 29.0488 26.8157 29.2013 26.6632L29.2035 26.661C29.5086 26.3559 29.5075 25.8623 29.2024 25.5572C28.8973 25.2522 28.4016 25.2532 28.0964 25.5583C27.7913 25.8634 27.7913 26.3581 28.0964 26.6632C28.2489 26.8157 28.4489 26.892 28.6489 26.892Z" fill="black"/>
</g>
<defs>
<clipPath id="clip0_97_263">
<rect width="40" height="40" fill="white" transform="translate(20.0004 20)"/>
</clipPath>
</defs>
</svg>
