<svg width="100%" height="100%" viewBox="0 0 100% 100%" fill="none" xmlns="http://www.w3.org/2000/svg">
<rect x="45" y="50" width="1166" height="420" rx="210" stroke="#162D73" stroke-width="3" stroke-dasharray="12 12"/>
<path d="M0 260C0 232.386 22.3858 210 50 210V210C77.6142 210 100 232.386 100 260V260C100 287.614 77.6142 310 50 310V310C22.3858 310 0 287.614 0 260V260Z" fill="#D72F50"/>
<path opacity="0.1" d="M18 260C18 242.327 32.3269 228 50 228V228C67.6731 228 82 242.327 82 260V260C82 277.673 67.6731 292 50 292V292C32.3269 292 18 277.673 18 260V260Z" fill="white"/>
<g clip-path="url(#clip0_97_267)">
<path d="M66 254.224C66.001 253.973 65.9011 253.732 65.7228 253.555L57.7054 245.6C57.3389 245.236 56.7472 245.238 56.3821 245.603L54.0523 247.933C52.6911 247.804 51.3025 247.947 50.0004 248.351C48.6964 247.946 47.3105 247.803 45.9477 247.933L43.6179 245.603C43.2528 245.238 42.6612 245.236 42.2946 245.6L34.2772 253.555C34.0989 253.732 33.9991 253.973 34 254.224C34.0009 254.475 34.1028 254.716 34.2824 254.891L36.6663 257.22C36.5347 258.62 36.6901 260.049 37.1218 261.382C37.3945 262.225 37.7681 263.015 38.2371 263.748L37.8206 264.164C36.7241 265.261 36.7241 267.045 37.8206 268.142C38.0794 268.401 38.3769 268.597 38.6943 268.734C38.0803 269.808 38.2306 271.203 39.1465 272.119C40.0677 273.04 41.4609 273.186 42.5305 272.573C42.6696 272.894 42.8689 273.19 43.124 273.445C44.2214 274.542 46.0057 274.541 47.1014 273.445L47.3484 273.198L47.9209 273.77C47.9524 273.802 47.9856 273.831 48.0203 273.857C48.5504 274.382 49.253 274.672 50.0001 274.672C50.7487 274.672 51.4526 274.381 51.9832 273.854C52.5073 273.346 52.3216 273.528 52.6518 273.198C52.9773 273.524 53.632 274.269 54.8876 274.269C55.6388 274.269 56.3451 273.976 56.8763 273.445C57.1315 273.19 57.331 272.894 57.4701 272.572C58.5479 273.188 59.9407 273.032 60.8538 272.119C61.7696 271.203 61.9199 269.808 61.306 268.734C61.6234 268.597 61.9208 268.401 62.1796 268.142C63.2788 267.043 63.2789 265.263 62.1796 264.164L61.7613 263.746C62.9869 261.821 63.5482 259.505 63.3338 257.22L65.7179 254.891C65.8973 254.716 65.999 254.475 66 254.224ZM39.1464 266.816C38.7809 266.45 38.7809 265.856 39.1464 265.49L39.3978 265.239C39.4772 265.323 39.5578 265.407 39.6404 265.49L40.7193 266.569L40.4723 266.816C40.1067 267.181 39.512 267.181 39.1464 266.816ZM41.7981 270.793C41.4316 271.16 40.8387 271.16 40.4723 270.793C40.1058 270.427 40.1058 269.834 40.4723 269.468L42.0451 267.895L43.3709 269.221L41.7981 270.793ZM45.7755 272.119C45.4099 272.485 44.8152 272.485 44.4497 272.119C44.2726 271.942 44.1751 271.707 44.1751 271.456C44.1751 271.206 44.2726 270.971 44.4497 270.793C44.4498 270.793 44.4498 270.793 44.4498 270.793L44.6967 270.546L46.0225 271.872L45.7755 272.119ZM60.8536 266.816C60.4879 267.182 59.8933 267.182 59.5278 266.816C59.5278 266.816 59.5278 266.816 59.5277 266.816L52.8986 260.187C52.5326 259.821 51.9389 259.821 51.5728 260.187C51.2067 260.553 51.2067 261.146 51.5728 261.513L59.5278 269.468C59.8933 269.833 59.8933 270.428 59.5278 270.793C59.1623 271.159 58.5675 271.159 58.2019 270.793C57.7636 270.355 50.7151 263.307 50.2469 262.838C49.8809 262.472 49.2873 262.472 48.9211 262.838C48.555 263.205 48.555 263.798 48.9211 264.164L55.5508 270.794C55.9166 271.16 55.9167 271.753 55.5503 272.119C55.1839 272.486 54.5908 272.486 54.2244 272.119L47.5953 265.49C47.2293 265.124 46.6356 265.124 46.2695 265.49C45.9034 265.856 45.9034 266.45 46.2695 266.816L51.3258 271.872C51.0214 272.177 51.1587 272.042 50.6734 272.512C50.6698 272.515 50.6664 272.519 50.6629 272.522C50.4858 272.699 50.2503 272.797 50 272.797C49.7496 272.797 49.5142 272.699 49.3372 272.522C49.3337 272.519 49.3302 272.515 49.3266 272.512C48.7689 271.972 41.5643 264.762 40.9662 264.164C39.0718 262.27 38.2018 259.66 38.5793 257.004C38.6214 256.708 38.5199 256.41 38.3063 256.201L36.2738 254.215L42.9523 247.589L44.9432 249.58C45.1516 249.788 45.4461 249.887 45.738 249.845C46.1985 249.78 46.6641 249.753 47.1284 249.764C46.6504 250.102 46.1986 250.483 45.7756 250.906C44.6184 252.063 41.4876 255.194 40.4723 256.209C39.3731 257.309 39.3729 259.088 40.4723 260.187C41.0205 260.735 41.7408 261.009 42.4609 261.009C43.1812 261.009 43.9014 260.735 44.4497 260.187L48.2109 256.426C49.4374 256.863 50.7483 256.915 51.9778 256.614L60.8536 265.49C61.22 265.857 61.22 266.45 60.8536 266.816ZM61.6937 256.201C61.4801 256.41 61.3786 256.708 61.4207 257.004C61.6846 258.86 61.3131 260.767 60.3958 262.381L53.8493 255.834C54.2814 255.569 54.6874 255.252 55.0563 254.883C55.4224 254.517 55.4224 253.924 55.0563 253.558C54.6903 253.192 54.0966 253.192 53.7305 253.558C52.3279 254.96 50.1837 255.329 48.3948 254.474C48.0364 254.303 47.6087 254.376 47.3278 254.657L43.1239 258.861C42.7584 259.227 42.1638 259.227 41.7981 258.861C41.621 258.684 41.5234 258.449 41.5234 258.198C41.5234 257.948 41.621 257.712 41.7981 257.535C42.8946 256.439 46.0164 253.317 47.1014 252.232C47.1014 252.232 47.1015 252.232 47.1016 252.232C48.9838 250.35 51.5908 249.465 54.2621 249.845C54.5537 249.886 54.8484 249.788 55.0569 249.58L57.0478 247.589L63.7263 254.215L61.6937 256.201Z" fill="white"/>
</g>
<path d="M310 50C310 22.3858 332.386 0 360 0V0C387.614 0 410 22.3858 410 50V50C410 77.6142 387.614 100 360 100V100C332.386 100 310 77.6142 310 50V50Z" fill="#162D73"/>
<path opacity="0.1" d="M328 50C328 32.3269 342.327 18 360 18V18C377.673 18 392 32.3269 392 50V50C392 67.6731 377.673 82 360 82V82C342.327 82 328 67.6731 328 50V50Z" fill="white"/>
<path d="M375.49 61.0593L369.871 55.4407C369.871 55.4406 369.871 55.4406 369.871 55.4404C369.871 55.4402 369.871 55.4402 369.871 55.44L367.862 53.4316C367.184 52.7531 366.08 52.7528 365.401 53.4316L365.155 53.6777L364.306 52.8296C365.968 50.8372 366.969 48.2757 366.969 45.4846C366.969 39.152 361.817 34 355.485 34C349.152 34 344 39.152 344 45.4846C344 51.8172 349.152 56.9692 355.485 56.9692C358.276 56.9692 360.837 55.968 362.83 54.3064L363.678 55.1545L363.431 55.4007C362.753 56.0793 362.753 57.1834 363.432 57.8621L371.059 65.4897C371.739 66.1699 372.84 66.1701 373.521 65.4898L375.49 63.5207C376.169 62.8421 376.169 61.738 375.49 61.0593ZM355.485 54.8807C350.304 54.8807 346.089 50.6656 346.089 45.4846C346.089 40.3036 350.304 36.0886 355.485 36.0886C360.666 36.0886 364.881 40.3036 364.881 45.4846C364.881 50.6656 360.666 54.8807 355.485 54.8807ZM365.155 56.6314L366.631 55.1546L367.656 56.1789L366.179 57.6557L365.155 56.6314ZM372.29 63.7668L367.656 59.1324L369.132 57.6556L373.767 62.29L372.29 63.7668Z" fill="white"/>
<path d="M355.486 38.1772C354.909 38.1772 354.441 38.6448 354.441 39.2216C354.441 39.7983 354.909 40.2659 355.486 40.2659C358.364 40.2659 360.705 42.6069 360.705 45.4846C360.705 46.0614 361.172 46.5289 361.749 46.5289C362.326 46.5289 362.793 46.0614 362.793 45.4846C362.793 41.4553 359.515 38.1772 355.486 38.1772Z" fill="white"/>
<path d="M310 470C310 442.386 332.386 420 360 420V420C387.614 420 410 442.386 410 470V470C410 497.614 387.614 520 360 520V520C332.386 520 310 497.614 310 470V470Z" fill="#162D73"/>
<path opacity="0.1" d="M328 470C328 452.327 342.327 438 360 438V438C377.673 438 392 452.327 392 470V470C392 487.673 377.673 502 360 502V502C342.327 502 328 487.673 328 470V470Z" fill="white"/>
<path d="M375.816 463.417L369.121 454.379C368.944 454.141 368.665 454 368.368 454C368.071 454 367.791 454.141 367.615 454.379L360.92 463.417C360.709 463.701 360.677 464.081 360.836 464.397C360.996 464.713 361.32 464.913 361.674 464.913H364.083V469.444C363.611 469.201 363.077 469.062 362.51 469.062H360.837C358.936 469.062 357.389 470.609 357.389 472.51V474.465C356.917 474.221 356.382 474.083 355.816 474.083H354.142C352.241 474.083 350.695 475.63 350.695 477.531V479.485C350.222 479.242 349.688 479.104 349.122 479.104H347.448C345.547 479.104 344 480.651 344 482.552V485.062C344 485.58 344.42 486 344.938 486H371.715C372.233 486 372.653 485.58 372.653 485.062V464.913H375.062C375.417 464.913 375.74 464.713 375.9 464.397C376.059 464.081 376.027 463.701 375.816 463.417ZM345.875 482.552C345.875 481.685 346.581 480.979 347.448 480.979H349.121C349.989 480.979 350.694 481.685 350.694 482.552V484.125H345.875V482.552ZM352.569 482.552V477.531C352.569 476.664 353.275 475.958 354.142 475.958H355.816C356.683 475.958 357.389 476.664 357.389 477.531V484.125H352.569V482.552ZM359.264 477.531V472.51C359.264 471.643 359.969 470.938 360.837 470.938H362.51C363.377 470.938 364.083 471.643 364.083 472.51V484.125H359.264V477.531ZM371.715 463.038C371.197 463.038 370.778 463.457 370.778 463.975V484.125H365.958V463.975C365.958 463.457 365.538 463.038 365.021 463.038H363.535L368.368 456.512L373.201 463.038H371.715Z" fill="white"/>
<defs>
<clipPath id="clip0_97_267">
<rect width="32" height="32" fill="white" transform="translate(34 244)"/>
</clipPath>
</defs>
</svg>
