<svg width="474" height="365" viewBox="0 0 474 365" fill="none" xmlns="http://www.w3.org/2000/svg">
<rect y="36" width="474" height="274" rx="12" fill="white"/>
<path d="M0 48C0 41.3726 5.37258 36 12 36H462C468.627 36 474 41.3726 474 48V68H0V48Z" fill="#0E3C73"/>
<circle cx="19" cy="52" r="3" fill="white"/>
<circle cx="29" cy="52" r="3" fill="white"/>
<circle cx="39" cy="52" r="3" fill="white"/>
<rect x="65" width="187" height="220" rx="8" fill="#0189FF"/>
<path d="M192.025 137.936C193.274 135.883 194.906 133.203 194.906 133.203L176.799 132.384L185.843 148.092C185.843 148.092 187.254 145.774 188.095 144.392C190.31 146.256 192.279 148.733 192.279 151.647C192.279 159.221 177.744 167.66 156.888 167.66C136.031 167.66 121.497 159.221 121.497 151.647C121.497 150.073 122.089 148.483 123.257 146.919C123.854 146.12 124.583 145.35 125.424 144.613L122.176 137.617C120.211 139.087 118.547 140.698 117.251 142.433C115.093 145.32 114 148.421 114 151.647C114 158.413 118.802 164.563 127.523 168.966C135.429 172.958 145.858 175.156 156.888 175.156C167.918 175.156 178.347 172.958 186.253 168.966C194.973 164.563 199.775 158.413 199.775 151.647C199.775 146.605 197.057 141.85 192.025 137.936Z" fill="#FCC92F"/>
<path d="M135.228 153.935H142.32V117.966H136.495C136.342 120.651 134.519 124.197 127.68 124.197H126.666V129.162H135.228V153.935H135.228Z" fill="#FCC92F"/>
<path d="M146.973 136.407C146.973 149.021 150.975 154.897 159.435 154.897C167.896 154.897 171.898 149.021 171.898 136.407C171.898 123.792 167.896 117.966 159.435 117.966C150.975 117.966 146.973 123.792 146.973 136.407ZM159.435 123.64C163.488 123.64 164.603 127.136 164.603 136.407C164.603 145.677 163.488 149.224 159.435 149.224C155.383 149.224 154.268 145.677 154.268 136.407C154.268 127.136 155.383 123.64 159.435 123.64Z" fill="#FCC92F"/>
<path d="M179.119 119.066C179.392 118.683 180.049 118.172 180.542 118.172C180.907 118.172 181.162 118.355 181.162 119.012V126.566H183.461V119.066C183.753 118.683 184.465 118.172 184.903 118.172C185.268 118.172 185.505 118.355 185.505 119.012V126.566H187.804V119.084C187.804 117.296 187.092 116.457 185.706 116.457C184.702 116.457 183.972 117.169 183.261 117.953C182.987 117.041 182.367 116.457 181.509 116.457C180.542 116.457 179.794 117.096 179.045 117.771V116.639H176.819V126.566H179.119V119.066Z" fill="#FCC92F"/>
<path d="M192.585 112.844H190.285V114.924H192.585V112.844Z" fill="#FCC92F"/>
<path d="M192.585 116.639H190.285V126.566H192.585V116.639Z" fill="#FCC92F"/>
<path d="M195.066 126.566H197.365V119.066C197.858 118.628 198.387 118.172 198.862 118.172C199.482 118.172 199.701 118.61 199.701 119.267V126.566H202V119.011C202 117.168 201.27 116.457 199.865 116.457C198.916 116.457 198.131 117.041 197.292 117.771V116.639H195.066V126.566Z" fill="#FCC92F"/>
<path d="M87.8852 46V30.49H94.9912C96.6486 30.49 97.9246 30.8493 98.8192 31.568C99.7286 32.2867 100.183 33.2693 100.183 34.516C100.183 35.3373 99.9779 36.0487 99.5672 36.65C99.1566 37.2367 98.5846 37.6767 97.8512 37.97C98.7312 38.2193 99.4059 38.6593 99.8752 39.29C100.359 39.9207 100.601 40.698 100.601 41.622C100.601 43.0007 100.117 44.0787 99.1492 44.856C98.1959 45.6187 96.8906 46 95.2332 46H87.8852ZM91.1412 36.87H94.3972C96.0692 36.87 96.9052 36.2247 96.9052 34.934C96.9052 33.658 96.0692 33.02 94.3972 33.02H91.1412V36.87ZM91.1412 43.47H94.7712C95.6512 43.47 96.2966 43.3013 96.7072 42.964C97.1179 42.6267 97.3232 42.1133 97.3232 41.424C97.3232 40.7493 97.1179 40.2433 96.7072 39.906C96.2966 39.5687 95.6512 39.4 94.7712 39.4H91.1412V43.47ZM106.878 46.242C105.499 46.242 104.48 45.8607 103.82 45.098C103.175 44.3353 102.852 43.1913 102.852 41.666V35.198H106.174V41.754C106.174 43.03 106.724 43.668 107.824 43.668C108.455 43.668 108.968 43.448 109.364 43.008C109.775 42.5533 109.98 41.9593 109.98 41.226V35.198H113.302V46H110.068V44.526C109.349 45.67 108.286 46.242 106.878 46.242ZM115.741 33.108V30.006H119.327V33.108H115.741ZM115.873 46V35.198H119.195V46H115.873ZM125.785 46.242C124.392 46.242 123.373 45.8827 122.727 45.164C122.082 44.4307 121.759 43.3453 121.759 41.908V30.49H125.081V41.776C125.081 42.9493 125.602 43.536 126.643 43.536C126.805 43.536 126.959 43.5287 127.105 43.514C127.267 43.4993 127.421 43.47 127.567 43.426L127.523 46C126.966 46.1613 126.387 46.242 125.785 46.242ZM133.18 46.242C132.241 46.242 131.413 46.0147 130.694 45.56C129.99 45.0907 129.44 44.438 129.044 43.602C128.648 42.7513 128.45 41.7467 128.45 40.588C128.45 39.4293 128.648 38.432 129.044 37.596C129.44 36.76 129.99 36.1147 130.694 35.66C131.413 35.2053 132.241 34.978 133.18 34.978C133.899 34.978 134.559 35.132 135.16 35.44C135.761 35.748 136.216 36.1587 136.524 36.672V30.49H139.846V46H136.59V44.372C136.297 44.944 135.842 45.3987 135.226 45.736C134.625 46.0733 133.943 46.242 133.18 46.242ZM134.17 43.756C134.874 43.756 135.446 43.4993 135.886 42.986C136.341 42.4727 136.568 41.6733 136.568 40.588C136.568 39.5173 136.341 38.7327 135.886 38.234C135.446 37.7207 134.874 37.464 134.17 37.464C133.466 37.464 132.894 37.7207 132.454 38.234C132.014 38.7327 131.794 39.5173 131.794 40.588C131.794 41.6733 132.014 42.4727 132.454 42.986C132.894 43.4993 133.466 43.756 134.17 43.756ZM152.181 46.242C151.374 46.242 150.663 46.088 150.047 45.78C149.431 45.472 148.94 45.054 148.573 44.526C148.221 43.998 148.045 43.404 148.045 42.744C148.045 41.9667 148.25 41.3433 148.661 40.874C149.072 40.4047 149.739 40.0747 150.663 39.884C151.587 39.6787 152.812 39.576 154.337 39.576H155.129V39.202C155.129 38.5567 154.982 38.102 154.689 37.838C154.396 37.5593 153.897 37.42 153.193 37.42C152.606 37.42 151.983 37.5153 151.323 37.706C150.678 37.882 150.032 38.1533 149.387 38.52L148.485 36.298C148.866 36.0487 149.328 35.8213 149.871 35.616C150.428 35.4107 151.008 35.2567 151.609 35.154C152.21 35.0367 152.782 34.978 153.325 34.978C154.997 34.978 156.244 35.3593 157.065 36.122C157.886 36.87 158.297 38.036 158.297 39.62V46H155.195V44.372C154.975 44.944 154.601 45.3987 154.073 45.736C153.56 46.0733 152.929 46.242 152.181 46.242ZM152.929 44.02C153.545 44.02 154.066 43.8073 154.491 43.382C154.916 42.9567 155.129 42.4067 155.129 41.732V41.292H154.359C153.23 41.292 152.43 41.3947 151.961 41.6C151.492 41.7907 151.257 42.128 151.257 42.612C151.257 43.0227 151.396 43.36 151.675 43.624C151.968 43.888 152.386 44.02 152.929 44.02ZM167.228 46V30.49H170.066L175.302 40.016L180.516 30.49H183.31V46H180.208V36.54L176.204 43.668H174.29L170.308 36.606V46H167.228ZM191.362 46.242C190.203 46.242 189.191 46.0147 188.326 45.56C187.475 45.0907 186.815 44.438 186.346 43.602C185.876 42.7513 185.642 41.7467 185.642 40.588C185.642 39.444 185.876 38.454 186.346 37.618C186.815 36.7673 187.475 36.1147 188.326 35.66C189.191 35.2053 190.203 34.978 191.362 34.978C192.52 34.978 193.525 35.2053 194.376 35.66C195.241 36.1147 195.908 36.7673 196.378 37.618C196.862 38.454 197.104 39.444 197.104 40.588C197.104 41.7467 196.862 42.7513 196.378 43.602C195.908 44.438 195.241 45.0907 194.376 45.56C193.525 46.0147 192.52 46.242 191.362 46.242ZM191.362 43.756C192.066 43.756 192.638 43.4993 193.078 42.986C193.532 42.4727 193.76 41.6733 193.76 40.588C193.76 39.5173 193.532 38.7327 193.078 38.234C192.638 37.7207 192.066 37.464 191.362 37.464C190.658 37.464 190.086 37.7207 189.646 38.234C189.206 38.7327 188.986 39.5173 188.986 40.588C188.986 41.6733 189.206 42.4727 189.646 42.986C190.086 43.4993 190.658 43.756 191.362 43.756ZM203.327 46.242C202.388 46.242 201.559 46.0147 200.841 45.56C200.137 45.0907 199.587 44.438 199.191 43.602C198.795 42.7513 198.597 41.7467 198.597 40.588C198.597 39.4293 198.795 38.432 199.191 37.596C199.587 36.76 200.137 36.1147 200.841 35.66C201.559 35.2053 202.388 34.978 203.327 34.978C204.045 34.978 204.705 35.132 205.307 35.44C205.908 35.748 206.363 36.1587 206.671 36.672V30.49H209.993V46H206.737V44.372C206.443 44.944 205.989 45.3987 205.373 45.736C204.771 46.0733 204.089 46.242 203.327 46.242ZM204.317 43.756C205.021 43.756 205.593 43.4993 206.033 42.986C206.487 42.4727 206.715 41.6733 206.715 40.588C206.715 39.5173 206.487 38.7327 206.033 38.234C205.593 37.7207 205.021 37.464 204.317 37.464C203.613 37.464 203.041 37.7207 202.601 38.234C202.161 38.7327 201.941 39.5173 201.941 40.588C201.941 41.6733 202.161 42.4727 202.601 42.986C203.041 43.4993 203.613 43.756 204.317 43.756ZM218.162 46.242C216.886 46.242 215.786 46.0147 214.862 45.56C213.953 45.0907 213.249 44.438 212.75 43.602C212.266 42.7513 212.024 41.754 212.024 40.61C212.024 39.4953 212.259 38.52 212.728 37.684C213.212 36.8333 213.865 36.1733 214.686 35.704C215.522 35.22 216.483 34.978 217.568 34.978C219.138 34.978 220.384 35.4767 221.308 36.474C222.232 37.4567 222.694 38.7913 222.694 40.478V41.314H215.192C215.31 42.1647 215.618 42.788 216.116 43.184C216.63 43.5653 217.334 43.756 218.228 43.756C218.815 43.756 219.409 43.668 220.01 43.492C220.612 43.316 221.154 43.0447 221.638 42.678L222.518 44.9C221.976 45.3107 221.308 45.6407 220.516 45.89C219.739 46.1247 218.954 46.242 218.162 46.242ZM217.7 37.178C216.996 37.178 216.424 37.3907 215.984 37.816C215.559 38.2413 215.295 38.8353 215.192 39.598H219.944C219.856 37.9847 219.108 37.178 217.7 37.178ZM228.653 46.242C227.259 46.242 226.24 45.8827 225.595 45.164C224.949 44.4307 224.627 43.3453 224.627 41.908V30.49H227.949V41.776C227.949 42.9493 228.469 43.536 229.511 43.536C229.672 43.536 229.826 43.5287 229.973 43.514C230.134 43.4993 230.288 43.47 230.435 43.426L230.391 46C229.833 46.1613 229.254 46.242 228.653 46.242ZM99.9067 63.108V60.006H103.493V63.108H99.9067ZM100.039 76V65.198H103.361V76H100.039ZM105.925 76V65.198H109.181V66.782C109.548 66.1953 110.039 65.748 110.655 65.44C111.271 65.132 111.961 64.978 112.723 64.978C113.999 64.978 114.953 65.352 115.583 66.1C116.214 66.8333 116.529 67.97 116.529 69.51V76H113.207V69.664C113.207 68.916 113.068 68.3807 112.789 68.058C112.511 67.7207 112.1 67.552 111.557 67.552C110.853 67.552 110.289 67.772 109.863 68.212C109.453 68.652 109.247 69.2387 109.247 69.972V76H105.925ZM129.158 76.242C127.765 76.242 126.746 75.8827 126.1 75.164C125.455 74.4307 125.132 73.3453 125.132 71.908V60.49H128.454V71.776C128.454 72.9493 128.975 73.536 130.016 73.536C130.178 73.536 130.332 73.5287 130.478 73.514C130.64 73.4993 130.794 73.47 130.94 73.426L130.896 76C130.339 76.1613 129.76 76.242 129.158 76.242ZM137.961 76.242C136.685 76.242 135.585 76.0147 134.661 75.56C133.752 75.0907 133.048 74.438 132.549 73.602C132.065 72.7513 131.823 71.754 131.823 70.61C131.823 69.4953 132.058 68.52 132.527 67.684C133.011 66.8333 133.664 66.1733 134.485 65.704C135.321 65.22 136.282 64.978 137.367 64.978C138.937 64.978 140.183 65.4767 141.107 66.474C142.031 67.4567 142.493 68.7913 142.493 70.478V71.314H134.991C135.109 72.1647 135.417 72.788 135.915 73.184C136.429 73.5653 137.133 73.756 138.027 73.756C138.614 73.756 139.208 73.668 139.809 73.492C140.411 73.316 140.953 73.0447 141.437 72.678L142.317 74.9C141.775 75.3107 141.107 75.6407 140.315 75.89C139.538 76.1247 138.753 76.242 137.961 76.242ZM137.499 67.178C136.795 67.178 136.223 67.3907 135.783 67.816C135.358 68.2413 135.094 68.8353 134.991 69.598H139.743C139.655 67.9847 138.907 67.178 137.499 67.178ZM148.561 76.242C147.608 76.242 146.721 76.132 145.899 75.912C145.078 75.692 144.396 75.3913 143.853 75.01L144.645 72.854C145.188 73.1913 145.804 73.4627 146.493 73.668C147.197 73.8587 147.894 73.954 148.583 73.954C149.199 73.954 149.654 73.8587 149.947 73.668C150.241 73.4627 150.387 73.1987 150.387 72.876C150.387 72.3627 150.013 72.04 149.265 71.908L146.955 71.49C146.031 71.3287 145.327 70.9987 144.843 70.5C144.359 70.0013 144.117 69.3487 144.117 68.542C144.117 67.8087 144.323 67.178 144.733 66.65C145.144 66.122 145.709 65.7113 146.427 65.418C147.146 65.1247 147.975 64.978 148.913 64.978C149.691 64.978 150.446 65.0807 151.179 65.286C151.913 65.4767 152.543 65.7847 153.071 66.21L152.235 68.344C151.795 68.0213 151.267 67.7573 150.651 67.552C150.05 67.3467 149.485 67.244 148.957 67.244C148.297 67.244 147.821 67.354 147.527 67.574C147.234 67.7793 147.087 68.0433 147.087 68.366C147.087 68.8793 147.432 69.202 148.121 69.334L150.431 69.752C151.385 69.9133 152.111 70.236 152.609 70.72C153.108 71.1893 153.357 71.8347 153.357 72.656C153.357 73.7853 152.917 74.6653 152.037 75.296C151.157 75.9267 149.999 76.242 148.561 76.242ZM159.39 76.242C158.436 76.242 157.549 76.132 156.728 75.912C155.906 75.692 155.224 75.3913 154.682 75.01L155.474 72.854C156.016 73.1913 156.632 73.4627 157.322 73.668C158.026 73.8587 158.722 73.954 159.412 73.954C160.028 73.954 160.482 73.8587 160.776 73.668C161.069 73.4627 161.216 73.1987 161.216 72.876C161.216 72.3627 160.842 72.04 160.094 71.908L157.784 71.49C156.86 71.3287 156.156 70.9987 155.672 70.5C155.188 70.0013 154.946 69.3487 154.946 68.542C154.946 67.8087 155.151 67.178 155.562 66.65C155.972 66.122 156.537 65.7113 157.256 65.418C157.974 65.1247 158.803 64.978 159.742 64.978C160.519 64.978 161.274 65.0807 162.008 65.286C162.741 65.4767 163.372 65.7847 163.9 66.21L163.064 68.344C162.624 68.0213 162.096 67.7573 161.48 67.552C160.878 67.3467 160.314 67.244 159.786 67.244C159.126 67.244 158.649 67.354 158.356 67.574C158.062 67.7793 157.916 68.0433 157.916 68.366C157.916 68.8793 158.26 69.202 158.95 69.334L161.26 69.752C162.213 69.9133 162.939 70.236 163.438 70.72C163.936 71.1893 164.186 71.8347 164.186 72.656C164.186 73.7853 163.746 74.6653 162.866 75.296C161.986 75.9267 160.827 76.242 159.39 76.242ZM177.507 76.242C174.471 76.242 172.953 74.768 172.953 71.82V67.684H170.907V65.198H172.953V62.03H176.275V65.198H179.465V67.684H176.275V71.688C176.275 72.304 176.414 72.766 176.693 73.074C176.986 73.382 177.448 73.536 178.079 73.536C178.269 73.536 178.467 73.514 178.673 73.47C178.893 73.426 179.127 73.3673 179.377 73.294L179.861 75.714C179.553 75.8753 179.186 76 178.761 76.088C178.335 76.1907 177.917 76.242 177.507 76.242ZM181.099 76V60.49H184.421V66.672C184.803 66.1147 185.294 65.6967 185.895 65.418C186.497 65.1247 187.164 64.978 187.897 64.978C190.435 64.978 191.703 66.4887 191.703 69.51V76H188.381V69.664C188.381 68.916 188.242 68.3807 187.963 68.058C187.685 67.7207 187.274 67.552 186.731 67.552C186.027 67.552 185.463 67.772 185.037 68.212C184.627 68.652 184.421 69.2387 184.421 69.972V76H181.099ZM197.835 76.242C197.029 76.242 196.317 76.088 195.701 75.78C195.085 75.472 194.594 75.054 194.227 74.526C193.875 73.998 193.699 73.404 193.699 72.744C193.699 71.9667 193.905 71.3433 194.315 70.874C194.726 70.4047 195.393 70.0747 196.317 69.884C197.241 69.6787 198.466 69.576 199.991 69.576H200.783V69.202C200.783 68.5567 200.637 68.102 200.343 67.838C200.05 67.5593 199.551 67.42 198.847 67.42C198.261 67.42 197.637 67.5153 196.977 67.706C196.332 67.882 195.687 68.1533 195.041 68.52L194.139 66.298C194.521 66.0487 194.983 65.8213 195.525 65.616C196.083 65.4107 196.662 65.2567 197.263 65.154C197.865 65.0367 198.437 64.978 198.979 64.978C200.651 64.978 201.898 65.3593 202.719 66.122C203.541 66.87 203.951 68.036 203.951 69.62V76H200.849V74.372C200.629 74.944 200.255 75.3987 199.727 75.736C199.214 76.0733 198.583 76.242 197.835 76.242ZM198.583 74.02C199.199 74.02 199.72 73.8073 200.145 73.382C200.571 72.9567 200.783 72.4067 200.783 71.732V71.292H200.013C198.884 71.292 198.085 71.3947 197.615 71.6C197.146 71.7907 196.911 72.128 196.911 72.612C196.911 73.0227 197.051 73.36 197.329 73.624C197.623 73.888 198.041 74.02 198.583 74.02ZM206.429 76V65.198H209.685V66.782C210.052 66.1953 210.543 65.748 211.159 65.44C211.775 65.132 212.465 64.978 213.227 64.978C214.503 64.978 215.457 65.352 216.087 66.1C216.718 66.8333 217.033 67.97 217.033 69.51V76H213.711V69.664C213.711 68.916 213.572 68.3807 213.293 68.058C213.015 67.7207 212.604 67.552 212.061 67.552C211.357 67.552 210.793 67.772 210.367 68.212C209.957 68.652 209.751 69.2387 209.751 69.972V76H206.429Z" fill="white"/>
<rect opacity="0.08" x="17" y="116" width="36" height="20" rx="8" fill="#0E3C73"/>
<rect opacity="0.08" x="17" y="84" width="24" height="20" rx="8" fill="#0E3C73"/>
<rect opacity="0.08" x="17" y="148" width="24" height="20" rx="8" fill="#0E3C73"/>
<rect opacity="0.08" x="17" y="180" width="24" height="20" rx="8" fill="#0E3C73"/>
<rect x="65" y="236" width="390" height="129" rx="8" fill="white"/>
<rect x="65.5" y="236.5" width="389" height="128" rx="7.5" stroke="#0189FF" stroke-opacity="0.5"/>
<rect opacity="0.08" x="404.75" y="263.75" width="15.5" height="15.5" rx="7.75" stroke="#0E3C73" stroke-width="15.5"/>
<rect opacity="0.08" x="268" y="256" width="100" height="12" rx="4" fill="#0E3C73"/>
<rect opacity="0.06" x="268" y="333" width="50" height="12" rx="4" fill="#0E3C73"/>
<rect opacity="0.06" x="322" y="333" width="53.335" height="12" rx="4" fill="#0E3C73"/>
<rect opacity="0.06" x="379" y="333" width="53.335" height="12" rx="4" fill="#0E3C73"/>
<rect opacity="0.08" x="268" y="272" width="67" height="4" rx="2" fill="#0E3C73"/>
<rect opacity="0.08" x="268" y="280" width="45" height="4" rx="2" fill="#0E3C73"/>
<rect opacity="0.08" x="268" y="300" width="89" height="4" rx="2" fill="#0E3C73"/>
<rect opacity="0.08" x="369" y="300" width="63" height="4" rx="2" fill="#0E3C73"/>
<rect opacity="0.08" x="268" y="308" width="43" height="4" rx="2" fill="#0E3C73"/>
<rect opacity="0.08" x="315" y="308" width="26" height="4" rx="2" fill="#0E3C73"/>
<rect opacity="0.08" x="369" y="308" width="26" height="4" rx="2" fill="#0E3C73"/>
<line opacity="0.2" x1="85.5" y1="256" x2="85.5" y2="344" stroke="#0189FF" stroke-dasharray="4 4"/>
<rect opacity="0.1" x="95" y="256.003" width="69" height="4" rx="2" fill="#0189FF"/>
<rect opacity="0.1" x="207" y="256.003" width="16" height="4" rx="2" fill="#0189FF"/>
<rect opacity="0.1" x="95" y="262.003" width="37" height="4" rx="2" fill="#0189FF"/>
<g clip-path="url(#clip0_97_266)">
<g opacity="0.24" clip-path="url(#clip1_97_266)">
<path d="M248.022 283.874C256.011 283.874 256.011 273.784 264 273.784V345H-295.243V338.288C-286.588 338.288 -287.254 342 -279.264 342C-271.275 342 -271.275 331.459 -263.286 331.459C-255.297 331.459 -256.628 334.703 -247.308 334.703C-237.987 334.703 -240.65 340.775 -231.329 340.775C-222.009 340.775 -224.006 338.468 -215.351 338.468C-206.696 338.468 -208.36 327.478 -199.373 327.478C-190.385 327.478 -192.715 331.063 -183.394 331.063C-174.073 331.063 -175.738 336 -167.416 336C-159.094 336 -160.425 319.604 -151.437 319.604C-142.45 319.604 -143.448 325.279 -135.459 325.279C-127.47 325.279 -128.801 317.333 -119.481 317.333C-110.16 317.333 -112.157 322.414 -103.502 322.414C-94.8474 322.414 -96.179 301.64 -87.524 301.64C-78.869 301.64 -80.5335 307.423 -71.5457 307.423C-62.5578 307.423 -64.888 311.243 -55.5673 311.243C-46.2466 311.243 -48.5768 301.333 -39.5889 301.333C-30.6011 301.333 -32.9313 306.198 -23.6106 306.198C-14.2898 306.198 -15.9543 298.18 -7.6322 298.18C0.68988 298.18 -0.308777 284.775 8.34618 284.775C17.0011 284.775 15.6696 307.207 24.3245 307.207C32.9795 307.207 31.9808 291.496 40.3029 291.496C48.625 291.496 46.9606 298.378 56.2813 298.378C65.602 298.378 63.6047 304.559 72.2596 304.559C80.9146 304.559 79.9159 294.324 88.238 294.324C96.5601 294.324 95.8943 304.054 104.216 304.054C112.538 304.054 111.54 299.73 120.195 299.73C128.85 299.73 127.518 290.811 136.173 290.811C144.828 290.811 143.497 294.378 152.151 294.378C160.806 294.378 160.141 281.351 168.13 281.351C176.119 281.351 174.787 299.207 184.108 299.207C193.429 299.207 191.099 287.081 200.087 287.081C209.074 287.081 207.743 292.072 216.065 292.072C224.387 292.072 223.721 279.64 232.043 279.64C240.365 279.64 240.032 283.874 248.022 283.874Z" fill="url(#paint0_linear_97_266)"/>
</g>
<g clip-path="url(#clip2_97_266)">
<path d="M264 273.784C256.011 273.784 256.011 283.874 248.022 283.874C240.032 283.874 240.365 279.64 232.043 279.64C223.721 279.64 224.387 292.072 216.065 292.072C207.743 292.072 209.074 287.081 200.087 287.081C191.099 287.081 193.429 299.207 184.108 299.207C174.787 299.207 176.119 281.351 168.13 281.351C160.141 281.351 160.806 294.378 152.151 294.378C143.497 294.378 144.828 290.811 136.173 290.811C127.518 290.811 128.85 299.73 120.195 299.73C111.54 299.73 112.538 304.054 104.216 304.054C95.8943 304.054 96.5601 294.324 88.238 294.324C79.9159 294.324 80.9146 304.559 72.2596 304.559C63.6047 304.559 65.602 298.378 56.2813 298.378C46.9606 298.378 48.625 291.496 40.3029 291.496C31.9808 291.496 32.9795 307.207 24.3245 307.207C15.6696 307.207 17.0011 284.775 8.34618 284.775C-0.308771 284.775 0.689877 298.18 -7.63219 298.18C-15.9543 298.18 -14.2898 306.198 -23.6106 306.198C-32.9313 306.198 -30.6011 301.333 -39.5889 301.333C-48.5767 301.333 -46.2466 311.243 -55.5673 311.243C-64.888 311.243 -62.5578 307.423 -71.5456 307.423C-80.5335 307.423 -78.8691 301.64 -87.524 301.64C-96.179 301.64 -94.8474 322.414 -103.502 322.414C-112.157 322.414 -110.16 317.333 -119.481 317.333C-128.801 317.333 -127.47 325.279 -135.459 325.279C-143.448 325.279 -142.45 319.604 -151.437 319.604C-160.425 319.604 -159.094 336 -167.416 336C-175.738 336 -174.073 331.063 -183.394 331.063C-192.715 331.063 -190.385 327.478 -199.373 327.478C-208.36 327.478 -206.696 338.469 -215.351 338.469C-224.006 338.469 -222.009 340.775 -231.329 340.775C-240.65 340.775 -237.987 334.703 -247.308 334.703C-256.628 334.703 -255.297 331.459 -263.286 331.459C-271.275 331.459 -271.275 342 -279.264 342C-287.254 342 -286.588 338.288 -295.243 338.288" stroke="#0189FF"/>
</g>
<rect x="0.332883" y="-0.332883" width="5.99189" height="5.99189" rx="2.99594" transform="matrix(-1 0 0 1 251.341 281.087)" fill="#0189FF" stroke="white" stroke-width="0.665765"/>
<rect x="0.332883" y="-0.332883" width="5.99189" height="5.99189" rx="2.99594" transform="matrix(-1 0 0 1 235.362 276.837)" fill="#0189FF" stroke="white" stroke-width="0.665765"/>
<rect x="0.332883" y="-0.332883" width="5.99189" height="5.99189" rx="2.99594" transform="matrix(-1 0 0 1 219.384 289.337)" fill="#0189FF" stroke="white" stroke-width="0.665765"/>
<rect x="0.332883" y="-0.332883" width="5.99189" height="5.99189" rx="2.99594" transform="matrix(-1 0 0 1 203.405 284.337)" fill="#0189FF" stroke="white" stroke-width="0.665765"/>
<rect x="0.332883" y="-0.332883" width="5.99189" height="5.99189" rx="2.99594" transform="matrix(-1 0 0 1 171.448 278.587)" fill="#0189FF" stroke="white" stroke-width="0.665765"/>
<rect x="0.332883" y="-0.332883" width="5.99189" height="5.99189" rx="2.99594" transform="matrix(-1 0 0 1 155.469 291.837)" fill="#0189FF" stroke="white" stroke-width="0.665765"/>
<rect x="0.332883" y="-0.332883" width="5.99189" height="5.99189" rx="2.99594" transform="matrix(-1 0 0 1 139.491 288.337)" fill="#0189FF" stroke="white" stroke-width="0.665765"/>
<rect x="0.332883" y="-0.332883" width="5.99189" height="5.99189" rx="2.99594" transform="matrix(-1 0 0 1 123.512 297.087)" fill="#0189FF" stroke="white" stroke-width="0.665765"/>
<rect x="0.332883" y="-0.332883" width="5.99189" height="5.99189" rx="2.99594" transform="matrix(-1 0 0 1 187.427 296.587)" fill="#0189FF" stroke="white" stroke-width="0.665765"/>
<rect x="0.332883" y="-0.332883" width="5.99189" height="5.99189" rx="2.99594" transform="matrix(-1 0 0 1 91.5554 291.587)" fill="#0189FF" stroke="white" stroke-width="0.665765"/>
<rect x="0.332883" y="-0.332883" width="5.99189" height="5.99189" rx="2.99594" transform="matrix(-1 0 0 1 107.534 301.587)" fill="#0189FF" stroke="white" stroke-width="0.665765"/>
</g>
<line opacity="0.2" x1="85" y1="344.5" x2="222" y2="344.5" stroke="#0189FF" stroke-dasharray="4 4"/>
<rect x="268" y="84" width="187" height="136" rx="8" fill="white"/>
<rect x="268.5" y="84.5" width="186" height="135" rx="7.5" stroke="#0189FF" stroke-opacity="0.5"/>
<g opacity="0.3">
<path d="M301.436 111.712L308 115.424L314.564 111.712L308 108L301.436 111.712Z" fill="#0E3C73"/>
<path d="M316.469 112.789L309.905 116.501L316.469 120.213L323.033 116.501L316.469 112.789Z" fill="#0E3C73"/>
<path d="M315.531 121.837L308.938 118.108V136.271L315.531 140V121.837Z" fill="#0E3C73"/>
<path d="M299.531 122.948L292.967 126.66L299.531 130.372L306.095 126.66L299.531 122.948Z" fill="#0E3C73"/>
<path d="M307.062 125.052V117.048L300.469 113.319V121.324L307.062 125.052Z" fill="#0E3C73"/>
<path d="M317.406 121.837V140L324 136.271V118.108L317.406 121.837Z" fill="#0E3C73"/>
<path d="M300.469 131.996V140L307.062 136.271V128.267L300.469 131.996Z" fill="#0E3C73"/>
<path d="M298.594 131.996L292 128.267V136.271L298.594 140V131.996Z" fill="#0E3C73"/>
</g>
<rect opacity="0.08" x="340" y="110" width="73" height="12" rx="4" fill="#0E3C73"/>
<rect opacity="0.08" x="340" y="126" width="50" height="4" rx="2" fill="#0E3C73"/>
<rect opacity="0.08" x="340" y="134" width="30" height="4" rx="2" fill="#0E3C73"/>
<rect opacity="0.08" x="340" y="166" width="73" height="12" rx="4" fill="#0E3C73"/>
<rect opacity="0.08" x="340" y="182" width="50" height="4" rx="2" fill="#0E3C73"/>
<rect opacity="0.08" x="340" y="190" width="30" height="4" rx="2" fill="#0E3C73"/>
<g opacity="0.3">
<path d="M297.594 172.198L305.662 175.865C306.868 174.51 309.132 174.51 310.338 175.865L318.406 172.198C318.229 171.524 318.301 170.738 318.588 170.118L310.901 166.624C309.773 169.103 306.226 169.102 305.099 166.624L297.411 170.118C297.699 170.738 297.771 171.524 297.594 172.198Z" fill="#0E3C73"/>
<path d="M307.062 181.074C305.608 180.645 304.599 179.116 304.848 177.555L296.61 173.81C296.055 174.3 295.329 174.6 294.533 174.607V185.386C296.797 185.377 298.364 187.829 297.412 189.876L305.099 193.369C305.474 192.547 306.189 191.911 307.062 191.642V181.074Z" fill="#0E3C73"/>
<path d="M321.467 185.386V174.607C320.671 174.6 319.945 174.3 319.391 173.81L311.152 177.555C311.401 179.116 310.392 180.645 308.938 181.074V191.642C309.811 191.911 310.526 192.547 310.901 193.369L318.589 189.876C317.635 187.829 319.204 185.377 321.467 185.386Z" fill="#0E3C73"/>
<path d="M308 166.617C308.729 166.619 309.316 166.013 309.312 165.305C309.24 163.565 306.76 163.565 306.688 165.305C306.684 166.013 307.271 166.619 308 166.617Z" fill="#0E3C73"/>
<path d="M308 176.717C306.854 176.714 306.25 178.115 307.062 178.944C307.554 179.468 308.446 179.469 308.938 178.944C309.75 178.115 309.146 176.714 308 176.717Z" fill="#0E3C73"/>
<path d="M308.938 193.773C308.446 193.248 307.554 193.248 307.062 193.773C306.254 194.591 306.846 196.003 308 196C309.154 196.003 309.746 194.591 308.938 193.773Z" fill="#0E3C73"/>
<path d="M294.533 187.261C293.8 187.243 293.191 187.84 293.192 188.573C293.192 189.296 293.78 189.884 294.503 189.884C295.04 189.884 295.502 189.561 295.704 189.099C296.087 188.27 295.447 187.265 294.533 187.261Z" fill="#0E3C73"/>
<path d="M293.705 172.461C293.941 172.641 294.231 172.74 294.533 172.732C295.253 172.717 295.833 172.113 295.814 171.389C295.802 170.694 295.221 170.107 294.503 170.109C293.248 170.116 292.723 171.705 293.705 172.461Z" fill="#0E3C73"/>
<path d="M321.497 187.261C321.487 187.261 321.477 187.261 321.467 187.261C320.553 187.265 319.913 188.27 320.296 189.099C320.498 189.561 320.96 189.884 321.497 189.884C323.237 189.813 323.236 187.333 321.497 187.261Z" fill="#0E3C73"/>
<path d="M321.467 172.732C322.185 172.754 322.813 172.156 322.808 171.42C322.808 170.697 322.22 170.109 321.497 170.109C320.779 170.107 320.198 170.694 320.186 171.389C320.167 172.113 320.747 172.717 321.467 172.732Z" fill="#0E3C73"/>
</g>
<defs>
<linearGradient id="paint0_linear_97_266" x1="-15.6214" y1="273.784" x2="-15.6214" y2="345" gradientUnits="userSpaceOnUse">
<stop stop-color="#D72F50"/>
<stop offset="1" stop-color="#D72F50" stop-opacity="0"/>
</linearGradient>
<clipPath id="clip0_97_266">
<rect width="166" height="80" fill="white" transform="translate(86 265)"/>
</clipPath>
<clipPath id="clip1_97_266">
<rect width="178" height="71.2162" fill="white" transform="matrix(-1 0 0 1 264 273.784)"/>
</clipPath>
<clipPath id="clip2_97_266">
<rect width="178" height="71.25" fill="white" transform="matrix(-1 0 0 1 264 273.75)"/>
</clipPath>
</defs>
</svg>
