<svg width="1440" height="839" viewBox="0 0 1440 839" fill="none" xmlns="http://www.w3.org/2000/svg">
<path opacity="0.1" d="M1533.37 856.824C1730.23 856.824 1889.82 697.902 1889.82 501.862C1889.82 305.821 1730.23 146.899 1533.37 146.899C1336.51 146.899 1176.92 305.821 1176.92 501.862C1176.92 697.902 1336.51 856.824 1533.37 856.824Z" fill="url(#paint0_linear_24_5200)"/>
<path opacity="0.04" d="M804.633 1305.93C1001.49 1305.93 1161.08 1147.01 1161.08 950.971C1161.08 754.931 1001.49 596.009 804.633 596.009C607.773 596.009 448.185 754.931 448.185 950.971C448.185 1147.01 607.773 1305.93 804.633 1305.93Z" stroke="#F8F0E4" stroke-miterlimit="10"/>
<path opacity="0.04" d="M1555.85 372.152C1752.71 372.152 1912.3 213.229 1912.3 17.1888C1912.3 -178.852 1752.71 -337.774 1555.85 -337.774C1358.99 -337.774 1199.4 -178.852 1199.4 17.1888C1199.4 213.229 1358.99 372.152 1555.85 372.152Z" stroke="#F8F0E4" stroke-miterlimit="10"/>
<path opacity="0.04" d="M894.528 105.975C943.602 105.975 983.385 66.3576 983.385 17.4874C983.385 -31.3829 943.602 -71 894.528 -71C845.453 -71 805.67 -31.3829 805.67 17.4874C805.67 66.3576 845.453 105.975 894.528 105.975Z" fill="url(#paint1_linear_24_5200)"/>
<path opacity="0.08" d="M325.785 697.115C342.836 697.115 356.659 683.35 356.659 666.37C356.659 649.39 342.836 635.625 325.785 635.625C308.734 635.625 294.912 649.39 294.912 666.37C294.912 683.35 308.734 697.115 325.785 697.115Z" fill="url(#paint2_linear_24_5200)"/>
<path opacity="0.08" d="M-61.552 666.37C135.309 666.37 294.896 507.448 294.896 311.407C294.896 115.367 135.309 -43.5554 -61.552 -43.5554C-258.413 -43.5554 -418 115.367 -418 311.407C-418 507.448 -258.413 666.37 -61.552 666.37Z" fill="#D84353"/>
<path opacity="0.04" d="M220.792 231.733C220.9 202.916 197.528 179.468 168.59 179.361C139.652 179.254 116.106 202.529 115.999 231.346C115.892 260.164 139.264 283.611 168.201 283.718C197.139 283.825 220.685 260.55 220.792 231.733Z" stroke="#F8F0E4" stroke-miterlimit="10"/>
<defs>
<linearGradient id="paint0_linear_24_5200" x1="1533.37" y1="856.824" x2="1533.37" y2="146.917" gradientUnits="userSpaceOnUse">
<stop stop-color="#40A4FF"/>
<stop offset="1" stop-color="#311996"/>
</linearGradient>
<linearGradient id="paint1_linear_24_5200" x1="894.528" y1="105.972" x2="894.528" y2="-70.9994" gradientUnits="userSpaceOnUse">
<stop stop-color="#40A4FF"/>
<stop offset="1" stop-color="#311996"/>
</linearGradient>
<linearGradient id="paint2_linear_24_5200" x1="356.66" y1="666.361" x2="294.917" y2="666.361" gradientUnits="userSpaceOnUse">
<stop stop-color="#40A4FF"/>
<stop offset="1" stop-color="#311996"/>
</linearGradient>
</defs>
</svg>
