<svg width="360" height="755" viewBox="0 0 360 755" fill="none" xmlns="http://www.w3.org/2000/svg">
<path opacity="0.1" d="M383.342 470.989C432.558 470.989 472.454 431.259 472.454 382.248C472.454 333.238 432.558 293.508 383.342 293.508C334.127 293.508 294.23 333.238 294.23 382.248C294.23 431.259 334.127 470.989 383.342 470.989Z" fill="url(#paint0_linear_25_6307)"/>
<path opacity="0.04" d="M184.112 863.267C233.327 863.267 273.224 823.536 273.224 774.526C273.224 725.516 233.327 685.785 184.112 685.785C134.897 685.785 95 725.516 95 774.526C95 823.536 134.897 863.267 184.112 863.267Z" stroke="#F8F0E4" stroke-miterlimit="10"/>
<path opacity="0.04" d="M368.963 89.8209C418.178 89.8209 458.075 50.0903 458.075 1.08018C458.075 -47.93 418.178 -87.6605 368.963 -87.6605C319.748 -87.6605 279.851 -47.93 279.851 1.08018C279.851 50.0903 319.748 89.8209 368.963 89.8209Z" stroke="#F8F0E4" stroke-miterlimit="10"/>
<path opacity="0.04" d="M223.632 223.277C235.901 223.277 245.846 213.372 245.846 201.155C245.846 188.937 235.901 179.033 223.632 179.033C211.363 179.033 201.418 188.937 201.418 201.155C201.418 213.372 211.363 223.277 223.632 223.277Z" fill="url(#paint1_linear_25_6307)"/>
<path opacity="0.08" d="M51.4464 561.062C55.7092 561.062 59.1648 557.621 59.1648 553.376C59.1648 549.131 55.7092 545.689 51.4464 545.689C47.1837 545.689 43.728 549.131 43.728 553.376C43.728 557.621 47.1837 561.062 51.4464 561.062Z" fill="url(#paint2_linear_25_6307)"/>
<path opacity="0.08" d="M-15.388 325.481C33.8272 325.481 73.724 285.751 73.724 236.741C73.724 187.731 33.8272 148 -15.388 148C-64.6032 148 -104.5 187.731 -104.5 236.741C-104.5 285.751 -64.6032 325.481 -15.388 325.481Z" fill="#D84353"/>
<path opacity="0.04" d="M55.1981 216.822C55.2249 209.618 49.3819 203.756 42.1474 203.729C34.913 203.703 29.0265 209.521 28.9997 216.726C28.9729 223.93 34.8159 229.792 42.0504 229.818C49.2849 229.845 55.1713 224.027 55.1981 216.822Z" stroke="#F8F0E4" stroke-miterlimit="10"/>
<defs>
<linearGradient id="paint0_linear_25_6307" x1="383.342" y1="470.989" x2="383.342" y2="293.512" gradientUnits="userSpaceOnUse">
<stop stop-color="#40A4FF"/>
<stop offset="1" stop-color="#311996"/>
</linearGradient>
<linearGradient id="paint1_linear_25_6307" x1="223.632" y1="223.276" x2="223.632" y2="179.033" gradientUnits="userSpaceOnUse">
<stop stop-color="#40A4FF"/>
<stop offset="1" stop-color="#311996"/>
</linearGradient>
<linearGradient id="paint2_linear_25_6307" x1="59.1651" y1="553.373" x2="43.7294" y2="553.373" gradientUnits="userSpaceOnUse">
<stop stop-color="#40A4FF"/>
<stop offset="1" stop-color="#311996"/>
</linearGradient>
</defs>
</svg>
