<svg width="80" height="80" viewBox="0 0 80 80" fill="none" xmlns="http://www.w3.org/2000/svg">
<circle cx="39.9999" cy="40" r="39.5" fill="#D84353" fill-opacity="0.24" stroke="#162D73"/>
<circle cx="39.9999" cy="40" r="35.5" fill="white" stroke="#162D73"/>
<g clip-path="url(#clip0_97_265)">
<path fill-rule="evenodd" clip-rule="evenodd" d="M29.3342 33.5403L39.9993 39.9639L50.6644 33.5403L39.9993 27.1145L29.3342 33.5403Z" fill="#D84353" fill-opacity="0.6"/>
<path fill-rule="evenodd" clip-rule="evenodd" d="M29.3342 46.0995L39.9993 52.5231V46.465V39.9639L29.3342 33.5403V46.0995Z" fill="#D84353" fill-opacity="0.5"/>
<path fill-rule="evenodd" clip-rule="evenodd" d="M39.9994 46.465V52.5231L50.6645 46.0995V33.5403L39.9994 39.9639V46.465Z" fill="#D84353" fill-opacity="0.5"/>
<path fill-rule="evenodd" clip-rule="evenodd" d="M22.1733 31.5689C22.8223 32.6432 24.2155 32.9888 25.2898 32.3397C25.6176 32.1426 25.8767 31.8746 26.0628 31.5689C26.4814 30.8712 26.5102 29.9697 26.0606 29.2254C25.4138 28.1511 24.0184 27.8056 22.9441 28.4546C21.8721 29.1014 21.5265 30.4968 22.1733 31.5689Z" fill="#BFDBFF"/>
<path fill-rule="evenodd" clip-rule="evenodd" d="M22.9441 51.183C24.0184 51.832 25.4138 51.4864 26.0606 50.4122C26.5102 49.668 26.4815 48.7664 26.0628 48.0687C25.8767 47.763 25.6176 47.495 25.2898 47.2979C24.2156 46.6489 22.8224 46.9945 22.1733 48.0687C21.5265 49.1407 21.8721 50.5362 22.9441 51.183Z" fill="#BFDBFF"/>
<path fill-rule="evenodd" clip-rule="evenodd" d="M54.709 32.3397C55.7811 32.9887 57.1766 32.6431 57.8233 31.5689C58.4723 30.4968 58.1267 29.1014 57.0525 28.4546C55.9804 27.8056 54.585 28.1512 53.9382 29.2254C53.4886 29.9696 53.5174 30.8711 53.9361 31.5689C54.1199 31.8745 54.3812 32.1425 54.709 32.3397Z" fill="#BFDBFF"/>
<path fill-rule="evenodd" clip-rule="evenodd" d="M53.9381 50.4121C54.5849 51.4864 55.9803 51.832 57.0523 51.1829C58.1265 50.5361 58.4721 49.1407 57.8231 48.0686C57.1763 46.9943 55.7809 46.6488 54.7089 47.2978C54.3811 47.495 54.1197 47.763 53.9359 48.0686C53.5173 48.7664 53.4885 49.6679 53.9381 50.4121Z" fill="#BFDBFF"/>
<path d="M58.4927 47.6656C58.0718 46.9666 57.4039 46.4739 56.6121 46.2782C55.8215 46.0829 55.0024 46.2073 54.3058 46.6285C54.1053 46.7493 53.9224 46.8909 53.7579 47.0495L51.4459 45.6578V33.9818L53.7581 32.5884C53.9224 32.7468 54.1052 32.8884 54.3056 33.009C54.7872 33.3003 55.327 33.4496 55.8757 33.4496C56.1209 33.4496 56.3679 33.4198 56.6121 33.3594C57.4039 33.1638 58.0718 32.671 58.4917 31.9736C58.9136 31.2766 59.0384 30.457 58.8428 29.6658C58.6472 28.8739 58.1544 28.206 57.4571 27.7861C56.76 27.3642 55.9405 27.2394 55.1493 27.435C54.3574 27.6306 53.6895 28.1234 53.2696 28.8208C52.8477 29.5179 52.7229 30.3374 52.9185 31.1286C52.9285 31.1694 52.9399 31.2096 52.9515 31.2497L50.6644 32.628L40.7808 26.673V22.6661L42.1313 24.0167C42.2839 24.1693 42.4839 24.2456 42.6839 24.2456C42.8838 24.2456 43.0839 24.1692 43.2364 24.0167C43.5416 23.7115 43.5416 23.2167 43.2364 22.9116L40.552 20.2271C40.2663 19.9414 39.7262 19.9077 39.4467 20.2271L36.7603 22.9114C36.455 23.2165 36.4548 23.7112 36.7599 24.0165C37.0649 24.3218 37.5597 24.322 37.865 24.0169L39.2179 22.665V26.6731L29.3344 32.628L27.0449 31.2485C27.2743 30.4589 27.187 29.5799 26.73 28.8225C26.3095 28.1239 25.6421 27.6313 24.8508 27.4354C24.059 27.2394 23.2385 27.3638 22.5405 27.7856C21.1004 28.6545 20.6355 30.5327 21.5045 31.973C21.9262 32.6712 22.5939 33.1634 23.3843 33.3591C23.6289 33.4197 23.8762 33.4496 24.1219 33.4496C24.6707 33.4496 25.2112 33.3002 25.6935 33.0089C25.8952 32.8872 26.0771 32.7451 26.2395 32.5878L28.5529 33.9818V36.3092C28.5529 36.7407 28.9028 37.0906 29.3344 37.0906C29.7659 37.0906 30.1158 36.7407 30.1158 36.3092V34.9232L39.2179 40.4055V46.465V51.1402L30.1158 45.6579V43.3285C30.1158 42.8969 29.7659 42.5471 29.3344 42.5471C28.9028 42.5471 28.5529 42.8969 28.5529 43.3285V45.6577L26.2398 47.05C26.0772 46.8926 25.8953 46.7504 25.6935 46.6287C24.9953 46.207 24.1753 46.0825 23.3843 46.2784C22.5939 46.4741 21.9263 46.9664 21.5042 47.665C20.6355 49.1049 21.1004 50.9832 22.5401 51.8518C23.0225 52.1433 23.5633 52.2929 24.1126 52.2929C24.3584 52.2929 24.6061 52.2629 24.8509 52.2023C25.6422 52.0064 26.3096 51.5137 26.7297 50.8158C27.1868 50.0581 27.2743 49.1791 27.045 48.3896L29.3342 47.0117L39.2179 52.9647V57.3392L37.8652 55.9864C37.5601 55.6812 37.0653 55.6812 36.7601 55.9864C36.455 56.2915 36.4549 56.7863 36.7601 57.0914L39.4467 59.7782C39.7716 60.103 40.2205 60.0434 40.5522 59.7781L43.2367 57.0912C43.5417 56.7859 43.5416 56.2912 43.2363 55.9861C42.931 55.6811 42.4362 55.6813 42.1312 55.9866L40.7809 57.3381V52.9647L50.6647 47.0117L52.9516 48.3882C52.94 48.4282 52.9286 48.4683 52.9186 48.509C52.7231 49.3001 52.8478 50.1198 53.2688 50.8152C53.6896 51.5142 54.3575 52.0069 55.1494 52.2026C55.3937 52.263 55.6407 52.2929 55.8861 52.2929C56.435 52.2929 56.975 52.1434 57.4556 51.8524C58.1546 51.4316 58.6473 50.7637 58.843 49.9719C59.0384 49.1806 58.9136 48.361 58.4927 47.6656ZM25.3911 50.0091C25.1862 50.3496 24.8609 50.5897 24.4752 50.6852C24.0892 50.781 23.689 50.7202 23.3479 50.5139C22.6456 50.0903 22.4189 49.1744 22.8422 48.4728C23.0483 48.1315 23.3743 47.8911 23.7598 47.7956C23.8789 47.7661 23.9993 47.7516 24.1189 47.7516C24.3865 47.7516 24.6503 47.8246 24.8857 47.9667C24.8858 47.9668 24.8859 47.9669 24.8861 47.967C25.5884 48.3906 25.8151 49.3064 25.3911 50.0091ZM54.6077 29.6285C54.8128 29.2877 55.1383 29.0475 55.5242 28.9522C55.6431 28.9228 55.7632 28.9083 55.8824 28.9083C56.15 28.9083 56.4135 28.9813 56.6494 29.1241C56.9901 29.3292 57.2303 29.6548 57.3256 30.0406C57.4208 30.4259 57.3602 30.8249 57.1537 31.1658C56.9486 31.5066 56.623 31.7468 56.2372 31.8421C55.8518 31.9375 55.4529 31.8766 55.1136 31.6712C55.1131 31.6709 55.1125 31.6706 55.112 31.6703C54.7712 31.4652 54.5311 31.1395 54.4357 30.7537C54.3406 30.3684 54.4012 29.9694 54.6077 29.6285ZM39.9994 34.3218C40.4309 34.3218 40.7808 33.9719 40.7808 33.5403V28.4977L49.15 33.5402L39.9994 39.0517L30.8487 33.5402L39.2179 28.4977V33.5403C39.2179 33.9719 39.5678 34.3218 39.9994 34.3218ZM24.8861 31.6707C24.886 31.6708 24.8859 31.6708 24.8857 31.6708C24.5452 31.8767 24.1453 31.9375 23.7598 31.842C23.3742 31.7465 23.0483 31.506 22.8424 31.1652C22.6374 30.8254 22.5771 30.4259 22.6726 30.04C22.7682 29.6541 23.0079 29.3287 23.3482 29.1234C23.5836 28.9812 23.8474 28.9082 24.1153 28.9082C24.2352 28.9082 24.3558 28.9228 24.4751 28.9523C24.8607 29.0478 25.186 29.2879 25.3914 29.629C25.8151 30.3312 25.5884 31.247 24.8861 31.6707ZM49.883 45.6579L40.7808 51.1402V46.465V40.4055L49.883 34.9232V45.6579ZM57.3257 49.5969C57.2303 49.9829 56.9902 50.3083 56.6477 50.5146C56.3085 50.72 55.9094 50.7809 55.5242 50.6855C55.1383 50.5901 54.8128 50.3499 54.6067 50.0076C54.4013 49.6682 54.3406 49.2692 54.4358 48.884C54.5312 48.4981 54.7713 48.1726 55.1121 47.9674C55.1126 47.9671 55.1132 47.9668 55.1137 47.9665C55.3483 47.8245 55.6114 47.7516 55.8787 47.7516C55.9981 47.7516 56.1184 47.7661 56.2373 47.7955C56.6232 47.8908 56.9487 48.1311 57.1549 48.4735C57.3602 48.8126 57.4208 49.2117 57.3257 49.5969Z" fill="black"/>
<path d="M29.3344 40.6025C29.766 40.6025 30.1158 40.2515 30.1158 39.8199C30.1158 39.3884 29.766 39.0385 29.3344 39.0385C28.9028 39.0385 28.553 39.3884 28.553 39.8199V39.8221C28.553 40.2537 28.9028 40.6025 29.3344 40.6025Z" fill="black"/>
</g>
<defs>
<clipPath id="clip0_97_265">
<rect width="40" height="40" fill="white" transform="translate(19.9999 20)"/>
</clipPath>
</defs>
</svg>
