<svg width="80" height="80" viewBox="0 0 80 80" fill="none" xmlns="http://www.w3.org/2000/svg">
<circle cx="39.9999" cy="40" r="39.5" fill="#D84353" fill-opacity="0.24" stroke="#162D73"/>
<circle cx="39.9999" cy="40" r="35.5" fill="white" stroke="#162D73"/>
<g clip-path="url(#clip0_97_246)">
<path d="M33.7499 20.7812H46.2499V28.5938H33.7499V20.7812Z" fill="#F9F9F9"/>
<path d="M34.9218 53.75H45.078V59.2188H34.9218V53.75Z" fill="#00CCF2"/>
<path d="M34.9218 43.4375H45.078V48.9062H34.9218V43.4375Z" fill="#F9F9F9"/>
<path d="M20.7811 43.4375H30.9374V48.9062H20.7811V43.4375Z" fill="#F9F9F9"/>
<path d="M20.7811 33.2812H30.9374V38.75H20.7811V33.2812Z" fill="#D84353" fill-opacity="0.5"/>
<path d="M49.0624 33.2812H59.2186V38.75H49.0624V33.2812Z" fill="#FFEE80"/>
<path d="M35.7001 36.0161L39.9963 31.7199L44.2926 36.0161L39.9963 40.3124L35.7001 36.0161Z" fill="#CCF5FC"/>
<path d="M59.2186 32.5H49.0624C48.6309 32.5 48.2811 32.8498 48.2811 33.2812V35.2344H44.6204L40.7811 31.3951V29.375H46.2499C46.6814 29.375 47.0311 29.0252 47.0311 28.5938V20.7812C47.0311 20.3498 46.6814 20 46.2499 20H33.7499C33.3184 20 32.9686 20.3498 32.9686 20.7812V28.5938C32.9686 29.0252 33.3184 29.375 33.7499 29.375H39.2186V31.3951L35.3793 35.2344H31.7186V33.2812C31.7186 32.8498 31.3689 32.5 30.9374 32.5H20.7811C20.3496 32.5 19.9999 32.8498 19.9999 33.2812V38.75C19.9999 39.1815 20.3496 39.5312 20.7811 39.5312H25.078V42.6562H20.7811C20.3496 42.6562 19.9999 43.006 19.9999 43.4375V48.9062C19.9999 49.3377 20.3496 49.6875 20.7811 49.6875H30.9374C31.3689 49.6875 31.7186 49.3377 31.7186 48.9062V43.4375C31.7186 43.006 31.3689 42.6562 30.9374 42.6562H26.6405V39.5312H30.9374C31.3689 39.5312 31.7186 39.1815 31.7186 38.75V36.7969H35.3793L39.2186 40.6362V42.6562H34.9218C34.4903 42.6562 34.1405 43.006 34.1405 43.4375V48.9062C34.1405 49.3377 34.4903 49.6875 34.9218 49.6875H39.2186V52.9688H34.9218C34.4903 52.9688 34.1405 53.3185 34.1405 53.75V59.2188C34.1405 59.6502 34.4903 60 34.9218 60H45.078C45.5095 60 45.8593 59.6502 45.8593 59.2188V53.75C45.8593 53.3185 45.5095 52.9688 45.078 52.9688H40.7811V49.6875H45.078C45.5095 49.6875 45.8593 49.3377 45.8593 48.9062V46.9531H50.5468C50.9772 46.9531 51.328 46.6023 51.328 46.1719C51.328 45.7414 50.9772 45.3906 50.5468 45.3906H45.8593V43.4375C45.8593 43.006 45.5095 42.6562 45.078 42.6562H40.7811V40.6362L44.6204 36.7969H48.2811V38.75C48.2811 39.1815 48.6309 39.5312 49.0624 39.5312H53.3593V42.7344C53.3593 43.1648 53.71 43.5156 54.1405 43.5156C54.571 43.5156 54.9218 43.1648 54.9218 42.7344V39.5312H59.2186C59.6501 39.5312 59.9999 39.1815 59.9999 38.75V33.2812C59.9999 32.8498 59.6501 32.5 59.2186 32.5ZM34.5311 21.5625H45.4686V27.8125H34.5311V21.5625ZM30.1561 48.125H21.5624V44.2188H30.1561V48.125ZM30.1561 37.9688H21.5624V34.0625H30.1561V37.9688ZM44.2968 58.4375H35.703V54.5312H44.2968V58.4375ZM44.2968 48.125H35.703V44.2188H44.2968V48.125ZM39.9999 39.2077L36.8078 36.0156L39.9999 32.8236L43.1919 36.0156L39.9999 39.2077ZM58.4374 37.9688H49.8436V34.0625H58.4374V37.9688Z" fill="black"/>
<path d="M43.9061 24.6875C43.9061 24.256 43.5564 23.9062 43.1249 23.9062H36.8749C36.4434 23.9062 36.0936 24.256 36.0936 24.6875C36.0936 25.119 36.4434 25.4688 36.8749 25.4688H43.1249C43.5564 25.4688 43.9061 25.119 43.9061 24.6875Z" fill="black"/>
<path d="M54.0624 46.9531C54.4939 46.9531 54.8436 46.6033 54.8436 46.1719C54.8436 45.7404 54.4939 45.3906 54.0624 45.3906C53.6309 45.3906 53.2811 45.7404 53.2811 46.1719C53.2811 46.6033 53.6309 46.9531 54.0624 46.9531Z" fill="black"/>
</g>
<defs>
<clipPath id="clip0_97_246">
<rect width="40" height="40" fill="white" transform="translate(19.9999 20)"/>
</clipPath>
</defs>
</svg>
