<svg width="100%" height="100%" viewBox="0 0 100% 100%" fill="none" xmlns="http://www.w3.org/2000/svg">
<rect x="32" y="32" width="800" height="288.165" rx="144.082" stroke="#162D73" stroke-width="2" stroke-dasharray="12 12"/>
<path d="M171 32C171 14.3269 185.327 0 203 0C220.673 0 235 14.3269 235 32C235 49.6731 220.673 64 203 64C185.327 64 171 49.6731 171 32Z" fill="#162D73"/>
<path opacity="0.1" d="M183 32C183 20.9543 191.954 12 203 12C214.046 12 223 20.9543 223 32C223 43.0457 214.046 52 203 52C191.954 52 183 43.0457 183 32Z" fill="white"/>
<path d="M212.682 38.9121L209.17 35.4005C209.17 35.4004 209.17 35.4003 209.17 35.4002C209.17 35.4001 209.17 35.4001 209.17 35.4L207.914 34.1447C207.49 33.7207 206.8 33.7205 206.376 34.1447L206.222 34.2986L205.692 33.7685C206.731 32.5232 207.356 30.9223 207.356 29.1779C207.356 25.22 204.136 22 200.178 22C196.22 22 193.001 25.22 193.001 29.1779C193.001 33.1358 196.22 36.3558 200.178 36.3558C201.923 36.3558 203.524 35.73 204.769 34.6915L205.299 35.2216L205.145 35.3755C204.721 35.7996 204.721 36.4896 205.145 36.9138L209.913 41.6811C210.338 42.1062 211.026 42.1063 211.451 41.6811L212.682 40.4504C213.106 40.0263 213.106 39.3362 212.682 38.9121ZM200.178 35.0504C196.94 35.0504 194.306 32.416 194.306 29.1779C194.306 25.9398 196.94 23.3054 200.178 23.3054C203.417 23.3054 206.051 25.9398 206.051 29.1779C206.051 32.416 203.417 35.0504 200.178 35.0504ZM206.222 36.1446L207.145 35.2216L207.785 35.8618L206.862 36.7848L206.222 36.1446ZM210.682 40.6043L207.785 37.7078L208.708 36.7848L211.605 39.6812L210.682 40.6043Z" fill="white"/>
<path d="M200.178 24.6108C199.818 24.6108 199.525 24.9031 199.525 25.2635C199.525 25.624 199.818 25.9162 200.178 25.9162C201.977 25.9162 203.44 27.3794 203.44 29.1779C203.44 29.5384 203.732 29.8306 204.093 29.8306C204.453 29.8306 204.745 29.5384 204.745 29.1779C204.745 26.6596 202.696 24.6108 200.178 24.6108Z" fill="white"/>
<rect x="32.5" y="160.5" width="164" height="31" rx="7.5" fill="white" stroke="url(#paint0_linear_25_6339)"/>
<path d="M77.148 180V170.13H81.236C82.3 170.13 83.1213 170.387 83.7 170.9C84.2787 171.404 84.568 172.113 84.568 173.028C84.568 173.765 84.372 174.372 83.98 174.848C83.588 175.315 83.0327 175.627 82.314 175.786C82.762 175.935 83.14 176.295 83.448 176.864L85.156 180H83.56L81.852 176.85C81.656 176.486 81.4273 176.243 81.166 176.122C80.914 175.991 80.5873 175.926 80.186 175.926H78.604V180H77.148ZM78.604 174.834H80.998C82.4353 174.834 83.154 174.241 83.154 173.056C83.154 171.88 82.4353 171.292 80.998 171.292H78.604V174.834ZM89.5105 180.126C88.3905 180.126 87.5085 179.813 86.8645 179.188C86.2205 178.553 85.8985 177.69 85.8985 176.598C85.8985 175.898 86.0385 175.282 86.3185 174.75C86.6079 174.209 87.0045 173.789 87.5085 173.49C88.0125 173.191 88.5912 173.042 89.2445 173.042C90.1872 173.042 90.9292 173.345 91.4705 173.952C92.0119 174.549 92.2825 175.375 92.2825 176.43V176.906H87.2705C87.3732 178.325 88.1245 179.034 89.5245 179.034C89.9165 179.034 90.2992 178.973 90.6725 178.852C91.0552 178.731 91.4145 178.53 91.7505 178.25L92.1705 179.23C91.8625 179.51 91.4659 179.729 90.9805 179.888C90.4952 180.047 90.0052 180.126 89.5105 180.126ZM89.3005 174.036C88.7125 174.036 88.2459 174.218 87.9005 174.582C87.5552 174.946 87.3452 175.431 87.2705 176.038H91.0925C91.0645 175.403 90.8965 174.913 90.5885 174.568C90.2805 174.213 89.8512 174.036 89.3005 174.036ZM96.4281 180.126C95.8307 180.126 95.3034 179.986 94.8461 179.706C94.3981 179.417 94.0481 179.006 93.7961 178.474C93.5441 177.942 93.4181 177.312 93.4181 176.584C93.4181 175.856 93.5441 175.231 93.7961 174.708C94.0481 174.176 94.3981 173.765 94.8461 173.476C95.2941 173.187 95.8214 173.042 96.4281 173.042C96.9414 173.042 97.3987 173.154 97.8001 173.378C98.2014 173.602 98.5001 173.905 98.6961 174.288V170.13H100.11V180H98.7241V178.81C98.5281 179.221 98.2247 179.543 97.8141 179.776C97.4127 180.009 96.9507 180.126 96.4281 180.126ZM96.7921 179.034C97.3707 179.034 97.8374 178.824 98.1921 178.404C98.5467 177.984 98.7241 177.377 98.7241 176.584C98.7241 175.791 98.5467 175.189 98.1921 174.778C97.8374 174.358 97.3707 174.148 96.7921 174.148C96.2041 174.148 95.7327 174.358 95.3781 174.778C95.0234 175.189 94.8461 175.791 94.8461 176.584C94.8461 177.377 95.0234 177.984 95.3781 178.404C95.7327 178.824 96.2041 179.034 96.7921 179.034ZM104.532 180.126C102.88 180.126 102.054 179.207 102.054 177.368V173.168H103.468V177.382C103.468 177.933 103.58 178.339 103.804 178.6C104.028 178.861 104.382 178.992 104.868 178.992C105.4 178.992 105.829 178.815 106.156 178.46C106.492 178.105 106.66 177.629 106.66 177.032V173.168H108.074V180H106.702V178.908C106.478 179.309 106.179 179.613 105.806 179.818C105.432 180.023 105.008 180.126 104.532 180.126ZM113.076 180.126C112.376 180.126 111.77 179.981 111.256 179.692C110.752 179.393 110.36 178.978 110.08 178.446C109.8 177.905 109.66 177.27 109.66 176.542C109.66 175.459 109.968 174.605 110.584 173.98C111.2 173.355 112.031 173.042 113.076 173.042C113.506 173.042 113.93 173.117 114.35 173.266C114.77 173.415 115.116 173.621 115.386 173.882L114.938 174.876C114.677 174.633 114.388 174.456 114.07 174.344C113.762 174.223 113.468 174.162 113.188 174.162C112.526 174.162 112.012 174.372 111.648 174.792C111.294 175.203 111.116 175.791 111.116 176.556C111.116 177.321 111.294 177.923 111.648 178.362C112.012 178.791 112.526 179.006 113.188 179.006C113.468 179.006 113.762 178.95 114.07 178.838C114.388 178.717 114.677 178.535 114.938 178.292L115.386 179.3C115.116 179.552 114.766 179.753 114.336 179.902C113.916 180.051 113.496 180.126 113.076 180.126ZM119.671 180.126C118.551 180.126 117.669 179.813 117.025 179.188C116.381 178.553 116.059 177.69 116.059 176.598C116.059 175.898 116.199 175.282 116.479 174.75C116.768 174.209 117.165 173.789 117.669 173.49C118.173 173.191 118.751 173.042 119.405 173.042C120.347 173.042 121.089 173.345 121.631 173.952C122.172 174.549 122.443 175.375 122.443 176.43V176.906H117.431C117.533 178.325 118.285 179.034 119.685 179.034C120.077 179.034 120.459 178.973 120.833 178.852C121.215 178.731 121.575 178.53 121.911 178.25L122.331 179.23C122.023 179.51 121.626 179.729 121.141 179.888C120.655 180.047 120.165 180.126 119.671 180.126ZM119.461 174.036C118.873 174.036 118.406 174.218 118.061 174.582C117.715 174.946 117.505 175.431 117.431 176.038H121.253C121.225 175.403 121.057 174.913 120.749 174.568C120.441 174.213 120.011 174.036 119.461 174.036ZM131.33 180.126C130.807 180.126 130.345 180.009 129.944 179.776C129.543 179.543 129.244 179.23 129.048 178.838V180H127.662V170.13H129.076V174.274C129.281 173.901 129.58 173.602 129.972 173.378C130.373 173.154 130.826 173.042 131.33 173.042C131.937 173.042 132.464 173.187 132.912 173.476C133.369 173.765 133.719 174.176 133.962 174.708C134.214 175.231 134.34 175.856 134.34 176.584C134.34 177.312 134.214 177.942 133.962 178.474C133.719 179.006 133.369 179.417 132.912 179.706C132.464 179.986 131.937 180.126 131.33 180.126ZM130.98 179.034C131.568 179.034 132.035 178.824 132.38 178.404C132.735 177.984 132.912 177.377 132.912 176.584C132.912 175.791 132.735 175.189 132.38 174.778C132.035 174.358 131.568 174.148 130.98 174.148C130.392 174.148 129.921 174.358 129.566 174.778C129.221 175.189 129.048 175.791 129.048 176.584C129.048 177.377 129.221 177.984 129.566 178.404C129.921 178.824 130.392 179.034 130.98 179.034ZM138.369 180.126C136.717 180.126 135.891 179.207 135.891 177.368V173.168H137.305V177.382C137.305 177.933 137.417 178.339 137.641 178.6C137.865 178.861 138.22 178.992 138.705 178.992C139.237 178.992 139.667 178.815 139.993 178.46C140.329 178.105 140.497 177.629 140.497 177.032V173.168H141.911V180H140.539V178.908C140.315 179.309 140.017 179.613 139.643 179.818C139.27 180.023 138.845 180.126 138.369 180.126ZM143.904 180V173.168H145.276V174.386C145.631 173.574 146.368 173.121 147.488 173.028L147.95 173L148.048 174.204L147.194 174.288C145.953 174.409 145.332 175.049 145.332 176.206V180H143.904ZM149.127 180V173.168H150.499V174.302C150.732 173.891 151.049 173.579 151.451 173.364C151.861 173.149 152.319 173.042 152.823 173.042C154.437 173.042 155.245 173.957 155.245 175.786V180H153.831V175.87C153.831 175.282 153.714 174.853 153.481 174.582C153.257 174.311 152.902 174.176 152.417 174.176C151.847 174.176 151.39 174.358 151.045 174.722C150.709 175.077 150.541 175.548 150.541 176.136V180H149.127ZM163.839 180.126C163.148 180.126 162.551 179.981 162.047 179.692C161.543 179.403 161.151 178.997 160.871 178.474C160.6 177.942 160.465 177.312 160.465 176.584C160.465 175.856 160.6 175.231 160.871 174.708C161.151 174.176 161.543 173.765 162.047 173.476C162.551 173.187 163.148 173.042 163.839 173.042C164.511 173.042 165.099 173.187 165.603 173.476C166.107 173.765 166.499 174.176 166.779 174.708C167.059 175.231 167.199 175.856 167.199 176.584C167.199 177.312 167.059 177.942 166.779 178.474C166.499 178.997 166.107 179.403 165.603 179.692C165.099 179.981 164.511 180.126 163.839 180.126ZM163.839 179.034C164.418 179.034 164.884 178.824 165.239 178.404C165.594 177.984 165.771 177.377 165.771 176.584C165.771 175.791 165.594 175.189 165.239 174.778C164.884 174.358 164.418 174.148 163.839 174.148C163.251 174.148 162.78 174.358 162.425 174.778C162.07 175.189 161.893 175.791 161.893 176.584C161.893 177.377 162.07 177.984 162.425 178.404C162.78 178.824 163.251 179.034 163.839 179.034ZM171.223 180.126C169.571 180.126 168.745 179.207 168.745 177.368V173.168H170.159V177.382C170.159 177.933 170.271 178.339 170.495 178.6C170.719 178.861 171.074 178.992 171.559 178.992C172.091 178.992 172.52 178.815 172.847 178.46C173.183 178.105 173.351 177.629 173.351 177.032V173.168H174.765V180H173.393V178.908C173.169 179.309 172.87 179.613 172.497 179.818C172.124 180.023 171.699 180.126 171.223 180.126ZM179.67 180.126C178.811 180.126 178.172 179.907 177.752 179.468C177.332 179.029 177.122 178.395 177.122 177.564V174.26H175.792V173.168H177.122V171.11H178.536V173.168H180.65V174.26H178.536V177.452C178.536 177.947 178.638 178.32 178.844 178.572C179.058 178.824 179.404 178.95 179.88 178.95C180.029 178.95 180.174 178.936 180.314 178.908C180.454 178.871 180.594 178.829 180.734 178.782L180.958 179.846C180.818 179.93 180.622 179.995 180.37 180.042C180.127 180.098 179.894 180.126 179.67 180.126Z" fill="#162D73"/>
<path d="M0 176C0 158.327 14.3269 144 32 144C49.6731 144 64 158.327 64 176C64 193.673 49.6731 208 32 208C14.3269 208 0 193.673 0 176Z" fill="#D72F50"/>
<path opacity="0.1" d="M12 176C12 164.954 20.9543 156 32 156C43.0457 156 52 164.954 52 176C52 187.046 43.0457 196 32 196C20.9543 196 12 187.046 12 176Z" fill="white"/>
<g clip-path="url(#clip0_25_6339)">
<path d="M42 172.39C42.0006 172.233 41.9382 172.082 41.8268 171.972L36.8159 167C36.5868 166.773 36.217 166.773 35.9888 167.002L34.5327 168.458C33.682 168.377 32.8141 168.467 32.0003 168.719C31.1852 168.467 30.3191 168.377 29.4673 168.458L28.0112 167.002C27.783 166.774 27.4132 166.773 27.1841 167L22.1732 171.972C22.0618 172.082 21.9994 172.233 22 172.39C22.0006 172.547 22.0642 172.697 22.1765 172.807L23.6664 174.263C23.5842 175.137 23.6813 176.03 23.9511 176.864C24.1216 177.39 24.3551 177.884 24.6482 178.342L24.3879 178.603C23.7025 179.288 23.7025 180.403 24.3879 181.089C24.5497 181.25 24.7356 181.373 24.9339 181.459C24.5502 182.13 24.6441 183.002 25.2166 183.574C25.7923 184.15 26.6631 184.241 27.3316 183.858C27.4185 184.059 27.5431 184.244 27.7025 184.403C28.3884 185.089 29.5036 185.088 30.1884 184.403L30.3428 184.249L30.7006 184.607C30.7202 184.626 30.741 184.644 30.7627 184.661C31.094 184.989 31.5331 185.17 32.0001 185.17C32.4679 185.17 32.9079 184.988 33.2395 184.659C33.5671 184.341 33.451 184.455 33.6574 184.249C33.8608 184.452 34.27 184.918 35.0547 184.918C35.5243 184.918 35.9657 184.735 36.2977 184.403C36.4572 184.244 36.5819 184.059 36.6688 183.858C37.3425 184.242 38.2129 184.145 38.7836 183.574C39.356 183.002 39.45 182.13 39.0663 181.459C39.2646 181.373 39.4505 181.25 39.6122 181.089C40.2993 180.402 40.2993 179.29 39.6122 178.603L39.3508 178.341C40.1168 177.138 40.4676 175.69 40.3336 174.263L41.8237 172.807C41.9358 172.697 41.9994 172.547 42 172.39ZM25.2165 180.26C24.9881 180.031 24.9881 179.66 25.2165 179.431L25.3736 179.274C25.4232 179.327 25.4736 179.38 25.5252 179.431L26.1995 180.106L26.0452 180.26C25.8167 180.488 25.445 180.488 25.2165 180.26ZM26.8738 182.746C26.6448 182.975 26.2742 182.975 26.0452 182.746C25.8161 182.517 25.8161 182.146 26.0452 181.917L27.0282 180.934L27.8568 181.763L26.8738 182.746ZM29.3597 183.575C29.1312 183.803 28.7595 183.803 28.5311 183.575C28.4204 183.464 28.3594 183.317 28.3594 183.16C28.3594 183.004 28.4204 182.857 28.5311 182.746C28.5311 182.746 28.5311 182.746 28.5311 182.746L28.6854 182.592L29.5141 183.42L29.3597 183.575ZM38.7835 180.26C38.555 180.488 38.1833 180.488 37.9548 180.26C37.9548 180.26 37.9548 180.26 37.9548 180.26L33.8116 176.117C33.5829 175.888 33.2118 175.888 32.983 176.117C32.7542 176.346 32.7542 176.717 32.983 176.945L37.9548 181.917C38.1833 182.146 38.1833 182.517 37.9548 182.746C37.7264 182.974 37.3547 182.974 37.1262 182.746C36.8522 182.472 32.4469 178.067 32.1543 177.774C31.9255 177.545 31.5545 177.545 31.3257 177.774C31.0969 178.003 31.0969 178.374 31.3257 178.603L35.4693 182.746C35.6979 182.975 35.6979 183.345 35.4689 183.575C35.2399 183.804 34.8693 183.804 34.6402 183.575L30.4971 179.431C30.2683 179.202 29.8973 179.202 29.6684 179.431C29.4396 179.66 29.4396 180.031 29.6684 180.26L32.8286 183.42C32.6384 183.61 32.7242 183.526 32.4209 183.82C32.4186 183.822 32.4165 183.824 32.4143 183.826C32.3036 183.937 32.1564 183.998 32 183.998C31.8435 183.998 31.6964 183.937 31.5857 183.826C31.5836 183.824 31.5814 183.822 31.5791 183.82C31.2306 183.482 26.7277 178.976 26.3539 178.603C25.1698 177.419 24.6261 175.787 24.8621 174.127C24.8884 173.943 24.825 173.756 24.6914 173.626L23.4211 172.385L27.5952 168.243L28.8395 169.487C28.9698 169.618 29.1538 169.679 29.3363 169.653C29.6241 169.612 29.915 169.596 30.2053 169.603C29.9065 169.814 29.6241 170.052 29.3597 170.316C28.6365 171.04 26.6798 172.996 26.0452 173.631C25.3582 174.318 25.3581 175.43 26.0452 176.117C26.3878 176.459 26.838 176.631 27.2881 176.631C27.7382 176.631 28.1884 176.459 28.5311 176.117L30.8818 173.766C31.6484 174.039 32.4677 174.072 33.2361 173.884L38.7835 179.431C39.0125 179.66 39.0125 180.031 38.7835 180.26ZM39.3086 173.626C39.175 173.756 39.1116 173.942 39.1379 174.127C39.3029 175.288 39.0707 176.48 38.4974 177.488L34.4058 173.396C34.6759 173.231 34.9296 173.033 35.1602 172.802C35.389 172.573 35.389 172.202 35.1602 171.974C34.9314 171.745 34.5604 171.745 34.3316 171.974C33.4549 172.85 32.1148 173.08 30.9967 172.546C30.7728 172.439 30.5054 172.485 30.3298 172.661L27.7025 175.288C27.474 175.517 27.1024 175.517 26.8738 175.288C26.7631 175.177 26.7022 175.03 26.7022 174.874C26.7022 174.717 26.7631 174.57 26.8738 174.46C27.5591 173.774 29.5103 171.823 30.1884 171.145C30.1884 171.145 30.1884 171.145 30.1885 171.145C31.3648 169.969 32.9943 169.416 34.6638 169.653C34.8461 169.679 35.0303 169.618 35.1605 169.487L36.4048 168.243L40.5789 172.385L39.3086 173.626Z" fill="white"/>
</g>
<path d="M171 320C171 302.327 185.327 288 203 288C220.673 288 235 302.327 235 320C235 337.673 220.673 352 203 352C185.327 352 171 337.673 171 320Z" fill="#162D73"/>
<path opacity="0.1" d="M183 320C183 308.954 191.954 300 203 300C214.046 300 223 308.954 223 320C223 331.046 214.046 340 203 340C191.954 340 183 331.046 183 320Z" fill="white"/>
<path d="M212.885 315.886L208.701 310.237C208.59 310.088 208.416 310 208.23 310C208.044 310 207.87 310.088 207.759 310.237L203.575 315.886C203.443 316.063 203.423 316.3 203.523 316.498C203.622 316.696 203.825 316.82 204.046 316.82H205.552V319.652C205.257 319.5 204.923 319.414 204.569 319.414H203.523C202.335 319.414 201.368 320.381 201.368 321.569V322.79C201.073 322.638 200.739 322.552 200.385 322.552H199.339C198.151 322.552 197.184 323.519 197.184 324.707V325.928C196.889 325.777 196.555 325.69 196.201 325.69H195.155C193.967 325.69 193 326.657 193 327.845V329.414C193 329.738 193.262 330 193.586 330H210.322C210.646 330 210.908 329.738 210.908 329.414V316.82H212.414C212.635 316.82 212.838 316.696 212.937 316.498C213.037 316.3 213.017 316.063 212.885 315.886ZM194.172 327.845C194.172 327.303 194.613 326.862 195.155 326.862H196.201C196.743 326.862 197.184 327.303 197.184 327.845V328.828H194.172V327.845ZM198.356 327.845V324.707C198.356 324.165 198.797 323.724 199.339 323.724H200.385C200.927 323.724 201.368 324.165 201.368 324.707V328.828H198.356V327.845ZM202.54 324.707V321.569C202.54 321.027 202.981 320.586 203.523 320.586H204.569C205.111 320.586 205.552 321.027 205.552 321.569V328.828H202.54V324.707ZM210.322 315.648C209.998 315.648 209.736 315.911 209.736 316.234V328.828H206.724V316.234C206.724 315.911 206.461 315.648 206.138 315.648H205.209L208.23 311.57L211.251 315.648H210.322Z" fill="white"/>
<defs>
<linearGradient id="paint0_linear_25_6339" x1="91.0016" y1="146.133" x2="156.19" y2="201.212" gradientUnits="userSpaceOnUse">
<stop offset="0.0574454" stop-color="#162D73"/>
<stop offset="1" stop-color="#D84353"/>
</linearGradient>
<clipPath id="clip0_25_6339">
<rect width="20" height="20" fill="white" transform="translate(22 166)"/>
</clipPath>
</defs>
</svg>
