<svg width="329" height="329" viewBox="0 0 329 329" fill="none" xmlns="http://www.w3.org/2000/svg">
<path d="M18.1905 263.111C18.1905 253.122 32.4394 243.132 60.8995 235.48C117.858 220.213 210.174 220.213 267.132 235.48C295.63 243.094 309.841 253.122 309.841 263.111C309.841 273.1 295.592 283.089 267.132 290.742C210.174 306.008 117.858 306.008 60.8995 290.742C32.4017 283.127 18.1905 273.138 18.1905 263.111Z" stroke="url(#paint0_linear_2_638)" stroke-width="2" stroke-miterlimit="10"/>
<path d="M253.524 234.236C204.067 220.967 123.889 220.967 74.4323 234.236C49.704 240.87 37.3399 249.54 37.3399 258.248C37.3399 266.918 49.704 275.626 74.4323 282.223C123.889 295.491 204.067 295.491 253.524 282.223C278.252 275.588 290.616 266.918 290.616 258.21C290.616 249.54 278.252 240.87 253.524 234.236ZM230.794 276.078C193.927 285.954 134.142 285.954 97.2758 276.078C78.8427 271.14 69.6073 264.656 69.6073 258.173C69.6073 251.689 78.8427 245.205 97.2758 240.267C134.142 230.391 193.927 230.391 230.794 240.267C249.227 245.205 258.462 251.689 258.462 258.173C258.424 264.656 249.227 271.14 230.794 276.078Z" fill="url(#paint1_linear_2_638)"/>
<path d="M112.467 255.27C112.467 251.727 117.518 248.221 127.583 245.507C147.712 240.117 180.357 240.117 200.486 245.507C210.551 248.221 215.602 251.727 215.602 255.27C215.602 258.814 210.551 262.319 200.486 265.033C180.357 270.424 147.712 270.424 127.583 265.033C117.481 262.357 112.467 258.814 112.467 255.27Z" fill="url(#paint2_linear_2_638)"/>
<path d="M37.3775 258.21C37.3775 249.54 49.7417 240.833 74.47 234.198C99.1983 227.564 131.616 224.247 163.997 224.247V232.879C139.834 232.879 115.671 235.367 97.2381 240.305C78.805 245.243 69.5695 251.727 69.5695 258.21H37.3775Z" fill="url(#paint3_linear_2_638)"/>
<path d="M69.6072 218.404H37.3775V258.173H69.6072V218.404Z" fill="url(#paint4_linear_2_638)"/>
<path d="M69.6073 218.404C69.6073 211.92 78.8427 205.437 97.2758 200.499C115.709 195.56 139.872 193.073 164.035 193.073V232.841C139.872 232.841 115.709 235.329 97.2758 240.267C78.8427 245.205 69.6073 251.689 69.6073 258.173V218.404Z" fill="url(#paint5_linear_2_638)"/>
<path d="M37.3776 218.404C37.3776 209.734 49.7417 201.026 74.47 194.392C99.1983 187.757 131.616 184.44 163.997 184.44V193.072C139.834 193.072 115.671 195.56 97.2381 200.499C78.805 205.437 69.5696 211.92 69.5696 218.404H37.3776Z" fill="url(#paint6_linear_2_638)"/>
<path d="M163.997 193.11C188.16 193.11 212.323 195.598 230.756 200.536C249.189 205.474 258.424 211.958 258.424 218.442V258.21C258.424 251.727 249.189 245.243 230.756 240.305C212.323 235.367 188.16 232.879 163.997 232.879V193.11Z" fill="url(#paint7_linear_2_638)"/>
<path d="M290.654 218.404H258.424V258.173H290.654V218.404Z" fill="url(#paint8_linear_2_638)"/>
<path d="M163.997 193.11V184.478C196.415 184.478 228.833 187.795 253.524 194.429C278.252 201.064 290.616 209.734 290.616 218.442H258.387C258.387 211.958 249.151 205.474 230.718 200.536C212.285 195.598 188.16 193.11 163.997 193.11Z" fill="url(#paint9_linear_2_638)"/>
<path d="M37.3775 258.21H69.6072C69.6072 264.694 78.8427 271.178 97.2758 276.116C115.709 281.054 139.872 283.542 164.035 283.542V292.174C131.616 292.174 99.1983 288.857 74.5077 282.222C49.8171 275.588 37.3775 266.88 37.3775 258.21Z" fill="url(#paint10_linear_2_638)"/>
<path d="M37.3776 218.404C37.3776 227.074 49.7417 235.782 74.47 242.416C99.1983 249.05 131.616 252.368 163.997 252.368V292.136C131.579 292.136 99.1606 288.819 74.47 282.185C49.7794 275.55 37.3776 266.88 37.3776 258.173V218.404Z" fill="url(#paint11_linear_2_638)"/>
<path d="M37.3776 218.404H69.6073C69.6073 224.888 78.8427 231.371 97.2758 236.309C115.709 241.247 139.872 243.735 164.035 243.735V252.368C131.616 252.368 99.1983 249.05 74.5077 242.416C49.8171 235.782 37.3776 227.112 37.3776 218.404Z" fill="url(#paint12_linear_2_638)"/>
<path d="M162.489 185.496C210.226 185.496 248.925 146.797 248.925 99.0597C248.925 51.3225 210.226 12.6238 162.489 12.6238C114.752 12.6238 76.0532 51.3225 76.0532 99.0597C76.0532 146.797 114.752 185.496 162.489 185.496Z" stroke="url(#paint13_linear_2_638)" stroke-width="2" stroke-miterlimit="10" stroke-linecap="round" stroke-linejoin="round"/>
<path d="M79.295 77.3848C81.1687 77.3848 82.6876 75.8659 82.6876 73.9922C82.6876 72.1185 81.1687 70.5996 79.295 70.5996C77.4213 70.5996 75.9024 72.1185 75.9024 73.9922C75.9024 75.8659 77.4213 77.3848 79.295 77.3848Z" fill="url(#paint14_linear_2_638)"/>
<path d="M225.102 161.634C226.975 161.634 228.494 160.115 228.494 158.242C228.494 156.368 226.975 154.849 225.102 154.849C223.228 154.849 221.709 156.368 221.709 158.242C221.709 160.115 223.228 161.634 225.102 161.634Z" fill="url(#paint15_linear_2_638)"/>
<path d="M223.857 42.064C225.731 42.064 227.25 40.5451 227.25 38.6714C227.25 36.7977 225.731 35.2788 223.857 35.2788C221.984 35.2788 220.465 36.7977 220.465 38.6714C220.465 40.5451 221.984 42.064 223.857 42.064Z" fill="url(#paint16_linear_2_638)"/>
<path d="M112.467 217.311C112.467 220.854 117.481 224.397 127.583 227.074C147.712 232.464 180.357 232.464 200.486 227.074C210.551 224.36 215.602 220.854 215.602 217.311V223.229C215.602 226.772 210.551 230.278 200.486 232.992C180.357 238.382 147.712 238.382 127.583 232.992C117.518 230.278 112.467 226.772 112.467 223.229V217.311Z" fill="url(#paint17_linear_2_638)"/>
<path d="M112.467 217.311C112.467 213.767 117.518 210.261 127.583 207.547C147.712 202.157 180.357 202.157 200.486 207.547C210.551 210.261 215.602 213.767 215.602 217.311C215.602 220.854 210.551 224.36 200.486 227.074C180.357 232.464 147.712 232.464 127.583 227.074C117.481 224.397 112.467 220.854 112.467 217.311Z" fill="url(#paint18_linear_2_638)"/>
<path d="M134.745 217.311C134.745 215.426 137.422 213.579 142.737 212.146C153.405 209.281 170.707 209.281 181.375 212.146C186.728 213.579 189.366 215.463 189.366 217.311C189.366 219.195 186.69 221.042 181.375 222.475C170.707 225.34 153.405 225.34 142.737 222.475C137.384 221.08 134.745 219.195 134.745 217.311Z" fill="url(#paint19_linear_2_638)"/>
<path d="M145.451 175.732C145.451 176.863 147.072 177.994 150.313 178.861C156.797 180.595 167.314 180.595 173.798 178.861C177.04 177.994 178.661 176.863 178.661 175.732V195.749C178.661 196.88 177.04 198.01 173.798 198.877C167.314 200.611 156.797 200.611 150.313 198.877C147.072 198.01 145.451 196.88 145.451 195.749V175.732Z" fill="url(#paint20_linear_2_638)"/>
<path d="M134.745 152.625C134.745 154.51 137.422 156.357 142.737 157.789C153.405 160.654 170.707 160.654 181.375 157.789C186.728 156.357 189.366 154.472 189.366 152.625V185.571C189.366 187.456 186.69 189.303 181.375 190.735C170.707 193.6 153.405 193.6 142.737 190.735C137.384 189.303 134.745 187.418 134.745 185.571V152.625Z" fill="url(#paint21_linear_2_638)"/>
<path d="M182.091 174.526C171.046 177.466 153.103 177.466 142.058 174.526C138.364 173.546 135.801 172.302 134.745 171.058V172.981C136.253 174.111 138.553 175.092 141.681 175.921C147.298 177.429 154.686 178.183 162.075 178.183C169.463 178.183 176.851 177.429 182.468 175.921C185.597 175.092 187.934 174.074 189.404 172.981V171.058C188.348 172.264 185.747 173.508 182.091 174.526Z" fill="url(#paint22_linear_2_638)"/>
<path d="M182.091 167.439C171.046 170.38 153.103 170.38 142.058 167.439C138.364 166.459 135.801 165.215 134.745 163.971V165.894C136.253 167.025 138.553 168.005 141.681 168.834C147.298 170.342 154.686 171.096 162.075 171.096C169.463 171.096 176.851 170.342 182.468 168.834C185.597 168.005 187.934 166.987 189.404 165.894V163.971C188.348 165.215 185.747 166.459 182.091 167.439Z" fill="url(#paint23_linear_2_638)"/>
<path d="M134.745 152.625C134.745 150.74 137.422 148.893 142.737 147.461C153.405 144.596 170.707 144.596 181.375 147.461C186.728 148.893 189.366 150.778 189.366 152.625C189.366 154.51 186.69 156.357 181.375 157.789C170.707 160.654 153.405 160.654 142.737 157.789C137.384 156.357 134.745 154.51 134.745 152.625Z" fill="url(#paint24_linear_2_638)"/>
<path d="M207.309 100.304C207.309 75.1984 186.878 54.8804 161.735 55.0689C136.856 55.2574 116.651 75.7638 116.802 100.643C116.878 112.781 121.778 123.788 129.619 131.892C132.295 134.644 133.803 138.376 133.803 142.259V153.567C133.803 155.49 136.555 157.45 142.096 158.92C153.141 161.86 171.008 161.86 182.053 158.92C187.557 157.45 190.346 155.49 190.346 153.567V142.259C190.346 138.338 191.892 134.607 194.606 131.779C202.446 123.599 207.309 112.517 207.309 100.304Z" fill="url(#paint25_linear_2_638)"/>
<path d="M174.703 183.799C174.703 183.385 174.326 183.045 173.911 183.083C163.469 184.365 150.653 183.875 142.02 181.575C138.326 180.595 135.763 179.351 134.708 178.107V180.03C136.215 181.161 138.515 182.141 141.644 182.97C147.26 184.478 154.649 185.232 162.037 185.232C166.146 185.232 170.254 185.006 174.062 184.516C174.439 184.44 174.703 184.139 174.703 183.799Z" fill="url(#paint26_linear_2_638)"/>
<path d="M150.54 152.738V102.339C150.54 101.51 151.482 101.02 152.161 101.51L161.434 108.333C161.811 108.597 162.301 108.597 162.64 108.333L171.913 101.51C172.592 101.02 173.534 101.51 173.534 102.339V152.738" stroke="white" stroke-width="4" stroke-miterlimit="10" stroke-linecap="round" stroke-linejoin="round"/>
<path d="M162.489 162.803C197.694 162.803 226.232 134.264 226.232 99.0597C226.232 63.8553 197.694 35.3165 162.489 35.3165C127.285 35.3165 98.746 63.8553 98.746 99.0597C98.746 134.264 127.285 162.803 162.489 162.803Z" fill="url(#paint27_linear_2_638)"/>
<path d="M90.1513 197.332C86.4571 202.496 93.9208 208.829 99.2359 201.893C103.759 195.975 113.636 179.351 114.616 178.748C115.596 178.107 120.798 178.069 121.778 178.107C122.607 178.145 123.022 176.826 121.589 176.712C120.157 176.599 117.707 176.373 117.707 176.373C117.707 176.373 121.476 176.109 122.946 176.109C124.417 176.109 124.266 174.715 122.946 174.526C121.589 174.375 117.82 174.451 117.82 174.451C117.82 174.451 123.248 173.885 124.19 173.734C125.321 173.584 125.585 172 123.964 172C122.494 172.038 117.895 172.679 117.895 172.679C117.895 172.679 120.949 171.85 122.079 171.473C123.436 171.02 123.248 169.588 121.439 170.078C119.893 170.493 114.239 171.699 114.239 171.699C114.239 171.699 114.163 169.663 114.088 168.721C114.013 167.779 112.392 167.477 112.241 169.475C112.203 169.965 111.562 173.282 109.414 175.883C102.93 183.724 92.2245 194.505 90.1513 197.332Z" fill="url(#paint28_linear_2_638)"/>
<path d="M158.192 304.5H116.237L109.037 297.263H158.192V304.5Z" fill="url(#paint29_linear_2_638)"/>
<path d="M179.264 315.96H137.308L130.109 308.76H179.264V315.96Z" fill="url(#paint30_linear_2_638)"/>
<path d="M114.239 267.031L110.62 289.95L101.912 289.309L102.063 266.277L114.239 267.031Z" fill="url(#paint31_linear_2_638)"/>
<path d="M109.678 287.01C110.809 286.595 112.241 286.859 112.128 289.498C112.015 291.948 111.336 292.815 113.673 295.604C116.124 298.582 118.461 300.882 118.498 302.503C118.536 304.123 116.689 305.292 113.824 303.935C110.959 302.578 104.136 297.979 101.385 295.755C98.4821 293.418 99.9523 290.666 100.668 288.97C101.385 287.311 101.988 286.482 101.988 286.482C101.988 286.482 101.799 288.555 104.4 289.007C106.964 289.46 107.303 287.877 109.678 287.01Z" fill="url(#paint32_linear_2_638)"/>
<path d="M99.6507 291.91C99.9146 292.702 100.405 293.456 101.347 294.21C104.325 296.622 111.713 301.598 114.842 303.068C116.161 303.671 117.255 303.822 118.121 303.633C117.481 304.538 115.935 304.915 113.787 303.935C110.922 302.578 104.099 297.979 101.347 295.755C99.8392 294.511 99.4999 293.154 99.6507 291.91Z" fill="url(#paint33_linear_2_638)"/>
<path d="M83.5923 207.887C83.5923 207.887 93.657 212.749 105.343 217.838C112.806 221.08 122.683 228.808 119.516 243.811C116.35 258.851 113.221 274.344 113.221 274.344C106.964 276.078 101.46 273.025 101.46 273.025C101.46 273.025 99.0098 248.108 99.6883 240.795C100.367 233.482 98.3313 233.934 97.2381 232.615C96.1449 231.296 71.9444 218.932 71.9444 218.932L83.5923 207.887Z" fill="url(#paint34_linear_2_638)"/>
<path d="M124.266 281.996L130.109 304.463L121.929 307.328L112.806 286.18L124.266 281.996Z" fill="url(#paint35_linear_2_638)"/>
<path d="M88.4551 221.834C88.4551 221.834 93.5817 223.719 100.367 226.923C106.737 229.939 112.731 233.708 116.011 243.396C119.29 253.084 126.038 286.03 126.038 286.03C120.685 291.345 113.937 290.252 113.937 290.252C113.937 290.252 109.791 281.77 103.797 269.707C98.2936 258.663 97.5397 249.201 95.2026 246.11C92.8655 243.019 68.8911 242.83 61.9174 234.047C55.9992 226.584 57.507 215.463 58.8264 212.561L79.3327 202.157C79.3327 202.157 84.1578 208.151 91.2069 211.43C95.6172 213.503 88.4551 221.834 88.4551 221.834Z" fill="url(#paint36_linear_2_638)"/>
<path d="M128.073 302.126C128.94 301.296 130.373 300.957 131.315 303.407C132.182 305.707 131.918 306.724 135.198 308.383C138.628 310.117 141.719 311.286 142.36 312.793C143.001 314.301 141.832 316.073 138.666 315.998C135.499 315.922 127.395 314.414 124.002 313.51C120.421 312.53 120.647 309.401 120.609 307.591C120.572 305.782 120.836 304.802 120.836 304.802C120.836 304.802 121.514 306.762 124.077 306.159C126.603 305.48 126.301 303.897 128.073 302.126Z" fill="url(#paint37_linear_2_638)"/>
<path d="M120.647 309.363C121.062 310.607 121.966 311.738 123.927 312.266C127.583 313.246 136.253 314.867 139.646 314.942C140.777 314.98 141.644 314.791 142.322 314.452C141.832 315.319 140.626 315.998 138.666 315.96C135.499 315.885 127.395 314.377 124.002 313.472C121.439 312.794 120.798 311.022 120.647 309.363Z" fill="url(#paint38_linear_2_638)"/>
<path d="M97.3513 197.973C95.0895 194.769 89.0205 182.819 83.0269 175.695C77.0333 168.57 68.288 174.903 74.6585 183.272C81.0668 191.64 86.0426 199.669 89.8498 203.778C93.9587 208.264 100.857 202.986 97.3513 197.973Z" fill="url(#paint39_linear_2_638)"/>
<path d="M57.3562 219.949C57.3562 219.949 59.0148 207.17 56.7154 194.693C55.3961 187.644 48.3847 181.538 52.682 175.657C54.3783 173.32 67.6848 167.138 77.4103 171.699C81.5945 173.659 81.7453 174.865 83.7431 179.012C85.9672 183.686 86.5326 187.003 85.5902 190.057C81.6322 203.476 89.1713 210.375 89.1713 210.375C89.1713 210.375 83.0269 221.646 57.3562 219.949Z" fill="url(#paint40_linear_2_638)"/>
<path d="M85.1002 191.941C84.0447 196.578 84.3463 200.348 85.1756 203.25C73.0753 204.532 62.5583 194.995 62.5583 194.995C74.6962 197.709 82.7631 195.108 85.1002 191.941Z" fill="url(#paint41_linear_2_638)"/>
<path d="M64.6692 162.313C64.6692 162.313 65.0838 169.89 60.5604 171.511C60.5604 171.511 62.6713 172.302 65.8 173.961C73.7915 178.183 79.295 185.797 79.295 185.797C79.295 185.797 80.2751 176.034 75.4878 171.096C72.2083 167.703 72.9999 163.708 72.9999 163.708L64.6692 162.313Z" fill="url(#paint42_linear_2_638)"/>
<path d="M77.2594 173.621C76.7694 172.717 76.2039 171.85 75.4877 171.096C72.2082 167.703 72.9998 163.708 72.9998 163.708L64.6691 162.313C64.6691 162.313 67.2324 163.519 67.0816 164.876C69.0418 169.4 70.3234 174.225 77.2594 173.621Z" fill="url(#paint43_linear_2_638)"/>
<path d="M118.913 220.628C118.913 220.854 118.574 221.042 117.971 221.193L89.9253 227.338C88.6813 227.601 86.6834 227.526 85.4772 227.149L70.2482 222.324C69.645 222.136 69.3435 221.909 69.3435 221.683L69.3058 222.437C69.3058 222.663 69.6073 222.89 70.2105 223.078L85.4395 227.903C86.6457 228.28 88.6436 228.393 89.8876 228.091L117.933 221.947C118.574 221.796 118.875 221.608 118.875 221.382L118.913 220.628Z" fill="url(#paint44_linear_2_638)"/>
<path d="M118.913 220.628C118.913 220.402 118.612 220.175 118.008 219.987L102.779 215.162C101.573 214.785 99.5753 214.672 98.3314 214.973L70.2859 221.08C69.645 221.231 69.3435 221.419 69.3435 221.646C69.3435 221.872 69.645 222.098 70.2482 222.286L85.4772 227.111C86.6834 227.488 88.6813 227.601 89.9253 227.3L117.971 221.156C118.612 221.042 118.913 220.854 118.913 220.628Z" fill="url(#paint45_linear_2_638)"/>
<path d="M80.916 224.058C80.916 224.134 80.9914 224.209 81.1799 224.247L86.5326 225.943C86.9096 226.056 87.5504 226.094 87.9274 226.018L114.277 220.251C114.465 220.213 114.578 220.138 114.578 220.062C114.578 219.987 114.503 219.912 114.314 219.874L108.961 218.178C108.585 218.064 107.944 218.027 107.567 218.102L81.2176 223.87C81.0291 223.907 80.916 223.983 80.916 224.058Z" fill="url(#paint46_linear_2_638)"/>
<path d="M82.6122 219.535C82.6122 219.572 82.6876 219.648 82.8384 219.685L86.7965 220.929C87.098 221.042 87.5881 221.042 87.9273 220.967L98.859 218.555C99.0098 218.517 99.0852 218.479 99.0852 218.404C99.0852 218.366 99.0098 218.291 98.859 218.253L94.901 217.009C94.5994 216.896 94.1094 216.896 93.7701 216.971L82.8384 219.384C82.6876 219.421 82.6122 219.497 82.6122 219.535Z" fill="url(#paint47_linear_2_638)"/>
<path d="M120.119 194.882C119.855 194.806 119.592 194.806 119.29 194.844L91.2446 200.988C90.0006 201.252 88.9451 202.835 88.8697 204.532L87.8896 225.566C87.8143 226.848 88.3797 227.828 89.1713 228.091C89.4352 228.167 89.699 228.167 90.0006 228.129L118.046 221.985C119.29 221.721 120.346 220.138 120.421 218.441L121.401 197.407C121.476 196.126 120.949 195.146 120.119 194.882Z" fill="url(#paint48_linear_2_638)"/>
<path d="M107.19 208.414C106.926 208.339 106.624 208.301 106.323 208.377C105.003 208.678 103.873 210.337 103.797 212.071C103.722 213.428 104.325 214.446 105.154 214.709C105.418 214.785 105.72 214.823 106.021 214.747C107.341 214.446 108.471 212.787 108.547 211.053C108.622 209.696 108.057 208.678 107.19 208.414Z" fill="url(#paint49_linear_2_638)"/>
<path d="M63.4628 161.295C63.312 159.373 63.4251 152.097 68.3633 149.421C73.3014 146.745 80.4635 149.873 81.4813 153.454C82.4991 157.035 80.5012 160.24 80.5012 161.634C80.5012 162.991 80.0112 165.253 79.3327 166.836C78.1641 169.55 76.5432 171.624 74.5076 171.737C72.2836 171.85 63.8775 167.138 63.4628 161.295Z" fill="url(#paint50_linear_2_638)"/>
<path d="M81.2552 153.379C81.2552 153.379 82.3107 155.339 81.1798 158.506C80.0866 161.71 80.1997 162.614 80.0489 163.858C79.6343 168.08 76.2794 171.058 76.2794 171.058C76.2794 171.058 79.7097 173.697 82.5745 170.794C86.9095 166.459 82.273 154.434 82.273 154.434C82.273 154.434 83.2154 149.534 78.9181 146.707C74.3946 143.767 64.6314 144.03 61.9174 150.137C59.2033 156.244 59.2033 162.011 54.8683 167.251C57.3562 170.116 61.0881 173.056 64.9707 172.227C70.2481 171.096 68.0994 164.122 67.9863 162.501C67.534 157.035 72.3967 156.658 77.4856 156.357C80.539 156.206 81.2552 153.379 81.2552 153.379Z" fill="url(#paint51_linear_2_638)"/>
<path d="M77.561 162.426C77.561 162.426 77.938 165.442 77.9757 165.969C78.0134 166.497 77.3725 167.326 76.3171 166.723" stroke="#2E405C" stroke-miterlimit="10" stroke-linecap="round"/>
<path d="M73.98 162.841C74.3963 162.841 74.7339 162.503 74.7339 162.087C74.7339 161.67 74.3963 161.333 73.98 161.333C73.5636 161.333 73.226 161.67 73.226 162.087C73.226 162.503 73.5636 162.841 73.98 162.841Z" fill="#2E405C"/>
<path d="M79.295 162.916C79.7114 162.916 80.0489 162.578 80.0489 162.162C80.0489 161.746 79.7114 161.408 79.295 161.408C78.8787 161.408 78.5411 161.746 78.5411 162.162C78.5411 162.578 78.8787 162.916 79.295 162.916Z" fill="#2E405C"/>
<path d="M75.0355 159.561C75.0355 159.561 73.9046 158.506 72.4344 159.561" stroke="#2E405C" stroke-miterlimit="10" stroke-linecap="round"/>
<path d="M80.8406 159.712C80.8406 159.712 79.7097 158.656 78.2396 159.712" stroke="#2E405C" stroke-miterlimit="10" stroke-linecap="round"/>
<path d="M74.5831 168.043C74.5831 168.043 72.3968 167.967 72.4722 165.705" stroke="#2E405C" stroke-miterlimit="10" stroke-linecap="round"/>
<path d="M51.8528 207.811C53.0968 204.079 59.015 192.092 61.1636 183.008C63.3123 173.961 52.9837 170.719 50.0811 180.859C47.1785 190.999 43.5975 200.574 42.542 206.077C41.4111 212.033 49.9303 213.616 51.8528 207.811Z" fill="url(#paint52_linear_2_638)"/>
<path d="M70.0973 212.033C70.0973 212.033 54.906 203.74 49.1763 201.893C42.5418 199.745 39.4885 209.583 46.1983 211.43C55.1698 213.88 71.9821 217.386 73.2637 217.838C74.5454 218.291 75.1108 219.346 76.2417 219.61C77.3725 219.874 77.9003 220.477 77.9003 220.477C77.9003 220.477 78.9934 223.38 79.3704 223.606C79.7851 223.87 80.4259 223.832 80.0112 222.663C79.5966 221.495 79.1442 219.949 79.1442 219.949C79.1442 219.949 80.7274 222.814 81.1421 223.643C81.3683 224.096 82.6499 223.907 82.1599 222.776C81.6698 221.683 80.6897 219.497 80.6897 219.497C80.6897 219.497 82.8384 222.663 83.4792 223.606C84.0823 224.473 85.8917 224.058 84.8363 222.437C84.007 221.156 82.273 218.517 82.273 218.517C82.273 218.517 85.1755 221.269 86.1179 221.872C87.098 222.475 87.7388 221.721 86.6456 220.515C85.5525 219.271 81.8583 215.388 80.7274 214.408C79.7097 213.503 70.0973 212.033 70.0973 212.033Z" fill="url(#paint53_linear_2_638)"/>
<path d="M254.052 169.513C254.052 169.513 251.451 174.413 248.963 178.786C245.57 184.779 235.204 179.653 239.313 172.453C243.535 165.065 244.1 163.934 244.1 163.934L254.052 169.513Z" fill="url(#paint54_linear_2_638)"/>
<path d="M241.801 166.723C241.801 166.723 248.963 153.115 251.828 150.024C254.316 147.348 264.983 150.099 260.309 159.222C256.125 167.326 252.77 173.207 252.77 173.207C252.77 173.207 246.362 170.681 241.801 166.723Z" fill="url(#paint55_linear_2_638)"/>
<path d="M203.125 189.077C204.52 188.851 210.966 187.531 214.057 186.438C216.243 185.646 226.421 185.043 244.138 181.915C252.883 180.369 250.018 168.495 240.858 171.021C228.569 174.451 214.961 178.597 213.378 178.484C211.795 178.371 209.759 177.278 208.629 176.75C207.573 176.26 206.668 175.732 206.065 176.072C205.462 176.411 206.631 177.58 207.385 178.183C208.138 178.786 209.081 179.615 208.176 179.766C208.176 179.766 202.371 180.746 200.788 181.01C199.205 181.274 199.619 182.932 201.089 182.782C202.56 182.593 207.158 182.141 207.158 182.141C207.158 182.141 200.562 183.422 199.167 183.686C197.772 183.988 198.187 185.797 199.808 185.533C201.429 185.269 207.385 184.101 207.385 184.101C207.385 184.101 202.861 185.194 200.788 185.722C199.28 186.136 199.619 187.757 201.391 187.418C203.615 187.041 207.95 186.136 207.95 186.136C207.95 186.136 204.294 187.117 202.71 187.607C201.655 187.946 201.693 189.303 203.125 189.077Z" fill="url(#paint56_linear_2_638)"/>
<path d="M209.194 180.595C209.194 180.595 209.684 183.875 215.074 183.875" stroke="white" stroke-miterlimit="10" stroke-linecap="round" stroke-linejoin="round"/>
<path d="M210.739 279.207H249.189V290.666H203.313L210.739 279.207Z" fill="url(#paint57_linear_2_638)"/>
<path d="M250.772 292.589H289.222V304.086H243.346L250.772 292.589Z" fill="url(#paint58_linear_2_638)"/>
<path d="M225.403 268.237C225.403 268.237 223.405 276.04 223.217 279.018C223.066 281.205 223.179 283.466 222.274 284.371C221.37 285.276 214.32 288.216 207.761 290.063C201.202 291.91 197.207 289.271 198.601 286.482C199.996 283.73 211.116 278.378 212.36 274.608C213.604 270.876 214.396 265.335 214.396 265.335L225.403 268.237Z" fill="url(#paint59_linear_2_638)"/>
<path d="M279.873 193.261C279.873 193.261 277.197 208.678 260.875 213.88C244.552 219.12 239.388 219.648 239.388 219.648C239.388 219.648 238.86 233.03 233.734 245.808C228.607 258.587 224.913 270.725 224.913 270.725C224.913 270.725 219.146 272.158 213.491 268.426C213.491 268.426 220.917 225.528 222.01 219.158C223.104 212.787 224.951 208.565 229.097 206.341C233.281 204.08 262.232 191.075 262.232 191.075L279.873 193.261Z" fill="url(#paint60_linear_2_638)"/>
<path d="M198.564 286.444C198.941 288.555 202.597 290.101 207.988 288.555C214.547 286.708 221.596 283.768 222.5 282.863C222.727 282.637 222.877 282.298 223.028 281.921C222.915 282.976 222.727 283.843 222.274 284.333C221.37 285.238 214.321 288.178 207.761 290.025C201.165 291.91 197.169 289.234 198.564 286.444C198.564 286.482 198.564 286.444 198.564 286.444Z" fill="url(#paint61_linear_2_638)"/>
<path d="M263.89 278.679C263.89 278.679 263.023 286.671 263.249 289.649C263.4 291.835 263.852 294.059 263.099 295.077C262.345 296.094 255.748 300.015 249.528 302.767C243.308 305.518 238.936 303.445 239.953 300.505C240.933 297.565 251.224 290.704 251.903 286.821C252.581 282.939 252.581 277.36 252.581 277.36L263.89 278.679Z" fill="url(#paint62_linear_2_638)"/>
<path d="M288.166 193.374L270.449 191.301C270.449 191.301 255.936 214.257 253.637 218.705C251.338 223.153 250.923 228.544 251.488 234.047C252.054 239.589 252.242 281.431 252.242 281.431C259.329 284.861 263.702 282.034 263.702 282.034C269.695 249.05 269.62 228.431 269.62 228.431C269.62 228.431 281.456 217.386 285.904 210.789C291.71 202.119 288.166 193.374 288.166 193.374Z" fill="url(#paint63_linear_2_638)"/>
<path d="M239.916 300.505C240.594 302.54 244.439 303.558 249.528 301.296C255.748 298.545 262.345 294.624 263.099 293.607C263.287 293.343 263.4 293.003 263.476 292.626C263.513 293.682 263.475 294.587 263.061 295.114C262.307 296.132 255.71 300.052 249.49 302.804C243.271 305.556 238.898 303.483 239.916 300.505C239.916 300.542 239.916 300.505 239.916 300.505Z" fill="url(#paint64_linear_2_638)"/>
<path d="M289.975 201.629C289.975 201.629 289.184 193.6 288.128 186.438C286.847 177.919 286.545 172.679 285.49 159.674C284.736 150.25 257.972 144.634 252.582 149.346C247.756 153.567 257.52 179.125 256.125 192.055C255.71 195.749 262.495 200.838 270.675 202.044C288.204 204.607 289.975 201.629 289.975 201.629Z" fill="url(#paint65_linear_2_638)"/>
<path d="M260.799 146.405C265.36 146.632 270.939 148.29 275.727 151.381C274.747 153.153 271.656 156.885 265.813 157.978C257.746 159.448 253.712 155.113 260.799 146.405Z" fill="url(#paint66_linear_2_638)"/>
<path d="M274.784 150.74C274.784 150.74 270.638 148.139 270.939 142.9L263.626 141.015C263.626 141.015 263.061 144.822 261.855 146.255C260.648 147.687 255.522 153.944 260.083 155.867C265.511 158.091 272.749 154.058 274.784 150.74Z" fill="url(#paint67_linear_2_638)"/>
<path d="M258.274 153.417C258.16 151.607 259.48 149.346 260.611 147.8L269.62 144.558C269.62 144.558 267.924 153.605 261.704 154.246C260.158 154.397 259.065 153.982 258.274 153.417Z" fill="url(#paint68_linear_2_638)"/>
<path d="M227.589 206.153C227.589 206.379 227.929 206.567 228.532 206.718L256.577 212.863C257.821 213.126 259.819 213.051 261.025 212.674L276.254 207.849C276.857 207.661 277.159 207.434 277.159 207.208L277.197 207.962C277.197 208.188 276.895 208.415 276.292 208.603L261.063 213.428C259.857 213.805 257.859 213.918 256.615 213.617L228.569 207.472C227.929 207.321 227.627 207.133 227.627 206.907L227.589 206.153Z" fill="url(#paint69_linear_2_638)"/>
<path d="M227.589 206.153C227.589 205.927 227.891 205.7 228.494 205.512L243.723 200.687C244.929 200.31 246.927 200.197 248.171 200.498L276.217 206.643C276.857 206.794 277.159 206.982 277.159 207.208C277.159 207.434 276.857 207.661 276.254 207.849L261.025 212.674C259.819 213.051 257.821 213.164 256.577 212.863L228.532 206.718C227.929 206.567 227.627 206.379 227.589 206.153Z" fill="url(#paint70_linear_2_638)"/>
<path d="M265.586 209.583C265.586 209.658 265.511 209.734 265.323 209.772L259.97 211.468C259.593 211.581 258.952 211.619 258.575 211.543L232.226 205.776C232.037 205.738 231.924 205.663 231.924 205.587C231.924 205.512 232 205.437 232.188 205.399L237.541 203.703C237.918 203.589 238.559 203.552 238.936 203.627L265.285 209.395C265.511 209.47 265.586 209.508 265.586 209.583Z" fill="url(#paint71_linear_2_638)"/>
<path d="M263.89 205.06C263.89 205.097 263.815 205.173 263.664 205.21L259.706 206.454C259.404 206.567 258.914 206.567 258.575 206.492L247.643 204.079C247.493 204.042 247.417 204.004 247.417 203.929C247.417 203.891 247.493 203.816 247.643 203.778L251.601 202.534C251.903 202.421 252.393 202.421 252.732 202.496L263.664 204.909C263.815 204.984 263.89 205.022 263.89 205.06Z" fill="url(#paint72_linear_2_638)"/>
<path d="M226.383 180.444C226.647 180.369 226.911 180.369 227.212 180.407L255.258 186.551C256.502 186.815 257.557 188.398 257.633 190.094L258.613 211.129C258.688 212.41 258.123 213.39 257.331 213.654C257.067 213.73 256.804 213.73 256.502 213.692L228.456 207.51C227.212 207.246 226.157 205.663 226.082 203.966L225.102 182.932C225.026 181.651 225.592 180.708 226.383 180.444Z" fill="url(#paint73_linear_2_638)"/>
<path d="M239.313 193.939C239.576 193.864 239.878 193.826 240.18 193.902C241.499 194.203 242.63 195.862 242.705 197.596C242.781 198.953 242.177 199.971 241.348 200.235C241.084 200.31 240.783 200.348 240.481 200.272C239.162 199.971 238.031 198.312 237.956 196.578C237.88 195.221 238.483 194.203 239.313 193.939Z" fill="url(#paint74_linear_2_638)"/>
<path d="M271.957 142.372C274.822 139.733 273.88 137.434 272.259 136.454C272.259 133.476 271.656 131.591 268.791 129.405C264.154 125.899 256.313 128.01 254.693 131.515C253.072 135.021 254.655 138.64 254.429 140.035C254.24 141.429 254.391 143.804 254.843 145.576C255.597 148.554 256.954 150.929 259.028 151.343C261.252 151.833 270.6 148.29 271.957 142.372Z" fill="url(#paint75_linear_2_638)"/>
<path d="M265.662 133.89C264.795 135.36 265.285 138.112 267.094 138.979C268.904 139.884 268.942 140.223 268.942 140.223C268.942 140.223 268.979 136.416 271.543 137.057C272.673 137.321 274.257 139.507 270.751 142.259C270.562 143.691 270.902 144.784 270.902 144.784C270.902 144.784 275.274 141.203 275.463 136.227C275.651 131.214 272.485 130.573 272.485 130.573C272.485 130.573 272.146 125.522 266.077 124.391C259.97 123.26 254.693 125.522 253.26 128.236C251.262 131.968 253.976 135.511 253.976 135.511C253.976 135.511 253.826 131.327 256.69 132.684C259.518 134.041 262.948 135.36 265.662 133.89Z" fill="url(#paint76_linear_2_638)"/>
<path d="M257.633 140.713C257.633 140.713 256.992 143.88 256.916 144.445C256.841 145.011 257.444 145.915 258.613 145.388" stroke="#2E405C" stroke-miterlimit="10" stroke-linecap="round"/>
<path d="M261.44 141.467C261.898 141.467 262.269 141.096 262.269 140.638C262.269 140.18 261.898 139.809 261.44 139.809C260.982 139.809 260.611 140.18 260.611 140.638C260.611 141.096 260.982 141.467 261.44 141.467Z" fill="#2E405C"/>
<path d="M255.786 141.128C256.244 141.128 256.615 140.757 256.615 140.299C256.615 139.841 256.244 139.469 255.786 139.469C255.328 139.469 254.956 139.841 254.956 140.299C254.956 140.757 255.328 141.128 255.786 141.128Z" fill="#2E405C"/>
<path d="M260.498 137.886C260.498 137.886 261.779 136.868 263.249 138.112" stroke="#2E405C" stroke-miterlimit="10" stroke-linecap="round"/>
<path d="M254.353 137.547C254.353 137.547 255.635 136.529 257.105 137.773" stroke="#2E405C" stroke-miterlimit="10" stroke-linecap="round"/>
<path d="M260.498 147.31C260.498 147.31 262.609 146.971 262.722 144.596" stroke="#2E405C" stroke-miterlimit="10" stroke-linecap="round"/>
<path d="M256.954 215.237C258.048 214.333 263.023 210.035 265.172 207.585C266.717 205.814 275.274 200.31 289.184 188.888C296.045 183.234 287.752 174.3 281.004 181.01C271.957 190.019 262.156 200.31 260.686 200.988C259.216 201.667 256.954 201.705 255.71 201.818C254.542 201.893 253.524 201.893 253.147 202.496C252.808 203.062 254.391 203.514 255.296 203.665C256.238 203.816 257.482 204.08 256.766 204.645L253.713 207.095C253.713 207.095 251.903 206.756 250.885 206.718C250.056 206.681 249.528 207.661 250.923 208.188C251.639 208.452 253.826 209.432 254.881 208.678C256.05 207.849 257.03 207.133 257.03 207.133L253.675 209.96C253.675 209.96 251.3 210.262 250.546 210.299C249.114 210.412 248.925 211.656 250.584 211.807C251.187 211.883 254.165 212.033 254.73 211.543C255.296 211.053 258.198 208.754 258.198 208.754L255.333 211.656C255.333 211.656 253.599 212.41 252.506 212.636C251.375 212.9 251.903 214.408 253.109 214.182C253.939 214.031 255.861 213.617 256.653 212.938C257.369 212.335 259.744 210.224 259.744 210.224C259.744 210.224 257.03 212.863 255.899 214.107C255.145 214.974 255.861 216.142 256.954 215.237Z" fill="url(#paint77_linear_2_638)"/>
<path d="M288.958 172.264C288.958 172.264 290.428 177.617 291.634 182.518C293.293 189.227 282.248 192.62 280.288 184.553C278.29 176.298 277.913 175.054 277.913 175.054L288.958 172.264Z" fill="url(#paint78_linear_2_638)"/>
<path d="M277.724 178.56C277.724 178.56 274.86 166.045 273.917 161.936C272.485 155.49 283.153 150.552 285.98 160.353C288.543 169.098 290.126 175.695 290.126 175.695C290.126 175.695 283.718 178.296 277.724 178.56Z" fill="url(#paint79_linear_2_638)"/>
<defs>
<linearGradient id="paint0_linear_2_638" x1="17.8135" y1="263.136" x2="310.214" y2="263.136" gradientUnits="userSpaceOnUse">
<stop stop-color="#ECF0F8"/>
<stop offset="1" stop-color="#AEBDDF"/>
</linearGradient>
<linearGradient id="paint1_linear_2_638" x1="163.977" y1="237.002" x2="163.977" y2="381.499" gradientUnits="userSpaceOnUse">
<stop stop-color="white"/>
<stop offset="1" stop-color="#AEBDDF"/>
</linearGradient>
<linearGradient id="paint2_linear_2_638" x1="229.424" y1="255.277" x2="89.6925" y2="255.277" gradientUnits="userSpaceOnUse">
<stop stop-color="white"/>
<stop offset="1" stop-color="#AEBDDF"/>
</linearGradient>
<linearGradient id="paint3_linear_2_638" x1="100.696" y1="150.982" x2="100.696" y2="277.186" gradientUnits="userSpaceOnUse">
<stop stop-color="#ACBDDE"/>
<stop offset="1" stop-color="#2E405C"/>
</linearGradient>
<linearGradient id="paint4_linear_2_638" x1="151.946" y1="238.311" x2="5.91942" y2="238.311" gradientUnits="userSpaceOnUse">
<stop stop-color="#ACBDDE"/>
<stop offset="1" stop-color="#2E405C"/>
</linearGradient>
<linearGradient id="paint5_linear_2_638" x1="241.421" y1="225.661" x2="50.8414" y2="225.661" gradientUnits="userSpaceOnUse">
<stop stop-color="#ACBDDE"/>
<stop offset="1" stop-color="#2E405C"/>
</linearGradient>
<linearGradient id="paint6_linear_2_638" x1="20.7541" y1="201.457" x2="298.703" y2="201.457" gradientUnits="userSpaceOnUse">
<stop stop-color="#ACBDDE"/>
<stop offset="1" stop-color="#2E405C"/>
</linearGradient>
<linearGradient id="paint7_linear_2_638" x1="104.317" y1="225.661" x2="264.898" y2="225.661" gradientUnits="userSpaceOnUse">
<stop stop-color="white"/>
<stop offset="1" stop-color="#AEBDDF"/>
</linearGradient>
<linearGradient id="paint8_linear_2_638" x1="274.54" y1="194.521" x2="274.54" y2="274.844" gradientUnits="userSpaceOnUse">
<stop stop-color="white"/>
<stop offset="1" stop-color="#AEBDDF"/>
</linearGradient>
<linearGradient id="paint9_linear_2_638" x1="227.332" y1="170.265" x2="227.332" y2="264.993" gradientUnits="userSpaceOnUse">
<stop stop-color="white"/>
<stop offset="1" stop-color="#AEBDDF"/>
</linearGradient>
<linearGradient id="paint10_linear_2_638" x1="215.611" y1="275.165" x2="-27.9577" y2="275.165" gradientUnits="userSpaceOnUse">
<stop stop-color="white"/>
<stop offset="1" stop-color="#AEBDDF"/>
</linearGradient>
<linearGradient id="paint11_linear_2_638" x1="172.192" y1="255.277" x2="3.97074" y2="255.277" gradientUnits="userSpaceOnUse">
<stop stop-color="white"/>
<stop offset="1" stop-color="#AEBDDF"/>
</linearGradient>
<linearGradient id="paint12_linear_2_638" x1="155.524" y1="235.388" x2="-84.9704" y2="235.388" gradientUnits="userSpaceOnUse">
<stop stop-color="white"/>
<stop offset="1" stop-color="#AEBDDF"/>
</linearGradient>
<linearGradient id="paint13_linear_2_638" x1="75.6863" y1="99.0519" x2="249.296" y2="99.0519" gradientUnits="userSpaceOnUse">
<stop stop-color="#FFEFA4"/>
<stop offset="1" stop-color="#FE8F01"/>
</linearGradient>
<linearGradient id="paint14_linear_2_638" x1="79.3109" y1="63.4618" x2="79.3109" y2="84.2437" gradientUnits="userSpaceOnUse">
<stop stop-color="#FFEFA4"/>
<stop offset="1" stop-color="#FE8F01"/>
</linearGradient>
<linearGradient id="paint15_linear_2_638" x1="225.097" y1="147.719" x2="225.097" y2="168.501" gradientUnits="userSpaceOnUse">
<stop stop-color="#FFEFA4"/>
<stop offset="1" stop-color="#FE8F01"/>
</linearGradient>
<linearGradient id="paint16_linear_2_638" x1="223.841" y1="28.1632" x2="223.841" y2="48.9451" gradientUnits="userSpaceOnUse">
<stop stop-color="#FFEFA4"/>
<stop offset="1" stop-color="#FE8F01"/>
</linearGradient>
<linearGradient id="paint17_linear_2_638" x1="164.014" y1="247.321" x2="164.014" y2="202.231" gradientUnits="userSpaceOnUse">
<stop stop-color="#79D985"/>
<stop offset="1" stop-color="#027A71"/>
</linearGradient>
<linearGradient id="paint18_linear_2_638" x1="164.014" y1="238.963" x2="164.014" y2="135.278" gradientUnits="userSpaceOnUse">
<stop stop-color="#79D985"/>
<stop offset="1" stop-color="#027A71"/>
</linearGradient>
<linearGradient id="paint19_linear_2_638" x1="162.055" y1="268.169" x2="162.055" y2="168.382" gradientUnits="userSpaceOnUse">
<stop stop-color="#79D985"/>
<stop offset="1" stop-color="#027A71"/>
</linearGradient>
<linearGradient id="paint20_linear_2_638" x1="127.252" y1="187.976" x2="189.5" y2="187.976" gradientUnits="userSpaceOnUse">
<stop stop-color="#ACBDDE"/>
<stop offset="1" stop-color="#2E405C"/>
</linearGradient>
<linearGradient id="paint21_linear_2_638" x1="138.758" y1="172.753" x2="220.099" y2="172.753" gradientUnits="userSpaceOnUse">
<stop stop-color="#ACBDDE"/>
<stop offset="1" stop-color="#2E405C"/>
</linearGradient>
<linearGradient id="paint22_linear_2_638" x1="135.513" y1="174.587" x2="251.791" y2="174.587" gradientUnits="userSpaceOnUse">
<stop stop-color="white"/>
<stop offset="1" stop-color="#AEBDDF"/>
</linearGradient>
<linearGradient id="paint23_linear_2_638" x1="135.513" y1="167.528" x2="251.791" y2="167.528" gradientUnits="userSpaceOnUse">
<stop stop-color="white"/>
<stop offset="1" stop-color="#AEBDDF"/>
</linearGradient>
<linearGradient id="paint24_linear_2_638" x1="189.382" y1="152.619" x2="81.4451" y2="152.619" gradientUnits="userSpaceOnUse">
<stop stop-color="#ACBDDE"/>
<stop offset="1" stop-color="#2E405C"/>
</linearGradient>
<linearGradient id="paint25_linear_2_638" x1="162.055" y1="28.9909" x2="162.055" y2="175.308" gradientUnits="userSpaceOnUse">
<stop stop-color="#FFEFA4" stop-opacity="0.1"/>
<stop offset="1" stop-color="#FE8F01"/>
</linearGradient>
<linearGradient id="paint26_linear_2_638" x1="135.513" y1="181.645" x2="251.791" y2="181.645" gradientUnits="userSpaceOnUse">
<stop stop-color="white"/>
<stop offset="1" stop-color="#AEBDDF"/>
</linearGradient>
<linearGradient id="paint27_linear_2_638" x1="162.491" y1="41.9794" x2="162.491" y2="287.792" gradientUnits="userSpaceOnUse">
<stop stop-color="#FFEFA4" stop-opacity="0.1"/>
<stop offset="1" stop-color="#FE8F01"/>
</linearGradient>
<linearGradient id="paint28_linear_2_638" x1="100.378" y1="141.346" x2="114.309" y2="235.284" gradientUnits="userSpaceOnUse">
<stop stop-color="#FFD2BB"/>
<stop offset="1" stop-color="#FF6B5A"/>
</linearGradient>
<linearGradient id="paint29_linear_2_638" x1="154.007" y1="300.891" x2="113.73" y2="300.891" gradientUnits="userSpaceOnUse">
<stop offset="0.00558659" stop-color="white" stop-opacity="0"/>
<stop offset="1" stop-color="#AEBDDF"/>
</linearGradient>
<linearGradient id="paint30_linear_2_638" x1="172.697" y1="312.36" x2="121.119" y2="312.36" gradientUnits="userSpaceOnUse">
<stop stop-color="white" stop-opacity="0"/>
<stop offset="1" stop-color="#AEBDDF"/>
</linearGradient>
<linearGradient id="paint31_linear_2_638" x1="106.574" y1="298.924" x2="108.297" y2="263.432" gradientUnits="userSpaceOnUse">
<stop stop-color="#FFD2BB"/>
<stop offset="1" stop-color="#FF6B5A"/>
</linearGradient>
<linearGradient id="paint32_linear_2_638" x1="109.053" y1="304.139" x2="109.053" y2="275.157" gradientUnits="userSpaceOnUse">
<stop stop-color="white"/>
<stop offset="1" stop-color="#AEBDDF"/>
</linearGradient>
<linearGradient id="paint33_linear_2_638" x1="100.643" y1="294.643" x2="128.353" y2="309.518" gradientUnits="userSpaceOnUse">
<stop stop-color="#ACBDDE"/>
<stop offset="1" stop-color="#2E405C"/>
</linearGradient>
<linearGradient id="paint34_linear_2_638" x1="96.0304" y1="320.452" x2="96.0304" y2="227.631" gradientUnits="userSpaceOnUse">
<stop stop-color="#ACBDDE"/>
<stop offset="1" stop-color="#2E405C"/>
</linearGradient>
<linearGradient id="paint35_linear_2_638" x1="127.918" y1="309.798" x2="112.376" y2="267.219" gradientUnits="userSpaceOnUse">
<stop stop-color="#FFD2BB"/>
<stop offset="1" stop-color="#FF6B5A"/>
</linearGradient>
<linearGradient id="paint36_linear_2_638" x1="91.819" y1="294.358" x2="91.819" y2="221.921" gradientUnits="userSpaceOnUse">
<stop stop-color="#ACBDDE"/>
<stop offset="1" stop-color="#2E405C"/>
</linearGradient>
<linearGradient id="paint37_linear_2_638" x1="131.568" y1="315.92" x2="131.568" y2="290.231" gradientUnits="userSpaceOnUse">
<stop stop-color="white"/>
<stop offset="1" stop-color="#AEBDDF"/>
</linearGradient>
<linearGradient id="paint38_linear_2_638" x1="116.359" y1="310.616" x2="157.485" y2="317.361" gradientUnits="userSpaceOnUse">
<stop stop-color="#ACBDDE"/>
<stop offset="1" stop-color="#2E405C"/>
</linearGradient>
<linearGradient id="paint39_linear_2_638" x1="85.3711" y1="145.035" x2="85.3711" y2="237.558" gradientUnits="userSpaceOnUse">
<stop stop-color="#FFD2BB"/>
<stop offset="1" stop-color="#FF6B5A"/>
</linearGradient>
<linearGradient id="paint40_linear_2_638" x1="71.9299" y1="157.506" x2="66.6725" y2="272.332" gradientUnits="userSpaceOnUse">
<stop stop-color="#FFEFA4"/>
<stop offset="1" stop-color="#FE8F01"/>
</linearGradient>
<linearGradient id="paint41_linear_2_638" x1="58.316" y1="211.991" x2="90.1177" y2="185.633" gradientUnits="userSpaceOnUse">
<stop stop-color="#FFEFA4"/>
<stop offset="1" stop-color="#FE8F01"/>
</linearGradient>
<linearGradient id="paint42_linear_2_638" x1="69.9602" y1="147.247" x2="69.9602" y2="195.684" gradientUnits="userSpaceOnUse">
<stop stop-color="#FFD2BB"/>
<stop offset="1" stop-color="#FF6B5A"/>
</linearGradient>
<linearGradient id="paint43_linear_2_638" x1="70.9638" y1="158.95" x2="70.9638" y2="175.781" gradientUnits="userSpaceOnUse">
<stop stop-color="#FFD2BB"/>
<stop offset="1" stop-color="#FF6B5A"/>
</linearGradient>
<linearGradient id="paint44_linear_2_638" x1="94.6359" y1="199.06" x2="93.7817" y2="235.524" gradientUnits="userSpaceOnUse">
<stop stop-color="white"/>
<stop offset="1" stop-color="#AEBDDF"/>
</linearGradient>
<linearGradient id="paint45_linear_2_638" x1="73.4543" y1="220.194" x2="100.225" y2="221.42" gradientUnits="userSpaceOnUse">
<stop stop-color="white"/>
<stop offset="1" stop-color="#AEBDDF"/>
</linearGradient>
<linearGradient id="paint46_linear_2_638" x1="78.8376" y1="221.193" x2="131.296" y2="223.595" gradientUnits="userSpaceOnUse">
<stop stop-color="#ACBDDE"/>
<stop offset="1" stop-color="#2E405C"/>
</linearGradient>
<linearGradient id="paint47_linear_2_638" x1="78.0987" y1="224.37" x2="128.767" y2="203.076" gradientUnits="userSpaceOnUse">
<stop stop-color="#ACBDDE"/>
<stop offset="1" stop-color="#2E405C"/>
</linearGradient>
<linearGradient id="paint48_linear_2_638" x1="104.669" y1="179.993" x2="104.669" y2="251.987" gradientUnits="userSpaceOnUse">
<stop stop-color="white"/>
<stop offset="1" stop-color="#AEBDDF"/>
</linearGradient>
<linearGradient id="paint49_linear_2_638" x1="117.705" y1="184.42" x2="104.132" y2="216.451" gradientUnits="userSpaceOnUse">
<stop stop-color="white"/>
<stop offset="1" stop-color="#AEBDDF"/>
</linearGradient>
<linearGradient id="paint50_linear_2_638" x1="72.5967" y1="147.248" x2="72.5967" y2="195.684" gradientUnits="userSpaceOnUse">
<stop stop-color="#FFD2BB"/>
<stop offset="1" stop-color="#FF6B5A"/>
</linearGradient>
<linearGradient id="paint51_linear_2_638" x1="39.062" y1="105.171" x2="72.8017" y2="166.834" gradientUnits="userSpaceOnUse">
<stop stop-color="#ACBDDE"/>
<stop offset="1" stop-color="#2E405C"/>
</linearGradient>
<linearGradient id="paint52_linear_2_638" x1="51.9496" y1="145.035" x2="51.9496" y2="237.558" gradientUnits="userSpaceOnUse">
<stop stop-color="#FFD2BB"/>
<stop offset="1" stop-color="#FF6B5A"/>
</linearGradient>
<linearGradient id="paint53_linear_2_638" x1="64.8888" y1="145.035" x2="64.8888" y2="237.558" gradientUnits="userSpaceOnUse">
<stop stop-color="#FFD2BB"/>
<stop offset="1" stop-color="#FF6B5A"/>
</linearGradient>
<linearGradient id="paint54_linear_2_638" x1="246.198" y1="231.145" x2="246.198" y2="131.653" gradientUnits="userSpaceOnUse">
<stop stop-color="#FFD2BB"/>
<stop offset="1" stop-color="#FF6B5A"/>
</linearGradient>
<linearGradient id="paint55_linear_2_638" x1="251.639" y1="130.579" x2="251.639" y2="228.61" gradientUnits="userSpaceOnUse">
<stop stop-color="white"/>
<stop offset="1" stop-color="#AEBDDF"/>
</linearGradient>
<linearGradient id="paint56_linear_2_638" x1="223.841" y1="231.145" x2="223.841" y2="131.653" gradientUnits="userSpaceOnUse">
<stop stop-color="#FFD2BB"/>
<stop offset="1" stop-color="#FF6B5A"/>
</linearGradient>
<linearGradient id="paint57_linear_2_638" x1="244.371" y1="284.929" x2="215.263" y2="284.929" gradientUnits="userSpaceOnUse">
<stop stop-color="white" stop-opacity="0"/>
<stop offset="1" stop-color="#AEBDDF"/>
</linearGradient>
<linearGradient id="paint58_linear_2_638" x1="286.213" y1="298.336" x2="247.538" y2="298.336" gradientUnits="userSpaceOnUse">
<stop stop-color="white" stop-opacity="0"/>
<stop offset="1" stop-color="#AEBDDF"/>
</linearGradient>
<linearGradient id="paint59_linear_2_638" x1="222.737" y1="278.007" x2="176.865" y2="278.007" gradientUnits="userSpaceOnUse">
<stop stop-color="white"/>
<stop offset="1" stop-color="#AEBDDF"/>
</linearGradient>
<linearGradient id="paint60_linear_2_638" x1="242.599" y1="309.331" x2="249.099" y2="185.109" gradientUnits="userSpaceOnUse">
<stop stop-color="#ACBDDE"/>
<stop offset="1" stop-color="#2E405C"/>
</linearGradient>
<linearGradient id="paint61_linear_2_638" x1="217.006" y1="281.838" x2="182.338" y2="300.827" gradientUnits="userSpaceOnUse">
<stop stop-color="#ACBDDE"/>
<stop offset="1" stop-color="#2E405C"/>
</linearGradient>
<linearGradient id="paint62_linear_2_638" x1="261.088" y1="290.729" x2="218.621" y2="290.729" gradientUnits="userSpaceOnUse">
<stop stop-color="white"/>
<stop offset="1" stop-color="#AEBDDF"/>
</linearGradient>
<linearGradient id="paint63_linear_2_638" x1="267.343" y1="309.95" x2="271.144" y2="185.616" gradientUnits="userSpaceOnUse">
<stop stop-color="#ACBDDE"/>
<stop offset="1" stop-color="#2E405C"/>
</linearGradient>
<linearGradient id="paint64_linear_2_638" x1="262.963" y1="288.699" x2="232.924" y2="312.602" gradientUnits="userSpaceOnUse">
<stop stop-color="#ACBDDE"/>
<stop offset="1" stop-color="#2E405C"/>
</linearGradient>
<linearGradient id="paint65_linear_2_638" x1="270.619" y1="130.58" x2="270.619" y2="228.61" gradientUnits="userSpaceOnUse">
<stop stop-color="white"/>
<stop offset="1" stop-color="#AEBDDF"/>
</linearGradient>
<linearGradient id="paint66_linear_2_638" x1="266.075" y1="157.674" x2="267.146" y2="142.446" gradientUnits="userSpaceOnUse">
<stop stop-color="white"/>
<stop offset="1" stop-color="#AEBDDF"/>
</linearGradient>
<linearGradient id="paint67_linear_2_638" x1="265.121" y1="160.362" x2="270.532" y2="126.934" gradientUnits="userSpaceOnUse">
<stop stop-color="#FFD2BB"/>
<stop offset="1" stop-color="#FF6B5A"/>
</linearGradient>
<linearGradient id="paint68_linear_2_638" x1="260.344" y1="162.554" x2="264.555" y2="146.238" gradientUnits="userSpaceOnUse">
<stop stop-color="#FFD2BB"/>
<stop offset="1" stop-color="#FF6B5A"/>
</linearGradient>
<linearGradient id="paint69_linear_2_638" x1="251.878" y1="184.594" x2="252.732" y2="221.058" gradientUnits="userSpaceOnUse">
<stop stop-color="white"/>
<stop offset="1" stop-color="#AEBDDF"/>
</linearGradient>
<linearGradient id="paint70_linear_2_638" x1="273.059" y1="205.729" x2="246.288" y2="206.954" gradientUnits="userSpaceOnUse">
<stop stop-color="white"/>
<stop offset="1" stop-color="#AEBDDF"/>
</linearGradient>
<linearGradient id="paint71_linear_2_638" x1="267.676" y1="206.728" x2="215.218" y2="209.13" gradientUnits="userSpaceOnUse">
<stop stop-color="#ACBDDE"/>
<stop offset="1" stop-color="#2E405C"/>
</linearGradient>
<linearGradient id="paint72_linear_2_638" x1="268.415" y1="209.905" x2="217.747" y2="188.61" gradientUnits="userSpaceOnUse">
<stop stop-color="#ACBDDE"/>
<stop offset="1" stop-color="#2E405C"/>
</linearGradient>
<linearGradient id="paint73_linear_2_638" x1="241.854" y1="178.666" x2="241.854" y2="251.812" gradientUnits="userSpaceOnUse">
<stop stop-color="#ACBDDE"/>
<stop offset="1" stop-color="#2E405C"/>
</linearGradient>
<linearGradient id="paint74_linear_2_638" x1="240.328" y1="193.826" x2="240.328" y2="220.348" gradientUnits="userSpaceOnUse">
<stop stop-color="white"/>
<stop offset="1" stop-color="#AEBDDF"/>
</linearGradient>
<linearGradient id="paint75_linear_2_638" x1="262.831" y1="158.522" x2="264.464" y2="124.698" gradientUnits="userSpaceOnUse">
<stop stop-color="#FFD2BB"/>
<stop offset="1" stop-color="#FF6B5A"/>
</linearGradient>
<linearGradient id="paint76_linear_2_638" x1="264.251" y1="82.2672" x2="263.985" y2="137.612" gradientUnits="userSpaceOnUse">
<stop stop-color="#ACBDDE"/>
<stop offset="1" stop-color="#2E405C"/>
</linearGradient>
<linearGradient id="paint77_linear_2_638" x1="270.619" y1="241.798" x2="270.619" y2="153.293" gradientUnits="userSpaceOnUse">
<stop stop-color="#FFD2BB"/>
<stop offset="1" stop-color="#FF6B5A"/>
</linearGradient>
<linearGradient id="paint78_linear_2_638" x1="284.858" y1="241.798" x2="284.858" y2="153.293" gradientUnits="userSpaceOnUse">
<stop stop-color="#FFD2BB"/>
<stop offset="1" stop-color="#FF6B5A"/>
</linearGradient>
<linearGradient id="paint79_linear_2_638" x1="281.966" y1="130.58" x2="281.966" y2="228.61" gradientUnits="userSpaceOnUse">
<stop stop-color="white"/>
<stop offset="1" stop-color="#AEBDDF"/>
</linearGradient>
</defs>
</svg>
