<svg width="60" height="60" viewBox="0 0 60 60" fill="none" xmlns="http://www.w3.org/2000/svg">
<path d="M29.9583 6.57595C29.9452 6.58913 29.4577 6.61548 28.8779 6.63524C25.887 6.74724 22.7643 7.55097 19.9842 8.92127C18.2976 9.75136 17.652 10.14 16.4069 11.0558C12.4409 13.9677 9.6015 17.8678 8.04015 22.5255C7.7371 23.428 7.36159 24.9235 7.20348 25.8853C7.17713 26.0303 7.14419 26.2081 7.13101 26.2806C6.88726 27.697 6.82138 30.6484 6.99925 32.2757C7.44723 36.2878 8.84388 39.9704 11.1497 43.2447C12.9943 45.8535 15.6624 48.2977 18.3635 49.8524C19.9644 50.7681 21.8551 51.5916 23.4824 52.066C24.7934 52.4547 26.638 52.8104 27.725 52.8961C28.0347 52.9224 28.3575 52.9554 28.4497 52.9685C28.7066 53.0146 31.2628 53.0081 31.8096 52.9619C37.3896 52.5074 42.4426 50.2345 46.2965 46.453C50.2098 42.6056 52.4958 37.9743 53.1941 32.4733C53.3588 31.1887 53.3588 28.4217 53.1941 27.137C52.8252 24.2252 52.0478 21.6624 50.7895 19.2315C47.7656 13.3616 42.5084 9.10574 36.151 7.37968C34.728 6.99099 32.9098 6.70771 31.546 6.64842C31.0585 6.62865 30.5051 6.59571 30.3207 6.58254C30.1362 6.56277 29.9715 6.56277 29.9583 6.57595ZM31.579 10.1335C32.9229 10.3509 33.7925 10.5683 35.0047 10.9767C38.503 12.1691 40.6309 14.2641 41.3424 17.2221C41.5137 17.927 41.5071 19.8112 41.3424 20.5491C41.092 21.6427 40.2751 23.0064 39.2145 24.1198L38.6742 24.6929L38.7994 24.8708C39.1222 25.3254 39.2145 25.6548 39.2145 26.4124C39.2145 27.0053 39.1881 27.2029 39.0695 27.506C38.7599 28.2899 38.167 29.0739 37.5148 29.5483L37.2578 29.7393H43.3253H49.3995V30.1807C49.3929 33.7382 48.1346 37.6383 46.0001 40.7544C43.3385 44.6413 39.3067 47.4676 34.7742 48.6139C32.1719 49.2727 29.5038 49.3847 26.7698 48.9367C19.6679 47.7838 13.7585 42.6847 11.4791 35.7344C10.9191 34.0281 10.5633 31.8804 10.5633 30.1675V29.7722L16.677 29.7393L22.784 29.7064L22.2636 29.3572C21.3215 28.7248 20.3728 27.7036 19.859 26.7615C19.1145 25.3978 18.8905 24.1 19.2661 23.3028C19.7404 22.3015 20.8142 21.6954 22.1252 21.6954C22.8367 21.6954 23.2254 21.781 24.1346 22.1302C25.4719 22.644 26.3613 22.8285 27.5076 22.8285C28.6737 22.8219 29.5499 22.5123 30.2021 21.8601C30.6962 21.3791 30.9136 20.918 30.9136 20.3844C30.9136 19.8903 30.8148 19.6597 30.4261 19.2842C30.0769 18.9416 29.6421 18.711 29.0426 18.5463C27.8897 18.2367 27.0267 18.3026 25.551 18.7967C23.7591 19.4028 23.0014 19.5016 21.7431 19.2973C19.2595 18.8955 18.0407 17.4395 18.5743 15.5093C18.9828 14.0335 20.162 12.7555 22.0594 11.7343C23.0937 11.1744 24.3388 10.7 25.4522 10.4365C26.447 10.2059 26.5524 10.1862 27.198 10.1137C27.5406 10.0742 27.9161 10.0281 28.0215 10.0149C28.4365 9.95559 31.0124 10.0412 31.579 10.1335Z" fill="#FB3930"/>
<path d="M28.2327 12.7423C26.2102 12.9532 24.326 13.5988 23.1665 14.475C21.4339 15.7794 21.335 17.4395 22.982 17.7492C23.4366 17.8348 23.9768 17.7492 24.9848 17.4198C26.3485 16.9784 26.7635 16.8927 27.7649 16.8466C29.6491 16.7676 31.25 17.2419 32.2513 18.1774C32.7916 18.6781 33.0748 19.1327 33.2527 19.7914C33.5953 21.0366 33.2395 22.1433 32.1855 23.1315C30.9601 24.2712 29.0825 24.7917 26.8492 24.6072C25.973 24.5348 25.4921 24.4557 24.2799 24.2054C22.7251 23.8891 22.2376 24.1724 22.5538 25.2133C22.8108 26.0566 23.3773 26.8405 24.2206 27.5125C25.6238 28.6259 27.587 29.087 30.3276 28.9421C32.7257 28.8169 34.0499 28.4414 35.0908 27.5718C35.5322 27.2029 35.6771 26.913 35.5717 26.6231C35.4004 26.1818 35.0117 26.1488 33.7336 26.4782C32.2513 26.8603 31.2895 26.9921 29.8994 26.9987C28.5489 27.0052 28.1602 26.9262 27.9889 26.61C27.8835 26.4189 27.9296 26.2872 28.147 26.1488C28.3183 26.0368 28.5752 25.9907 30.1629 25.8194C32.8904 25.5164 34.7679 24.6599 36.3227 23.013C38.7603 20.4239 38.8196 17.5384 36.4874 15.1931C35.2357 13.9348 33.7534 13.1969 31.777 12.8412C31.0655 12.716 29.0562 12.6567 28.2327 12.7423Z" fill="#FB3930"/>
</svg>
