<svg width="329" height="329" viewBox="0 0 329 329" fill="none" xmlns="http://www.w3.org/2000/svg">
<path d="M0 0H319C324.523 0 329 4.47715 329 10V319C329 324.523 324.523 329 319 329H0V0Z"/>
<path d="M224.804 169.682H215.542V247.445H224.804V169.682Z" fill="url(#paint0_linear_2_1014)"/>
<path d="M306.796 146.566H297.534V224.33H306.796V146.566Z" fill="url(#paint1_linear_2_1014)"/>
<path d="M70.2838 126.995H61.0214V204.758H70.2838V126.995Z" fill="url(#paint2_linear_2_1014)"/>
<path d="M51.9603 128.404C51.9603 129.129 52.9671 129.854 55.0209 130.377L212.884 172.662C216.992 173.749 223.636 173.749 227.744 172.662L313.36 149.707C315.414 149.144 316.421 148.459 316.421 147.734V151.52C316.421 152.244 315.414 152.969 313.36 153.493L227.744 176.447C223.636 177.535 216.992 177.535 212.884 176.447L55.0209 134.163C52.9671 133.599 51.9603 132.874 51.9603 132.189V128.404Z" fill="url(#paint3_linear_2_1014)"/>
<path d="M51.9604 128.404C51.9604 127.679 52.9672 126.954 55.021 126.431L140.637 103.476C144.745 102.389 151.39 102.389 155.498 103.476L313.361 145.761C315.414 146.325 316.421 147.05 316.421 147.734C316.421 148.459 315.414 149.184 313.361 149.707L227.744 172.662C223.636 173.749 216.992 173.749 212.884 172.662L55.021 130.377C53.0074 129.854 51.9604 129.129 51.9604 128.404Z" fill="url(#paint4_linear_2_1014)"/>
<path d="M253.035 136.7L204.79 123.773L188.077 128.243L236.322 141.17L253.035 136.7Z" fill="url(#paint5_linear_2_1014)"/>
<path d="M220.858 81.7699V125.303C220.858 128.404 219.046 129.773 217.636 130.136L208.012 132.673C206.884 132.995 205.676 132.995 204.548 132.673L183.889 127.156C183.124 126.954 183.124 125.827 183.889 125.625L193.031 123.169C194.44 122.766 195.608 120.873 195.608 118.94V75.0044L220.858 81.7699Z" fill="url(#paint6_linear_2_1014)"/>
<path d="M220.012 82.0519V125.021C220.012 126.914 218.885 128.766 217.475 129.169L207.488 131.867C206.36 132.149 205.192 132.149 204.105 131.867L183.929 126.471C183.164 126.27 183.164 125.182 183.929 124.981L192.87 122.605C194.279 122.243 195.407 120.39 195.407 118.457V75.4474L220.012 82.0519Z" fill="url(#paint7_linear_2_1014)"/>
<path d="M251.988 125.867C253.639 125.424 254.807 123.531 254.807 120.994V66.2655C254.807 62.923 252.834 59.661 250.377 59.0167L165.365 36.2232C164.801 36.0621 164.237 36.0621 163.754 36.2232L165.284 35.8205C165.808 35.6997 166.331 35.6997 166.895 35.8205L251.907 58.6139C254.364 59.2583 256.337 62.5203 256.337 65.8628V120.551C256.337 123.128 255.169 124.981 253.518 125.424L251.988 125.867Z" fill="url(#paint8_linear_2_1014)"/>
<path d="M251.988 125.867C251.464 125.988 250.941 125.988 250.377 125.867L165.364 103.073C162.908 102.429 160.934 99.167 160.934 95.8245V41.096C160.934 38.5186 162.102 36.6662 163.753 36.2232C164.277 36.1024 164.8 36.1024 165.364 36.2232L250.377 59.0167C252.833 59.661 254.807 62.923 254.807 66.2655V120.994C254.847 123.531 253.639 125.424 251.988 125.867Z" fill="url(#paint9_linear_2_1014)"/>
<path d="M164.72 39.3241C165.002 39.2435 165.284 39.2435 165.566 39.3241L249.733 61.8759C251.021 62.2384 252.109 63.9298 252.109 65.742L251.988 120.189C251.988 121.558 251.384 122.565 250.498 122.766C250.216 122.846 249.934 122.846 249.652 122.766L165.485 100.214C164.197 99.8516 163.109 98.1603 163.109 96.3481L163.23 41.8612C163.23 40.5725 163.834 39.5657 164.72 39.3241Z" fill="url(#paint10_linear_2_1014)"/>
<path d="M253.478 152.526L195.89 137.103L175.956 142.459L233.503 157.842L253.478 152.526Z" fill="url(#paint11_linear_2_1014)"/>
<path d="M135.362 130.297C135.362 130.458 135.564 130.579 136.007 130.699L199.877 147.815C200.723 148.056 202.092 148.056 202.938 147.815L220.818 143.022C221.221 142.902 221.462 142.781 221.462 142.62V143.707C221.462 143.868 221.261 143.989 220.818 144.11L202.938 148.902C202.092 149.144 200.723 149.144 199.877 148.902L136.007 131.787C135.564 131.666 135.362 131.505 135.362 131.384V130.297Z" fill="url(#paint12_linear_2_1014)"/>
<path d="M135.362 130.297C135.362 130.136 135.564 130.015 136.007 129.894L153.887 125.102C154.733 124.86 156.102 124.86 156.948 125.102L220.818 142.217C221.261 142.338 221.462 142.499 221.462 142.62C221.462 142.781 221.261 142.902 220.818 143.022L202.937 147.815C202.092 148.056 200.723 148.056 199.877 147.815L136.007 130.699C135.564 130.579 135.362 130.418 135.362 130.297Z" fill="url(#paint13_linear_2_1014)"/>
<path d="M155.135 127.921L153.645 127.518C153.404 127.438 153.404 127.357 153.645 127.276L155.135 126.874C155.377 126.793 155.82 126.793 156.062 126.874L157.552 127.276C157.793 127.357 157.793 127.438 157.552 127.518L156.062 127.921C155.78 127.961 155.377 127.961 155.135 127.921ZM160.048 128.968L161.538 128.565C161.78 128.485 161.78 128.404 161.538 128.324L160.048 127.921C159.807 127.84 159.364 127.84 159.122 127.921L157.632 128.324C157.391 128.404 157.391 128.485 157.632 128.565L159.122 128.968C159.404 129.048 159.807 129.048 160.048 128.968ZM164.076 130.055L165.566 129.652C165.807 129.572 165.807 129.491 165.566 129.411L164.076 129.008C163.834 128.928 163.391 128.928 163.149 129.008L161.659 129.411C161.418 129.491 161.418 129.572 161.659 129.652L163.149 130.055C163.431 130.136 163.834 130.136 164.076 130.055ZM168.103 131.143L169.593 130.74C169.834 130.659 169.834 130.579 169.593 130.498L168.103 130.095C167.861 130.015 167.418 130.015 167.176 130.095L165.686 130.498C165.445 130.579 165.445 130.659 165.686 130.74L167.176 131.143C167.418 131.223 167.861 131.223 168.103 131.143ZM172.13 132.23L173.62 131.827C173.861 131.747 173.861 131.666 173.62 131.585L172.13 131.183C171.888 131.102 171.445 131.102 171.204 131.183L169.714 131.585C169.472 131.666 169.472 131.747 169.714 131.827L171.204 132.23C171.445 132.27 171.848 132.27 172.13 132.23ZM176.117 133.277L177.607 132.874C177.848 132.794 177.848 132.713 177.607 132.633L176.117 132.23C175.875 132.149 175.432 132.149 175.19 132.23L173.7 132.633C173.459 132.713 173.459 132.794 173.7 132.874L175.19 133.277C175.472 133.357 175.875 133.357 176.117 133.277ZM180.144 134.364L181.634 133.961C181.875 133.881 181.875 133.8 181.634 133.72L180.144 133.317C179.902 133.237 179.459 133.237 179.218 133.317L177.727 133.72C177.486 133.8 177.486 133.881 177.727 133.961L179.218 134.364C179.499 134.445 179.902 134.445 180.144 134.364ZM184.171 135.452L185.661 135.049C185.903 134.968 185.903 134.888 185.661 134.807L184.171 134.404C183.929 134.324 183.486 134.324 183.245 134.404L181.755 134.807C181.513 134.888 181.513 134.968 181.755 135.049L183.245 135.452C183.527 135.532 183.929 135.532 184.171 135.452ZM188.198 136.539L189.688 136.136C189.93 136.056 189.93 135.975 189.688 135.895L188.198 135.492C187.956 135.411 187.513 135.411 187.272 135.492L185.782 135.895C185.54 135.975 185.54 136.056 185.782 136.136L187.272 136.539C187.513 136.579 187.956 136.579 188.198 136.539ZM192.225 137.586L193.715 137.183C193.957 137.103 193.957 137.022 193.715 136.942L192.225 136.539C191.983 136.458 191.541 136.458 191.299 136.539L189.809 136.942C189.567 137.022 189.567 137.103 189.809 137.183L191.299 137.586C191.541 137.666 191.943 137.666 192.225 137.586ZM196.252 138.673L197.742 138.271C197.984 138.19 197.984 138.109 197.742 138.029L196.252 137.626C196.011 137.546 195.568 137.546 195.326 137.626L193.836 138.029C193.594 138.109 193.594 138.19 193.836 138.271L195.326 138.673C195.568 138.754 195.97 138.754 196.252 138.673ZM200.239 139.761L201.729 139.358C201.971 139.277 201.971 139.197 201.729 139.116L200.239 138.713C199.997 138.633 199.554 138.633 199.313 138.713L197.823 139.116C197.581 139.197 197.581 139.277 197.823 139.358L199.313 139.761C199.595 139.841 199.997 139.841 200.239 139.761ZM204.266 140.848L205.756 140.445C205.998 140.365 205.998 140.284 205.756 140.204L204.266 139.801C204.025 139.72 203.582 139.72 203.34 139.801L201.85 140.204C201.608 140.284 201.608 140.365 201.85 140.445L203.34 140.848C203.622 140.888 204.025 140.888 204.266 140.848ZM208.293 141.895L209.783 141.492C210.025 141.412 210.025 141.331 209.783 141.251L208.293 140.848C208.052 140.767 207.609 140.767 207.367 140.848L205.877 141.251C205.635 141.331 205.635 141.412 205.877 141.492L207.367 141.895C207.649 141.975 208.052 141.975 208.293 141.895ZM212.32 142.982L213.81 142.58C214.052 142.499 214.052 142.418 213.81 142.338L212.32 141.935C212.079 141.855 211.636 141.855 211.394 141.935L209.904 142.338C209.663 142.418 209.663 142.499 209.904 142.58L211.394 142.982C211.636 143.063 212.079 143.063 212.32 142.982ZM152.759 131.183L154.652 130.659C154.813 130.619 154.813 130.538 154.652 130.498L148.33 128.807C148.168 128.767 147.967 128.767 147.806 128.807L145.913 129.33C145.752 129.371 145.752 129.451 145.913 129.491L152.236 131.183C152.397 131.183 152.598 131.183 152.759 131.183ZM156.545 132.069L158.035 131.666C158.277 131.585 158.277 131.505 158.035 131.424L156.545 131.022C156.303 130.941 155.86 130.941 155.619 131.022L154.129 131.424C153.887 131.505 153.887 131.585 154.129 131.666L155.619 132.069C155.901 132.149 156.303 132.149 156.545 132.069ZM160.572 133.156L162.062 132.753C162.304 132.673 162.304 132.592 162.062 132.512L160.572 132.109C160.33 132.028 159.887 132.028 159.646 132.109L158.156 132.512C157.914 132.592 157.914 132.673 158.156 132.753L159.646 133.156C159.928 133.237 160.33 133.237 160.572 133.156ZM164.599 134.243L166.089 133.841C166.331 133.76 166.331 133.68 166.089 133.599L164.599 133.196C164.357 133.116 163.914 133.116 163.673 133.196L162.183 133.599C161.941 133.68 161.941 133.76 162.183 133.841L163.673 134.243C163.955 134.284 164.357 134.284 164.599 134.243ZM168.626 135.29L170.116 134.888C170.358 134.807 170.358 134.727 170.116 134.646L168.626 134.243C168.385 134.163 167.942 134.163 167.7 134.243L166.21 134.646C165.968 134.727 165.968 134.807 166.21 134.888L167.7 135.29C167.942 135.371 168.385 135.371 168.626 135.29ZM172.653 136.378L174.143 135.975C174.385 135.895 174.385 135.814 174.143 135.733L172.653 135.331C172.412 135.25 171.969 135.25 171.727 135.331L170.237 135.733C169.995 135.814 169.995 135.895 170.237 135.975L171.727 136.378C171.969 136.458 172.371 136.458 172.653 136.378ZM176.68 137.465L178.17 137.062C178.412 136.982 178.412 136.901 178.17 136.821L176.68 136.418C176.439 136.337 175.996 136.337 175.754 136.418L174.264 136.821C174.023 136.901 174.023 136.982 174.264 137.062L175.754 137.465C175.996 137.546 176.399 137.546 176.68 137.465ZM180.667 138.552L182.157 138.15C182.399 138.069 182.399 137.989 182.157 137.908L180.667 137.505C180.426 137.425 179.983 137.425 179.741 137.505L178.251 137.908C178.009 137.989 178.009 138.069 178.251 138.15L179.741 138.552C180.023 138.593 180.426 138.593 180.667 138.552ZM184.694 139.599L186.184 139.197C186.426 139.116 186.426 139.036 186.184 138.955L184.694 138.552C184.453 138.472 184.01 138.472 183.768 138.552L182.278 138.955C182.037 139.036 182.037 139.116 182.278 139.197L183.768 139.599C184.05 139.68 184.453 139.68 184.694 139.599ZM188.722 140.687L190.212 140.284C190.453 140.204 190.453 140.123 190.212 140.042L188.722 139.64C188.48 139.559 188.037 139.559 187.795 139.64L186.305 140.042C186.064 140.123 186.064 140.204 186.305 140.284L187.795 140.687C188.077 140.767 188.48 140.767 188.722 140.687ZM192.749 141.774L194.239 141.371C194.48 141.291 194.48 141.21 194.239 141.13L192.749 140.727C192.507 140.647 192.064 140.647 191.822 140.727L190.332 141.13C190.091 141.21 190.091 141.291 190.332 141.371L191.822 141.774C192.064 141.855 192.507 141.855 192.749 141.774ZM196.776 142.861L198.266 142.459C198.507 142.378 198.507 142.298 198.266 142.217L196.776 141.814C196.534 141.734 196.091 141.734 195.85 141.814L194.359 142.217C194.118 142.298 194.118 142.378 194.359 142.459L195.85 142.861C196.091 142.902 196.494 142.902 196.776 142.861ZM204.588 145.076L206.562 144.553C206.682 144.513 206.682 144.472 206.562 144.432L200.561 142.821C200.44 142.781 200.239 142.781 200.118 142.821L198.145 143.345C198.024 143.385 198.024 143.425 198.145 143.465L204.145 145.076C204.226 145.117 204.468 145.117 204.588 145.076ZM154.29 129.491L156.102 129.008C156.263 128.968 156.263 128.887 156.102 128.847L152.155 127.8C151.994 127.76 151.712 127.76 151.551 127.8L149.739 128.283C149.578 128.324 149.578 128.404 149.739 128.444L153.686 129.491C153.887 129.532 154.129 129.532 154.29 129.491ZM158.478 130.538L159.968 130.136C160.21 130.055 160.21 129.975 159.968 129.894L158.478 129.491C158.236 129.411 157.793 129.411 157.552 129.491L156.062 129.894C155.82 129.975 155.82 130.055 156.062 130.136L157.552 130.538C157.834 130.619 158.236 130.619 158.478 130.538ZM162.505 131.626L163.995 131.223C164.237 131.143 164.237 131.062 163.995 130.981L162.505 130.579C162.263 130.498 161.82 130.498 161.579 130.579L160.089 130.981C159.847 131.062 159.847 131.143 160.089 131.223L161.579 131.626C161.861 131.666 162.263 131.666 162.505 131.626ZM166.532 132.673L168.022 132.27C168.264 132.19 168.264 132.109 168.022 132.028L166.532 131.626C166.29 131.545 165.848 131.545 165.606 131.626L164.116 132.028C163.874 132.109 163.874 132.19 164.116 132.27L165.606 132.673C165.848 132.753 166.29 132.753 166.532 132.673ZM170.559 133.76L172.049 133.357C172.291 133.277 172.291 133.196 172.049 133.116L170.559 132.713C170.318 132.633 169.875 132.633 169.633 132.713L168.143 133.116C167.901 133.196 167.901 133.277 168.143 133.357L169.633 133.76C169.875 133.841 170.277 133.841 170.559 133.76ZM174.586 134.847L176.076 134.445C176.318 134.364 176.318 134.284 176.076 134.203L174.586 133.8C174.345 133.72 173.902 133.72 173.66 133.8L172.17 134.203C171.928 134.284 171.928 134.364 172.17 134.445L173.66 134.847C173.902 134.928 174.304 134.928 174.586 134.847ZM178.573 135.935L180.063 135.532C180.305 135.452 180.305 135.371 180.063 135.29L178.573 134.888C178.332 134.807 177.889 134.807 177.647 134.888L176.157 135.29C175.915 135.371 175.915 135.452 176.157 135.532L177.647 135.935C177.929 135.975 178.332 135.975 178.573 135.935ZM182.6 136.982L184.09 136.579C184.332 136.499 184.332 136.418 184.09 136.337L182.6 135.935C182.359 135.854 181.916 135.854 181.674 135.935L180.184 136.337C179.942 136.418 179.942 136.499 180.184 136.579L181.674 136.982C181.956 137.062 182.359 137.062 182.6 136.982ZM186.627 138.069L188.117 137.666C188.359 137.586 188.359 137.505 188.117 137.425L186.627 137.022C186.386 136.942 185.943 136.942 185.701 137.022L184.211 137.425C183.97 137.505 183.97 137.586 184.211 137.666L185.701 138.069C185.983 138.15 186.386 138.15 186.627 138.069ZM190.655 139.156L192.145 138.754C192.386 138.673 192.386 138.593 192.145 138.512L190.655 138.109C190.413 138.029 189.97 138.029 189.728 138.109L188.238 138.512C187.997 138.593 187.997 138.673 188.238 138.754L189.728 139.156C189.97 139.237 190.413 139.237 190.655 139.156ZM194.682 140.244L196.172 139.841C196.413 139.761 196.413 139.68 196.172 139.599L194.682 139.197C194.44 139.116 193.997 139.116 193.755 139.197L192.265 139.599C192.024 139.68 192.024 139.761 192.265 139.841L193.755 140.244C193.997 140.284 194.4 140.284 194.682 140.244ZM198.709 141.291L200.199 140.888C200.44 140.808 200.44 140.727 200.199 140.647L198.709 140.244C198.467 140.163 198.024 140.163 197.783 140.244L196.293 140.647C196.051 140.727 196.051 140.808 196.293 140.888L197.783 141.291C198.024 141.371 198.427 141.371 198.709 141.291ZM202.696 142.378L204.186 141.975C204.427 141.895 204.427 141.814 204.186 141.734L202.696 141.331C202.454 141.251 202.011 141.251 201.769 141.331L200.279 141.734C200.038 141.814 200.038 141.895 200.279 141.975L201.769 142.378C202.051 142.459 202.454 142.459 202.696 142.378ZM208.454 144.029L210.307 143.546C210.468 143.506 210.468 143.425 210.307 143.385L206.521 142.378C206.36 142.338 206.119 142.338 205.958 142.378L204.105 142.861C203.944 142.902 203.944 142.982 204.105 143.023L207.891 144.029C208.052 144.07 208.293 144.07 208.454 144.029ZM146.719 131.545L148.531 131.062C148.692 131.022 148.692 130.941 148.531 130.901L144.584 129.854C144.423 129.814 144.141 129.814 143.98 129.854L142.168 130.337C142.007 130.377 142.007 130.458 142.168 130.498L146.115 131.545C146.276 131.585 146.558 131.585 146.719 131.545ZM150.907 132.552L152.397 132.149C152.639 132.069 152.639 131.988 152.397 131.908L150.907 131.505C150.665 131.424 150.222 131.424 149.981 131.505L148.491 131.908C148.249 131.988 148.249 132.069 148.491 132.149L149.981 132.552C150.263 132.633 150.665 132.633 150.907 132.552ZM154.934 133.639L156.424 133.237C156.666 133.156 156.666 133.076 156.424 132.995L154.934 132.592C154.692 132.512 154.249 132.512 154.008 132.592L152.518 132.995C152.276 133.076 152.276 133.156 152.518 133.237L154.008 133.639C154.249 133.72 154.692 133.72 154.934 133.639ZM174.989 139.036L176.6 138.593C176.842 138.512 176.842 138.432 176.6 138.391L158.921 133.639C158.679 133.559 158.317 133.559 158.075 133.639L156.464 134.082C156.223 134.163 156.223 134.243 156.464 134.284L174.143 139.036C174.385 139.116 174.747 139.116 174.989 139.036ZM179.056 140.123L180.546 139.72C180.788 139.64 180.788 139.559 180.546 139.479L179.056 139.076C178.815 138.995 178.372 138.995 178.13 139.076L176.64 139.479C176.399 139.559 176.399 139.64 176.64 139.72L178.13 140.123C178.372 140.163 178.775 140.163 179.056 140.123ZM183.084 141.17L184.574 140.767C184.815 140.687 184.815 140.606 184.574 140.526L183.084 140.123C182.842 140.042 182.399 140.042 182.157 140.123L180.667 140.526C180.426 140.606 180.426 140.687 180.667 140.767L182.157 141.17C182.399 141.251 182.802 141.251 183.084 141.17ZM187.07 142.257L188.56 141.855C188.802 141.774 188.802 141.694 188.56 141.613L187.07 141.21C186.829 141.13 186.386 141.13 186.144 141.21L184.654 141.613C184.413 141.694 184.413 141.774 184.654 141.855L186.144 142.257C186.426 142.338 186.829 142.338 187.07 142.257ZM191.098 143.345L192.588 142.942C192.829 142.861 192.829 142.781 192.588 142.7L191.098 142.298C190.856 142.217 190.413 142.217 190.171 142.298L188.681 142.7C188.44 142.781 188.44 142.861 188.681 142.942L190.171 143.345C190.453 143.425 190.856 143.425 191.098 143.345ZM195.125 144.432L196.615 144.029C196.856 143.949 196.856 143.868 196.615 143.788L195.125 143.385C194.883 143.304 194.44 143.304 194.198 143.385L192.708 143.788C192.467 143.868 192.467 143.949 192.708 144.029L194.198 144.432C194.48 144.472 194.883 144.472 195.125 144.432ZM200.883 146.043L202.696 145.56C202.857 145.519 202.857 145.439 202.696 145.399L198.95 144.392C198.789 144.351 198.507 144.351 198.346 144.392L196.534 144.875C196.373 144.915 196.373 144.996 196.534 145.036L200.279 146.043C200.481 146.083 200.722 146.083 200.883 146.043Z" fill="url(#paint14_linear_2_1014)"/>
<path d="M229.597 20.3564C229.879 20.2759 230.201 20.2759 230.523 20.3564L279.453 33.4848C280.862 33.8473 281.949 35.6997 281.949 37.5925V50.6403C281.949 52.0901 281.305 53.1372 280.338 53.4191C280.057 53.4996 279.734 53.4996 279.412 53.4191L230.523 40.2907C229.114 39.9282 228.026 38.0757 228.026 36.183V23.1351C227.986 21.6854 228.671 20.6383 229.597 20.3564Z" fill="url(#paint15_linear_2_1014)"/>
<path d="M233.987 25.5916C234.55 25.4306 235.154 25.4306 235.759 25.5916C238.457 26.3165 240.672 29.9007 240.672 33.5653C240.672 36.3843 239.383 38.4784 237.571 38.9617C237.007 39.1227 236.403 39.1227 235.799 38.9617C233.101 38.2368 230.886 34.6527 230.886 30.988C230.886 28.169 232.174 26.0749 233.987 25.5916Z" fill="white"/>
<path d="M233.342 28.7731C233.382 28.7731 233.463 28.7731 233.543 28.7731L238.054 29.9812C238.336 30.0617 238.577 30.4242 238.577 30.8269V35.2165C238.577 35.4983 238.456 35.74 238.255 35.7802C238.215 35.7802 238.134 35.7802 238.054 35.7802L233.543 34.5721C233.261 34.4916 233.02 34.1291 233.02 33.7264V29.3369C233.02 29.055 233.181 28.8536 233.342 28.7731Z" fill="url(#paint16_linear_2_1014)"/>
<path d="M233.342 28.7731C233.382 28.7731 233.463 28.7731 233.543 28.7731L238.054 29.9812C238.336 30.0617 238.577 30.4242 238.577 30.8269V31.6323L236.04 33.0821C236 33.0821 236 33.1223 235.96 33.1223C235.839 33.1626 235.678 33.0821 235.557 32.9613L233.02 30.1423V29.3369C233.02 29.055 233.181 28.8536 233.342 28.7731Z" fill="url(#paint17_linear_2_1014)"/>
<path d="M247.276 31.7532C247.357 31.7532 247.437 31.7532 247.518 31.7532L270.875 37.9952C271.237 38.0757 271.519 38.559 271.519 39.0423C271.519 39.4047 271.358 39.6866 271.117 39.7671C271.036 39.7671 270.956 39.7671 270.875 39.7671L247.518 33.5251C247.155 33.4446 246.873 32.9613 246.873 32.4781C246.873 32.0753 247.034 31.7934 247.276 31.7532Z" fill="url(#paint18_linear_2_1014)"/>
<path d="M247.276 36.5857C247.357 36.5857 247.437 36.5857 247.518 36.5857L257.424 39.2436C257.787 39.3241 258.069 39.8074 258.069 40.2906C258.069 40.6531 257.908 40.935 257.666 41.0155C257.586 41.0155 257.505 41.0155 257.424 41.0155L247.518 38.3576C247.155 38.2771 246.873 37.7938 246.873 37.3106C246.873 36.9481 247.034 36.6662 247.276 36.5857Z" fill="url(#paint19_linear_2_1014)"/>
<path d="M171.002 32.6793C171.364 32.5988 171.727 32.5988 172.089 32.6793L243.087 51.7276C244.779 52.1705 246.108 54.3855 246.108 56.6809V112.376C246.108 114.108 245.302 115.396 244.175 115.718C243.812 115.799 243.45 115.799 243.087 115.718L172.089 96.7105C170.398 96.2675 169.069 94.0526 169.069 91.7571V36.0218C169.069 34.2499 169.874 33.0015 171.002 32.6793Z" fill="url(#paint20_linear_2_1014)"/>
<path d="M193.433 38.3979L172.089 32.6794C171.686 32.5585 171.324 32.5585 171.002 32.6794C169.874 33.0015 169.069 34.2499 169.069 36.0219V91.7169C169.069 94.0124 170.438 96.2273 172.089 96.6703L193.433 102.389V38.3979Z" fill="url(#paint21_linear_2_1014)"/>
<path d="M243.087 51.7276L172.089 32.6794C171.686 32.5585 171.324 32.5585 171.002 32.6794C169.874 33.0015 169.069 34.2499 169.069 36.0219V45.0829L246.148 65.742V56.681C246.108 54.3855 244.779 52.1706 243.087 51.7276Z" fill="url(#paint22_linear_2_1014)"/>
<path d="M198.91 88.616C199.031 88.5757 199.192 88.5757 199.353 88.616L237.449 98.8046C238.134 98.9657 238.657 99.892 238.657 100.778V108.51C238.657 109.195 238.335 109.718 237.892 109.839C237.771 109.879 237.61 109.879 237.449 109.839L199.353 99.6503C198.668 99.4892 198.145 98.563 198.145 97.677V89.9852C198.145 89.2604 198.467 88.7368 198.91 88.616Z" fill="white"/>
<path d="M202.051 92.0794C202.292 91.9989 202.574 91.9989 202.856 92.0794C204.105 92.4016 205.111 94.0527 205.111 95.7441C205.111 97.0328 204.507 97.9993 203.702 98.2007C203.46 98.2812 203.178 98.2812 202.897 98.2007C201.648 97.8785 200.641 96.2274 200.641 94.536C200.641 93.2473 201.205 92.3211 202.051 92.0794Z" fill="url(#paint23_linear_2_1014)"/>
<path d="M208.857 95.14C208.897 95.14 208.937 95.14 208.978 95.14L232.174 101.342C232.375 101.382 232.536 101.664 232.536 101.906C232.536 102.107 232.456 102.268 232.295 102.308C232.254 102.308 232.214 102.308 232.174 102.308L208.978 96.1065C208.776 96.0662 208.615 95.7844 208.615 95.5427C208.655 95.3414 208.736 95.1803 208.857 95.14Z" fill="url(#paint24_linear_2_1014)"/>
<path d="M208.857 97.4757C208.897 97.4757 208.937 97.4757 208.977 97.4757L219.126 100.174C219.327 100.214 219.488 100.496 219.488 100.738C219.488 100.939 219.408 101.1 219.247 101.14C219.206 101.14 219.166 101.14 219.126 101.14L208.977 98.4422C208.776 98.4019 208.615 98.12 208.615 97.8784C208.655 97.6368 208.736 97.516 208.857 97.4757Z" fill="url(#paint25_linear_2_1014)"/>
<path d="M198.91 72.6686C199.031 72.6284 199.192 72.6284 199.353 72.6686L237.449 82.8572C238.134 83.0183 238.657 83.9446 238.657 84.8305V92.5223C238.657 93.2069 238.335 93.7305 237.892 93.8513C237.771 93.8916 237.61 93.8916 237.449 93.8513L199.353 83.6627C198.668 83.5016 198.145 82.5753 198.145 81.6894V73.9976C198.145 73.313 198.467 72.7894 198.91 72.6686Z" fill="white"/>
<path d="M202.051 76.1319C202.292 76.0514 202.574 76.0514 202.856 76.1319C204.105 76.4541 205.111 78.1052 205.111 79.7966C205.111 81.0853 204.507 82.0518 203.702 82.2532C203.46 82.3337 203.178 82.3337 202.897 82.2532C201.648 81.931 200.641 80.2799 200.641 78.5885C200.641 77.2998 201.205 76.3333 202.051 76.1319Z" fill="url(#paint26_linear_2_1014)"/>
<path d="M208.857 79.1925C208.897 79.1925 208.937 79.1925 208.978 79.1925L232.174 85.3943C232.375 85.4345 232.536 85.7164 232.536 85.958C232.536 86.1594 232.456 86.3205 232.295 86.3608C232.254 86.3608 232.214 86.3608 232.174 86.3608L208.978 80.159C208.776 80.1187 208.615 79.8368 208.615 79.5952C208.655 79.3939 208.736 79.2328 208.857 79.1925Z" fill="url(#paint27_linear_2_1014)"/>
<path d="M208.857 81.5282C208.897 81.5282 208.937 81.5282 208.977 81.5282L219.126 84.2264C219.327 84.2667 219.488 84.5486 219.488 84.7902C219.488 84.9916 219.408 85.1526 219.247 85.1929C219.206 85.1929 219.166 85.1929 219.126 85.1929L208.977 82.4947C208.776 82.4544 208.615 82.1725 208.615 81.9309C208.655 81.6893 208.736 81.5685 208.857 81.5282Z" fill="url(#paint28_linear_2_1014)"/>
<path d="M198.91 56.7212C199.031 56.681 199.192 56.681 199.353 56.7212L237.449 66.9098C238.134 67.0709 238.657 67.9972 238.657 68.8831V76.5749C238.657 77.2595 238.335 77.7831 237.892 77.9039C237.771 77.9441 237.61 77.9441 237.449 77.9039L199.353 67.7153C198.668 67.5542 198.145 66.6279 198.145 65.742V58.0502C198.145 57.3656 198.467 56.8421 198.91 56.7212Z" fill="white"/>
<path d="M202.051 60.1846C202.292 60.104 202.574 60.104 202.856 60.1846C204.105 60.5067 205.111 62.1578 205.111 63.8492C205.111 65.1379 204.507 66.1044 203.702 66.3058C203.46 66.3863 203.178 66.3863 202.897 66.3058C201.648 65.9836 200.641 64.3325 200.641 62.6411C200.641 61.3524 201.205 60.3859 202.051 60.1846Z" fill="url(#paint29_linear_2_1014)"/>
<path d="M208.857 63.2452C208.897 63.2452 208.937 63.2452 208.978 63.2452L232.174 69.447C232.375 69.4873 232.536 69.7692 232.536 70.0108C232.536 70.2122 232.456 70.3733 232.295 70.4135C232.254 70.4135 232.214 70.4135 232.174 70.4135L208.978 64.2118C208.776 64.1715 208.615 63.8896 208.615 63.648C208.655 63.4063 208.736 63.2855 208.857 63.2452Z" fill="url(#paint30_linear_2_1014)"/>
<path d="M208.857 65.5408C208.897 65.5408 208.937 65.5408 208.977 65.5408L219.126 68.2389C219.327 68.2792 219.488 68.5611 219.488 68.8027C219.488 69.0041 219.408 69.1652 219.247 69.2055C219.206 69.2055 219.166 69.2055 219.126 69.2055L208.977 66.5073C208.776 66.467 208.615 66.1851 208.615 65.9435C208.655 65.7421 208.736 65.581 208.857 65.5408Z" fill="url(#paint31_linear_2_1014)"/>
<path d="M173.297 36.9078C173.458 36.8675 173.579 36.8675 173.74 36.9078L241.356 55.0298C242.04 55.2312 242.644 56.1574 242.644 57.1239V60.4261C242.644 61.151 242.322 61.7148 241.839 61.8356C241.678 61.8759 241.557 61.8759 241.396 61.8356L173.781 43.6733C173.096 43.472 172.492 42.5457 172.492 41.5792V38.277C172.492 37.5924 172.814 37.0286 173.297 36.9078Z" fill="white"/>
<path d="M238.054 56.238C238.416 56.1574 238.859 56.3588 239.141 56.842C239.544 57.4864 239.544 58.3723 239.141 58.7751C239.02 58.8959 238.94 58.9764 238.779 58.9764C238.416 59.057 237.973 58.8556 237.691 58.3723C237.289 57.728 237.289 56.842 237.691 56.4393C237.812 56.3588 237.933 56.2782 238.054 56.238Z" stroke="#2E405C" stroke-miterlimit="10" stroke-linecap="round"/>
<path d="M239.825 59.943L239.141 58.7751" stroke="#2E405C" stroke-miterlimit="10" stroke-linecap="round"/>
<path d="M173.177 50.8013C173.297 50.7611 173.458 50.7611 173.579 50.8013L187.956 54.6674C188.56 54.8284 189.084 55.6339 189.084 56.4796C189.084 57.1239 188.802 57.6072 188.359 57.728C188.238 57.7682 188.077 57.7682 187.956 57.728L173.579 53.8619C172.975 53.7008 172.452 52.8954 172.452 52.0497C172.492 51.4054 172.774 50.9221 173.177 50.8013Z" fill="white"/>
<g opacity="0.5">
<path opacity="0.5" d="M173.177 58.4528C173.297 58.4125 173.458 58.4125 173.579 58.4528L179.378 60.0234C179.982 60.1845 180.506 60.9899 180.506 61.8356C180.506 62.4799 180.224 62.9632 179.781 63.084C179.66 63.1243 179.499 63.1243 179.378 63.084L173.579 61.5134C172.975 61.3523 172.452 60.5469 172.452 59.7012C172.492 59.0166 172.774 58.5736 173.177 58.4528Z" fill="white"/>
</g>
<path d="M122.918 115.678C122.918 114.953 123.965 114.188 126.1 113.624C130.328 112.497 137.215 112.497 141.443 113.624C143.577 114.188 144.625 114.953 144.625 115.678C144.625 116.403 143.577 117.168 141.443 117.732C137.215 118.86 130.328 118.86 126.1 117.732C123.965 117.168 122.918 116.443 122.918 115.678Z" fill="url(#paint32_linear_2_1014)"/>
<path d="M122.918 114.43C122.918 115.074 123.804 115.718 125.657 116.202C129.281 117.168 135.161 117.168 138.785 116.202C140.597 115.718 141.524 115.074 141.524 114.43V115.88C141.524 116.524 140.597 117.168 138.785 117.652C135.161 118.618 129.281 118.618 125.657 117.652C123.845 117.168 122.918 116.524 122.918 115.88V114.43Z" fill="url(#paint33_linear_2_1014)"/>
<path d="M122.918 114.43C122.918 113.786 123.845 113.141 125.657 112.658C129.281 111.691 135.161 111.691 138.785 112.658C140.597 113.141 141.524 113.786 141.524 114.43C141.524 115.074 140.597 115.719 138.785 116.202C135.161 117.168 129.281 117.168 125.657 116.202C123.804 115.719 122.918 115.074 122.918 114.43Z" fill="url(#paint34_linear_2_1014)"/>
<path d="M130.731 114.188L115.227 76.575" stroke="url(#paint35_linear_2_1014)" stroke-width="3" stroke-miterlimit="10" stroke-linecap="round" stroke-linejoin="round"/>
<path d="M133.389 113.463L117.884 75.8904" stroke="url(#paint36_linear_2_1014)" stroke-width="3" stroke-miterlimit="10" stroke-linecap="round" stroke-linejoin="round"/>
<path d="M132.181 109.758C130.409 109.758 128.999 111.168 128.999 112.94V114.309C128.999 114.51 129.322 114.752 129.926 114.913C131.174 115.235 133.188 115.235 134.436 114.913C135.04 114.752 135.362 114.51 135.362 114.309V112.94C135.362 111.168 133.953 109.758 132.181 109.758Z" fill="url(#paint37_linear_2_1014)"/>
<path d="M117.119 79.7564C118.876 79.7564 120.301 78.332 120.301 76.575C120.301 74.8179 118.876 73.3936 117.119 73.3936C115.362 73.3936 113.938 74.8179 113.938 76.575C113.938 78.332 115.362 79.7564 117.119 79.7564Z" fill="url(#paint38_linear_2_1014)"/>
<path d="M118.126 76.4944L139.712 70.6953" stroke="url(#paint39_linear_2_1014)" stroke-width="3" stroke-miterlimit="10" stroke-linecap="round" stroke-linejoin="round"/>
<path d="M137.98 74.1587L128.234 71.7424C125.657 71.0981 124.086 68.4805 124.731 65.9031C125.375 63.3258 127.993 61.7552 130.57 62.3995L140.316 64.8158C142.893 65.4602 144.464 68.0778 143.819 70.6551C143.215 73.2325 140.598 74.8031 137.98 74.1587Z" fill="url(#paint40_linear_2_1014)"/>
<path d="M142.248 62.923L147.202 63.97L144.02 78.6287L138.825 77.2192C134.959 76.1722 132.664 72.2659 133.59 68.3999C134.476 64.5338 138.342 62.0773 142.248 62.923Z" fill="url(#paint41_linear_2_1014)"/>
<path d="M143.698 78.5483C141.725 78.0248 140.316 75.7696 140.316 72.709C140.316 68.7221 142.692 64.8158 145.631 64.0506C146.316 63.8493 146.96 63.8493 147.564 64.0104C149.538 64.5339 150.947 66.7891 150.947 69.8497C150.947 73.8366 148.571 77.7429 145.631 78.508C144.987 78.7094 144.302 78.7094 143.698 78.5483Z" fill="url(#paint42_linear_2_1014)"/>
<path d="M126.301 67.2321C126.342 67.2321 126.382 67.2321 126.422 67.2321L130.248 68.2388C130.449 68.2791 130.651 68.561 130.651 68.8832C130.651 69.1248 130.53 69.2859 130.409 69.3261C130.369 69.3261 130.329 69.3261 130.288 69.3261L126.462 68.3194C126.261 68.2791 126.06 67.9972 126.06 67.675C126.06 67.4334 126.14 67.2723 126.301 67.2321Z" fill="white"/>
<path d="M127.187 64.6547C127.227 64.6547 127.308 64.6547 127.348 64.6547L131.134 65.7017C131.335 65.742 131.416 66.0642 131.335 66.3461C131.255 66.5877 131.093 66.7488 130.892 66.7891C130.852 66.7891 130.771 66.7891 130.731 66.7891L126.946 65.742C126.744 65.7017 126.664 65.3795 126.744 65.0976C126.825 64.856 126.986 64.6949 127.187 64.6547Z" fill="white"/>
<path d="M145.47 70.6148C145.47 68.7624 143.94 67.2321 142.088 67.2321C142.007 67.2321 141.926 67.2321 141.846 67.2321C140.92 68.8026 140.316 70.7357 140.316 72.7089C140.316 72.9908 140.316 73.2325 140.356 73.5144C140.839 73.7963 141.443 73.9976 142.047 73.9976C143.94 73.9976 145.47 72.4673 145.47 70.6148Z" fill="url(#paint43_linear_2_1014)"/>
<path d="M253.84 152.446C253.84 151.681 254.887 150.956 257.021 150.392C261.29 149.264 268.176 149.264 272.405 150.392C274.539 150.956 275.586 151.721 275.586 152.446C275.586 153.211 274.539 153.936 272.405 154.5C268.136 155.627 261.25 155.627 257.021 154.5C254.887 153.936 253.84 153.171 253.84 152.446Z" fill="url(#paint44_linear_2_1014)"/>
<path d="M253.84 135.451C253.84 136.015 254.645 136.579 256.256 137.022C259.518 137.908 264.753 137.908 268.015 137.022C269.626 136.579 270.432 136.015 270.432 135.451V152.446C270.432 153.01 269.626 153.573 268.015 154.016C264.753 154.902 259.518 154.902 256.256 154.016C254.645 153.573 253.84 153.01 253.84 152.446V135.451Z" fill="url(#paint45_linear_2_1014)"/>
<path d="M257.585 153.493L255.048 150.956C254.726 150.634 254.726 150.11 255.048 149.788C255.37 149.466 255.894 149.466 256.216 149.788L258.753 152.325C259.075 152.647 259.075 153.171 258.753 153.493C258.431 153.815 257.907 153.815 257.585 153.493Z" fill="url(#paint46_linear_2_1014)"/>
<path d="M257.585 142.942L255.048 140.405C254.726 140.082 254.726 139.559 255.048 139.237C255.37 138.915 255.894 138.915 256.216 139.237L258.753 141.774C259.075 142.096 259.075 142.62 258.753 142.942C258.431 143.264 257.907 143.264 257.585 142.942Z" fill="url(#paint47_linear_2_1014)"/>
<path d="M253.84 135.451C253.84 134.888 254.645 134.324 256.256 133.881C259.518 132.995 264.753 132.995 268.015 133.881C269.626 134.324 270.432 134.888 270.432 135.451C270.432 136.015 269.626 136.579 268.015 137.022C264.753 137.908 259.518 137.908 256.256 137.022C254.645 136.619 253.84 136.015 253.84 135.451Z" fill="url(#paint48_linear_2_1014)"/>
<path d="M268.056 136.297C264.794 135.411 259.558 135.411 256.296 136.297C255.853 136.418 255.491 136.539 255.209 136.659C255.531 136.78 255.894 136.901 256.296 137.022C259.558 137.908 264.794 137.908 268.056 137.022C268.499 136.901 268.861 136.78 269.143 136.659C268.821 136.539 268.458 136.418 268.056 136.297Z" fill="url(#paint49_linear_2_1014)"/>
<path d="M255.571 139.841L253.115 140.485C252.551 140.646 252.108 141.371 252.108 142.136V149.949C252.108 150.714 252.551 151.197 253.115 151.036L255.571 150.392" stroke="url(#paint50_linear_2_1014)" stroke-width="5" stroke-miterlimit="10" stroke-linecap="round" stroke-linejoin="round"/>
<path d="M111.682 263.473C111.682 263.473 112.085 268.789 110.958 273.984C109.79 279.139 109.306 281.757 109.387 284.576C109.467 287.394 112.125 291.381 124.569 287.032C132.946 284.092 139.953 281.112 140.235 276.763C140.517 272.414 136.167 272.655 131.335 273.3C127.348 273.823 125.697 263.473 125.697 263.473H111.682Z" fill="url(#paint51_linear_2_1014)"/>
<path d="M106.769 227.994C109.266 250.949 111.441 265.688 111.441 265.688C111.441 265.688 118.327 268.628 126.502 265.447C126.502 265.447 134.355 201.416 135.523 192.395C136.691 183.374 134.838 168.474 122.395 168.152C107.736 167.829 102.823 191.589 106.769 227.994Z" fill="url(#paint52_linear_2_1014)"/>
<path d="M140.235 276.723C140.275 276.32 140.235 275.957 140.195 275.635C140.034 276.199 139.752 276.843 139.228 277.568C137.496 279.944 125.858 285.18 118.086 286.75C114.059 287.556 111.36 286.79 109.629 285.864C110.515 288.361 114.018 290.656 124.569 286.992C132.906 284.052 139.953 281.072 140.235 276.723Z" fill="url(#paint53_linear_2_1014)"/>
<path d="M106.045 111.611C99.078 109.114 75.8818 99.5295 65.7737 96.9118C52.1621 93.368 45.5979 113.262 57.8403 117.45C77.4926 124.135 93.9233 128.484 101.212 129.894C111.965 131.948 118.368 116 106.045 111.611Z" fill="url(#paint54_linear_2_1014)"/>
<path d="M138.503 109.315C138.503 109.315 148.45 106.053 150.262 104.886C152.075 103.718 153.806 102.872 154.612 103.758C154.612 103.758 159.283 102.348 160.048 102.429C160.813 102.469 161.498 103.677 161.498 103.677C161.498 103.677 164.881 103.798 165.888 103.879C166.894 103.959 167.901 104.523 168.223 105.087C168.545 105.651 170.035 108.268 169.915 108.671C169.794 109.033 168.626 109.235 167.78 108.55C166.935 107.866 166.049 106.657 166.049 106.657L163.35 106.698C163.35 106.698 171.526 110.523 171.888 110.846C172.25 111.168 171.566 112.416 169.794 112.134C168.022 111.812 165.082 110.604 165.082 110.604L160.974 110.926C160.974 110.926 157.108 112.698 156.061 114.067C155.014 115.437 157.793 115.718 159.283 115.96C160.773 116.202 162.263 116.323 162.102 117.692C161.901 119.504 160.048 119.182 157.833 119.141C155.578 119.101 152.719 118.98 149.658 117.772C146.598 116.564 142.128 117.813 142.128 117.813L138.503 109.315Z" fill="url(#paint55_linear_2_1014)"/>
<path d="M139.349 107.463C139.349 107.463 111.199 110.121 104.192 111.087C97.1447 112.014 93.1981 118.86 94.8895 124.337C96.5809 129.813 103.145 131.827 113.777 128.726C124.408 125.625 144.342 118.578 144.342 118.578C144.342 118.578 145.269 110 139.349 107.463Z" fill="url(#paint56_linear_2_1014)"/>
<path d="M68.6325 93.3681C68.6325 93.3681 71.8945 88.8174 71.371 82.9378C71.0488 79.3134 67.5452 68.1583 72.2972 59.3792C77.0895 50.6001 91.6274 53.0164 94.9296 57.2448C98.1916 61.4733 99.1983 65.581 98.7956 70.0913C98.3929 74.6017 99.8024 74.7225 100.487 75.8501C101.172 76.9777 98.3526 78.2664 98.3526 78.2664C98.3526 78.2664 98.2721 87.1663 94.5672 89.059C92.7147 89.9853 90.8622 89.4618 90.8622 89.4618L90.6206 96.9119L68.6325 93.3681Z" fill="url(#paint57_linear_2_1014)"/>
<path d="M69.4382 82.1727C64.7667 74.1184 65.3708 66.2656 66.9414 60.8692C68.9549 53.9828 73.5861 53.5399 73.5861 53.5399C73.5861 53.5399 75.7608 48.5462 83.7747 48.1435C90.8624 47.7811 99.118 49.3114 100.608 54.9493C101.897 59.7819 99.6013 61.6344 97.7891 62.1982C96.0977 62.7217 94.7687 63.4466 96.5004 67.7153C98.2321 71.9841 94.0036 74.4809 94.2452 77.5012C94.4868 80.5216 97.3461 78.3066 98.3932 78.3066C99.4402 78.3066 99.1986 82.8976 98.7556 84.6292C97.9099 87.8912 95.8158 89.8645 92.9968 89.3409C89.5738 88.6966 91.7081 82.6157 92.1108 77.3401C92.5136 72.0243 91.99 70.3329 89.4932 69.89C85.6675 69.1651 82.325 75.3266 87.3186 78.9912C88.2851 79.6759 89.3321 82.3338 85.9494 85.7165C82.7679 88.7771 73.1029 88.455 69.4382 82.1727Z" fill="url(#paint58_linear_2_1014)"/>
<path d="M51.3164 298.469C51.3164 295.771 55.6657 293.073 64.324 291.019C81.6808 286.911 109.83 286.911 127.228 291.019C135.926 293.073 140.235 295.771 140.235 298.469C140.235 301.167 135.886 303.865 127.228 305.919C109.871 310.027 81.7211 310.027 64.324 305.919C55.6657 303.865 51.3164 301.167 51.3164 298.469Z" fill="url(#paint59_linear_2_1014)"/>
<path d="M50.8331 294.281C50.8331 296.778 54.377 299.275 61.4647 301.167C75.6402 304.953 98.635 304.953 112.851 301.167C119.938 299.275 123.482 296.778 123.482 294.281V298.268C123.482 300.765 119.938 303.261 112.851 305.154C98.6753 308.94 75.6804 308.94 61.4647 305.154C54.377 303.261 50.8331 300.765 50.8331 298.268V294.281Z" fill="url(#paint60_linear_2_1014)"/>
<path d="M50.8331 294.281C50.8331 291.784 54.3769 289.287 61.4647 287.395C75.6401 283.609 98.6349 283.609 112.851 287.395C119.938 289.287 123.482 291.784 123.482 294.281C123.482 296.778 119.938 299.275 112.851 301.167C98.6752 304.953 75.6804 304.953 61.4647 301.167C54.3769 299.234 50.8331 296.738 50.8331 294.281Z" fill="url(#paint61_linear_2_1014)"/>
<path d="M83.2916 201.214C83.2916 201.496 83.654 201.738 84.4192 201.939C85.9495 202.342 88.3657 202.342 89.896 201.939C90.6612 201.738 91.0236 201.456 91.0236 201.214V293.757C91.0236 294.039 90.6612 294.281 89.896 294.482C88.3657 294.885 85.9495 294.885 84.4192 294.482C83.654 294.281 83.2916 293.999 83.2916 293.757V201.214Z" fill="url(#paint62_linear_2_1014)"/>
<path d="M136.812 201.738C136.369 201.617 135.926 201.617 135.443 201.738L114.663 207.295C109.75 208.624 104.756 208.544 100.125 207.295L55.0617 195.214C59.6929 196.462 64.7268 196.502 69.5996 195.214L90.3795 189.656C90.8225 189.536 91.3057 189.536 91.7487 189.656L136.812 201.738Z" fill="url(#paint63_linear_2_1014)"/>
<path d="M215.341 286.348H166.371V295.489H215.341V286.348Z" fill="url(#paint64_linear_2_1014)"/>
<path d="M98.0308 201.214C84.4191 205.282 52.8465 206.49 45.1145 180.676C45.1145 180.676 92.1915 170.89 103.749 167.83C116.596 164.406 132.181 163.279 134.275 175.964C136.973 192.435 113.978 196.462 98.0308 201.214Z" fill="url(#paint65_linear_2_1014)"/>
<path d="M154.451 272.494C154.451 272.494 154.853 279.743 153.363 285.743C151.672 292.509 154.29 294.885 157.592 295.127C167.74 295.932 181.553 295.127 189.285 293.677C194.078 292.791 193.353 285.985 185.862 284.858C170.761 282.562 168.747 272.575 168.747 272.575L154.451 272.494Z" fill="url(#paint66_linear_2_1014)"/>
<path d="M152.84 290.012C154.612 294.966 183.567 292.63 187.151 291.985C188.802 291.663 192.426 290.737 192.104 289.247C192.708 291.261 191.702 293.234 189.245 293.677C181.513 295.086 167.7 295.932 157.552 295.127C155.095 294.966 153.001 293.556 152.84 290.012Z" fill="url(#paint67_linear_2_1014)"/>
<path d="M55.0216 180.676C55.0216 180.676 60.9415 207.054 92.957 206.49C113.938 206.127 136.812 197.791 138.705 198.919C140.598 200.087 135.282 215.39 143.095 238.103C150.545 259.809 154.129 274.83 154.129 274.83C154.129 274.83 161.136 277.568 169.19 273.34C169.19 273.34 165.445 207.013 164.962 197.912C164.479 188.811 162.385 171.857 141.202 171.857C129.08 171.897 55.0216 180.676 55.0216 180.676Z" fill="url(#paint68_linear_2_1014)"/>
<path d="M61.0621 97.7979C61.0621 97.7979 63.5589 92.2405 65.7738 91.0726C70.2439 88.6966 85.7483 90.4686 90.1781 93.1667C94.608 95.8649 96.0577 102.912 96.0577 102.912L61.0621 97.7979Z" fill="url(#paint69_linear_2_1014)"/>
<path d="M109.871 175.078C109.871 175.078 97.5075 193.603 65.4114 191.549C47.2088 190.381 42.6179 181.32 44.269 177.938C45.9604 174.595 54.4174 148.016 50.6319 123.33C46.8464 98.6437 56.4309 94.9387 64.6462 93.6501C72.8616 92.3614 107.575 94.4152 106.287 113.544C104.998 132.633 95.937 153.211 109.871 175.078Z" fill="url(#paint70_linear_2_1014)"/>
<path d="M60.6593 161.104C59.9747 160.903 59.2096 161.024 58.5652 161.426C57.3571 162.232 56.9947 163.843 57.8001 165.051L79.466 198.355C84.0569 205.443 90.9835 210.316 98.7559 212.369L53.6924 200.288C45.9604 198.194 39.0337 193.361 34.4025 186.274L12.7366 153.01C11.9312 151.802 12.2937 150.151 13.5018 149.385C14.1461 148.942 14.9113 148.862 15.5959 149.063L60.6593 161.104Z" fill="url(#paint71_linear_2_1014)"/>
<path d="M60.6594 161.104C61.2635 161.265 61.8273 161.628 62.1897 162.192L83.8556 195.496C87.7217 201.456 93.561 205.564 100.085 207.295C104.716 208.544 109.75 208.584 114.623 207.295L135.403 201.738C135.846 201.617 136.329 201.617 136.772 201.738C137.658 201.979 138.383 202.664 138.624 203.59C138.987 205 138.181 206.45 136.772 206.812L115.992 212.369C113.092 213.135 110.193 213.497 107.334 213.497C104.394 213.497 101.535 213.094 98.756 212.369C91.0239 210.275 84.0972 205.443 79.4661 198.355L57.8002 165.091C56.9948 163.883 57.3572 162.232 58.5653 161.467C59.2097 161.024 59.9748 160.903 60.6594 161.104Z" fill="url(#paint72_linear_2_1014)"/>
<path d="M184.171 119.786C184.171 119.786 182.721 125.263 182.842 126.713C182.963 128.162 183.929 128.364 184.292 128.042C184.654 127.719 187.191 120.591 187.191 120.591L184.171 119.786Z" fill="url(#paint73_linear_2_1014)"/>
<path d="M165.526 120.591C165.526 120.591 171.888 117.007 176.6 113.987C181.312 110.926 182.721 111.53 183.929 112.134C185.178 112.738 184.896 114.148 184.896 114.148C184.896 114.148 187.312 114.269 187.151 116.645C187.151 116.645 189.97 117.007 189.004 119.424C189.004 119.424 190.816 120.148 189.97 122.484C189.165 124.82 187.997 128.605 187.111 128.807C186.225 129.008 185.54 127.719 185.943 126.068C186.346 124.417 186.628 122.565 186.628 122.565C186.628 122.565 184.654 124.296 182.842 125.384C181.03 126.471 176.318 126.028 172.251 128.122L165.526 120.591Z" fill="url(#paint74_linear_2_1014)"/>
<path d="M166.17 118.9C166.17 118.9 137.779 126.189 131.013 128.364C124.248 130.538 121.872 138.109 124.489 143.224C127.107 148.338 134.799 149.265 144.705 144.351C154.612 139.438 172.976 128.968 172.976 128.968C172.976 128.968 172.452 120.39 166.17 118.9Z" fill="url(#paint75_linear_2_1014)"/>
<path d="M137.336 129.652C131.859 124.699 109.548 107.544 101.011 101.583C92.4734 95.6233 77.0899 109.436 92.554 123.29C108.018 137.143 120.784 142.861 127.227 146.486C136.812 151.882 149.135 140.365 137.336 129.652Z" fill="url(#paint76_linear_2_1014)"/>
<path d="M237.824 296.846C237.824 298.824 240.627 300.785 246.231 302.285C257.457 305.285 275.638 305.285 286.847 302.285C292.452 300.785 295.254 298.807 295.254 296.846V300.143C295.254 302.104 292.452 304.082 286.847 305.582C275.622 308.582 257.44 308.582 246.231 305.582C240.627 304.082 237.824 302.104 237.824 300.143V296.846Z" fill="url(#paint77_linear_2_1014)"/>
<path d="M237.824 296.846C237.824 294.884 240.626 292.906 246.231 291.406C257.456 288.406 275.638 288.406 286.847 291.406C292.452 292.906 295.254 294.884 295.254 296.846C295.254 298.807 292.452 300.785 286.847 302.285C275.622 305.285 257.44 305.285 246.231 302.285C240.626 300.785 237.824 298.824 237.824 296.846Z" fill="url(#paint78_linear_2_1014)"/>
<path d="M270.363 250.774L276.165 248.021C285.874 243.422 292.072 233.647 292.072 222.899V212.679C292.072 210.932 289.583 209.185 284.605 207.85C274.632 205.179 258.478 205.179 248.522 207.85C243.544 209.185 241.055 210.932 241.055 212.679V222.899C241.055 233.647 247.253 243.422 256.962 248.021L262.764 250.774C263.489 251.12 263.951 251.845 263.951 252.653V255.933C263.951 256.741 263.489 257.466 262.764 257.812L256.962 260.565C247.253 265.164 241.055 274.939 241.055 285.686V295.906C241.055 297.653 243.544 299.401 248.522 300.736C258.495 303.406 274.649 303.406 284.605 300.736C289.583 299.401 292.072 297.653 292.072 295.906V285.686C292.072 274.939 285.874 265.164 276.165 260.565L270.363 257.812C269.638 257.466 269.176 256.741 269.176 255.933V252.653C269.16 251.845 269.621 251.12 270.363 250.774Z" fill="url(#paint79_linear_2_1014)"/>
<path d="M284.589 207.85C274.616 205.179 258.462 205.179 248.506 207.85C243.528 209.185 241.039 210.932 241.039 212.679V219.454C241.962 220.79 244.352 222.059 248.209 223.097C258.346 225.817 274.781 225.817 284.918 223.097C288.775 222.059 291.166 220.79 292.089 219.454V212.679C292.056 210.932 289.567 209.185 284.589 207.85Z" fill="url(#paint80_linear_2_1014)"/>
<path d="M292.072 212.679C292.072 214.427 289.583 216.174 284.605 217.509C274.632 220.18 258.478 220.18 248.522 217.509C243.544 216.174 241.055 214.427 241.055 212.679C241.055 210.932 243.544 209.185 248.522 207.85C258.495 205.179 274.649 205.179 284.605 207.85C289.583 209.185 292.072 210.932 292.072 212.679Z" fill="url(#paint81_linear_2_1014)"/>
<path d="M244.863 232.922C247.352 238.641 251.885 243.372 257.803 246.026L264.479 249.026C265.056 249.29 265.418 249.85 265.418 250.493V285.653H267.693V250.543C267.693 249.916 268.056 249.339 268.633 249.076L275.391 246.043C281.309 243.389 285.842 238.658 288.331 232.938H244.863V232.922Z" fill="url(#paint82_linear_2_1014)"/>
<path d="M266.589 238.229C278.706 238.229 288.529 235.595 288.529 232.345C288.529 229.095 278.706 226.46 266.589 226.46C254.472 226.46 244.649 229.095 244.649 232.345C244.649 235.595 254.472 238.229 266.589 238.229Z" fill="url(#paint83_linear_2_1014)"/>
<path d="M242.456 285.192C242.456 288.752 253.236 291.637 266.539 291.637C279.841 291.637 290.622 288.752 290.622 285.192V294.917C290.622 298.478 279.841 301.362 266.539 301.362C253.236 301.362 242.456 298.478 242.456 294.917V285.192Z" fill="url(#paint84_linear_2_1014)"/>
<path d="M266.539 291.637C279.839 291.637 290.622 288.751 290.622 285.192C290.622 281.632 279.839 278.747 266.539 278.747C253.238 278.747 242.456 281.632 242.456 285.192C242.456 288.751 253.238 291.637 266.539 291.637Z" fill="url(#paint85_linear_2_1014)"/>
<path d="M280.583 283.345L268.401 274.823C267.297 274.049 265.813 274.049 264.693 274.823L252.511 283.345C251.489 283.906 250.912 284.532 250.912 285.192C250.912 287.499 257.918 289.379 266.555 289.379C275.193 289.379 282.198 287.499 282.198 285.192C282.182 284.532 281.605 283.906 280.583 283.345Z" fill="url(#paint86_linear_2_1014)"/>
<path d="M251.11 224.4C251.11 232.493 255.33 239.927 262.088 244.114L259.187 242.795C251.621 239.367 246.759 231.834 246.759 223.526V217.493H251.094L251.11 224.4Z" fill="url(#paint87_linear_2_1014)"/>
<path d="M237.824 210.817C237.824 212.795 240.626 214.756 246.231 216.256C257.456 219.257 275.638 219.257 286.847 216.256C292.452 214.756 295.254 212.778 295.254 210.817V214.114C295.254 216.075 292.452 218.053 286.847 219.553C275.638 222.57 257.456 222.57 246.231 219.553C240.626 218.053 237.824 216.075 237.824 214.114V210.817Z" fill="url(#paint88_linear_2_1014)"/>
<path d="M237.824 210.817C237.824 208.855 240.626 206.877 246.231 205.377C257.456 202.377 275.638 202.377 286.847 205.377C292.451 206.877 295.254 208.855 295.254 210.817C295.254 212.778 292.451 214.756 286.847 216.256C275.621 219.256 257.44 219.256 246.231 216.256C240.626 214.756 237.824 212.778 237.824 210.817Z" fill="url(#paint89_linear_2_1014)"/>
<path d="M251.308 285.9C251.308 275.565 256.682 266.087 265.319 260.746L261.627 262.427C251.984 266.796 245.786 276.406 245.786 287.005V296.45H251.308V285.9Z" fill="url(#paint90_linear_2_1014)"/>
<defs>
<linearGradient id="paint0_linear_2_1014" x1="220.196" y1="230.533" x2="220.196" y2="102.332" gradientUnits="userSpaceOnUse">
<stop stop-color="white"/>
<stop offset="1" stop-color="#AEBDDF"/>
</linearGradient>
<linearGradient id="paint1_linear_2_1014" x1="302.174" y1="199.929" x2="302.174" y2="113.348" gradientUnits="userSpaceOnUse">
<stop stop-color="white"/>
<stop offset="1" stop-color="#AEBDDF"/>
</linearGradient>
<linearGradient id="paint2_linear_2_1014" x1="65.6576" y1="181.476" x2="65.6576" y2="101.769" gradientUnits="userSpaceOnUse">
<stop stop-color="white"/>
<stop offset="1" stop-color="#AEBDDF"/>
</linearGradient>
<linearGradient id="paint3_linear_2_1014" x1="184.204" y1="202.619" x2="184.204" y2="161.448" gradientUnits="userSpaceOnUse">
<stop stop-color="white"/>
<stop offset="1" stop-color="#AEBDDF"/>
</linearGradient>
<linearGradient id="paint4_linear_2_1014" x1="184.204" y1="167.988" x2="184.204" y2="21.1169" gradientUnits="userSpaceOnUse">
<stop stop-color="white"/>
<stop offset="1" stop-color="#AEBDDF"/>
</linearGradient>
<linearGradient id="paint5_linear_2_1014" x1="224.842" y1="143.25" x2="218.462" y2="127.216" gradientUnits="userSpaceOnUse">
<stop stop-color="white" stop-opacity="0"/>
<stop offset="1" stop-color="#AEBDDF"/>
</linearGradient>
<linearGradient id="paint6_linear_2_1014" x1="202.08" y1="134.399" x2="202.08" y2="106.423" gradientUnits="userSpaceOnUse">
<stop stop-color="#ACBDDE"/>
<stop offset="1" stop-color="#2E405C"/>
</linearGradient>
<linearGradient id="paint7_linear_2_1014" x1="201.659" y1="132.545" x2="201.659" y2="114.876" gradientUnits="userSpaceOnUse">
<stop stop-color="white"/>
<stop offset="1" stop-color="#AEBDDF"/>
</linearGradient>
<linearGradient id="paint8_linear_2_1014" x1="210.05" y1="-1.50788" x2="210.05" y2="114.624" gradientUnits="userSpaceOnUse">
<stop stop-color="white"/>
<stop offset="1" stop-color="#AEBDDF"/>
</linearGradient>
<linearGradient id="paint9_linear_2_1014" x1="207.866" y1="-14.2721" x2="207.866" y2="118.128" gradientUnits="userSpaceOnUse">
<stop stop-color="#ACBDDE"/>
<stop offset="1" stop-color="#2E405C"/>
</linearGradient>
<linearGradient id="paint10_linear_2_1014" x1="207.595" y1="50.8096" x2="207.595" y2="147.574" gradientUnits="userSpaceOnUse">
<stop stop-color="white"/>
<stop offset="1" stop-color="#AEBDDF"/>
</linearGradient>
<linearGradient id="paint11_linear_2_1014" x1="219.827" y1="160.348" x2="212.213" y2="141.215" gradientUnits="userSpaceOnUse">
<stop stop-color="white" stop-opacity="0"/>
<stop offset="1" stop-color="#AEBDDF"/>
</linearGradient>
<linearGradient id="paint12_linear_2_1014" x1="178.397" y1="150.541" x2="178.397" y2="126.592" gradientUnits="userSpaceOnUse">
<stop stop-color="#ACBDDE"/>
<stop offset="1" stop-color="#2E405C"/>
</linearGradient>
<linearGradient id="paint13_linear_2_1014" x1="178.396" y1="149.123" x2="178.396" y2="127.519" gradientUnits="userSpaceOnUse">
<stop stop-color="white"/>
<stop offset="1" stop-color="#AEBDDF"/>
</linearGradient>
<linearGradient id="paint14_linear_2_1014" x1="178.044" y1="116.981" x2="178.044" y2="169.76" gradientUnits="userSpaceOnUse">
<stop stop-color="#ACBDDE"/>
<stop offset="1" stop-color="#2E405C"/>
</linearGradient>
<linearGradient id="paint15_linear_2_1014" x1="254.967" y1="-18.8419" x2="254.967" y2="68.3497" gradientUnits="userSpaceOnUse">
<stop stop-color="white"/>
<stop offset="1" stop-color="#AEBDDF"/>
</linearGradient>
<linearGradient id="paint16_linear_2_1014" x1="235.798" y1="37.4241" x2="235.798" y2="30.3479" gradientUnits="userSpaceOnUse">
<stop stop-color="#FFEFA4"/>
<stop offset="1" stop-color="#FE8F01"/>
</linearGradient>
<linearGradient id="paint17_linear_2_1014" x1="235.798" y1="33.6869" x2="235.798" y2="25.9942" gradientUnits="userSpaceOnUse">
<stop stop-color="#FFEFA4"/>
<stop offset="1" stop-color="#FE8F01"/>
</linearGradient>
<linearGradient id="paint18_linear_2_1014" x1="270.901" y1="39.1899" x2="198.43" y2="17.9866" gradientUnits="userSpaceOnUse">
<stop stop-color="white"/>
<stop offset="1" stop-color="#AEBDDF"/>
</linearGradient>
<linearGradient id="paint19_linear_2_1014" x1="269.552" y1="43.8004" x2="197.081" y2="22.5968" gradientUnits="userSpaceOnUse">
<stop stop-color="white"/>
<stop offset="1" stop-color="#AEBDDF"/>
</linearGradient>
<linearGradient id="paint20_linear_2_1014" x1="207.594" y1="110.07" x2="207.594" y2="13.4667" gradientUnits="userSpaceOnUse">
<stop stop-color="#79D985"/>
<stop offset="1" stop-color="#027A71"/>
</linearGradient>
<linearGradient id="paint21_linear_2_1014" x1="181.257" y1="128.698" x2="181.257" y2="20.7834" gradientUnits="userSpaceOnUse">
<stop stop-color="#79D985"/>
<stop offset="1" stop-color="#027A71"/>
</linearGradient>
<linearGradient id="paint22_linear_2_1014" x1="207.594" y1="82.3461" x2="207.594" y2="-5.92527" gradientUnits="userSpaceOnUse">
<stop stop-color="#79D985"/>
<stop offset="1" stop-color="#027A71"/>
</linearGradient>
<linearGradient id="paint23_linear_2_1014" x1="202.864" y1="85.6888" x2="202.864" y2="103.719" gradientUnits="userSpaceOnUse">
<stop stop-color="#FFEFA4"/>
<stop offset="1" stop-color="#FE8F01"/>
</linearGradient>
<linearGradient id="paint24_linear_2_1014" x1="242.43" y1="105.812" x2="205.845" y2="93.9709" gradientUnits="userSpaceOnUse">
<stop stop-color="white"/>
<stop offset="1" stop-color="#AEBDDF"/>
</linearGradient>
<linearGradient id="paint25_linear_2_1014" x1="241.645" y1="108.24" x2="205.06" y2="96.3989" gradientUnits="userSpaceOnUse">
<stop stop-color="white"/>
<stop offset="1" stop-color="#AEBDDF"/>
</linearGradient>
<linearGradient id="paint26_linear_2_1014" x1="202.864" y1="70.5841" x2="202.864" y2="87.9699" gradientUnits="userSpaceOnUse">
<stop stop-color="#FFEFA4"/>
<stop offset="1" stop-color="#FE8F01"/>
</linearGradient>
<linearGradient id="paint27_linear_2_1014" x1="248.786" y1="76.696" x2="210.835" y2="84.8935" gradientUnits="userSpaceOnUse">
<stop stop-color="white"/>
<stop offset="1" stop-color="#AEBDDF"/>
</linearGradient>
<linearGradient id="paint28_linear_2_1014" x1="248.611" y1="75.8857" x2="210.66" y2="84.0831" gradientUnits="userSpaceOnUse">
<stop stop-color="white"/>
<stop offset="1" stop-color="#AEBDDF"/>
</linearGradient>
<linearGradient id="paint29_linear_2_1014" x1="202.864" y1="58.0601" x2="202.864" y2="73.0823" gradientUnits="userSpaceOnUse">
<stop stop-color="#FFEFA4"/>
<stop offset="1" stop-color="#FE8F01"/>
</linearGradient>
<linearGradient id="paint30_linear_2_1014" x1="239.537" y1="71.624" x2="203.559" y2="62.5158" gradientUnits="userSpaceOnUse">
<stop stop-color="white"/>
<stop offset="1" stop-color="#AEBDDF"/>
</linearGradient>
<linearGradient id="paint31_linear_2_1014" x1="239.009" y1="73.7115" x2="203.031" y2="64.6032" gradientUnits="userSpaceOnUse">
<stop stop-color="white"/>
<stop offset="1" stop-color="#AEBDDF"/>
</linearGradient>
<linearGradient id="paint32_linear_2_1014" x1="160.544" y1="117.719" x2="133.279" y2="115.657" gradientUnits="userSpaceOnUse">
<stop stop-color="white"/>
<stop offset="1" stop-color="#AEBDDF"/>
</linearGradient>
<linearGradient id="paint33_linear_2_1014" x1="123.437" y1="105.591" x2="135.993" y2="119.53" gradientUnits="userSpaceOnUse">
<stop stop-color="#ACBDDE"/>
<stop offset="1" stop-color="#2E405C"/>
</linearGradient>
<linearGradient id="paint34_linear_2_1014" x1="132.188" y1="110.914" x2="132.188" y2="133.494" gradientUnits="userSpaceOnUse">
<stop stop-color="#ACBDDE"/>
<stop offset="1" stop-color="#2E405C"/>
</linearGradient>
<linearGradient id="paint35_linear_2_1014" x1="114.665" y1="76.1751" x2="131.303" y2="114.593" gradientUnits="userSpaceOnUse">
<stop stop-color="#ACBDDE"/>
<stop offset="1" stop-color="#2E405C"/>
</linearGradient>
<linearGradient id="paint36_linear_2_1014" x1="117.31" y1="75.4682" x2="133.947" y2="113.887" gradientUnits="userSpaceOnUse">
<stop stop-color="#ACBDDE"/>
<stop offset="1" stop-color="#2E405C"/>
</linearGradient>
<linearGradient id="paint37_linear_2_1014" x1="129.402" y1="106.878" x2="133.303" y2="115.887" gradientUnits="userSpaceOnUse">
<stop stop-color="#ACBDDE"/>
<stop offset="1" stop-color="#2E405C"/>
</linearGradient>
<linearGradient id="paint38_linear_2_1014" x1="115.867" y1="73.6681" x2="118.398" y2="79.5137" gradientUnits="userSpaceOnUse">
<stop stop-color="#ACBDDE"/>
<stop offset="1" stop-color="#2E405C"/>
</linearGradient>
<linearGradient id="paint39_linear_2_1014" x1="140.264" y1="70.3012" x2="117.171" y2="74.8125" gradientUnits="userSpaceOnUse">
<stop stop-color="#ACBDDE"/>
<stop offset="1" stop-color="#2E405C"/>
</linearGradient>
<linearGradient id="paint40_linear_2_1014" x1="134.284" y1="52.3856" x2="134.284" y2="77.7698" gradientUnits="userSpaceOnUse">
<stop stop-color="#ACBDDE"/>
<stop offset="1" stop-color="#2E405C"/>
</linearGradient>
<linearGradient id="paint41_linear_2_1014" x1="140.274" y1="57.8483" x2="140.274" y2="86.2513" gradientUnits="userSpaceOnUse">
<stop stop-color="#ACBDDE"/>
<stop offset="1" stop-color="#2E405C"/>
</linearGradient>
<linearGradient id="paint42_linear_2_1014" x1="176.653" y1="71.2987" x2="141.314" y2="71.2987" gradientUnits="userSpaceOnUse">
<stop stop-color="#ACBDDE"/>
<stop offset="1" stop-color="#2E405C"/>
</linearGradient>
<linearGradient id="paint43_linear_2_1014" x1="147.15" y1="70.6139" x2="139.079" y2="70.6139" gradientUnits="userSpaceOnUse">
<stop stop-color="#FFEFA4"/>
<stop offset="1" stop-color="#FE8F01"/>
</linearGradient>
<linearGradient id="paint44_linear_2_1014" x1="271.837" y1="133.644" x2="264.27" y2="153.655" gradientUnits="userSpaceOnUse">
<stop stop-color="white"/>
<stop offset="1" stop-color="#AEBDDF"/>
</linearGradient>
<linearGradient id="paint45_linear_2_1014" x1="252.043" y1="145.268" x2="279.96" y2="144.388" gradientUnits="userSpaceOnUse">
<stop stop-color="#ACBDDE"/>
<stop offset="1" stop-color="#2E405C"/>
</linearGradient>
<linearGradient id="paint46_linear_2_1014" x1="258.486" y1="153.539" x2="255.329" y2="149.737" gradientUnits="userSpaceOnUse">
<stop stop-color="#ACBDDE" stop-opacity="0"/>
<stop offset="1" stop-color="#2E405C"/>
</linearGradient>
<linearGradient id="paint47_linear_2_1014" x1="258.486" y1="142.993" x2="255.329" y2="139.19" gradientUnits="userSpaceOnUse">
<stop stop-color="#ACBDDE" stop-opacity="0"/>
<stop offset="1" stop-color="#2E405C"/>
</linearGradient>
<linearGradient id="paint48_linear_2_1014" x1="268.783" y1="135.46" x2="249.108" y2="135.46" gradientUnits="userSpaceOnUse">
<stop stop-color="#ACBDDE"/>
<stop offset="1" stop-color="#2E405C"/>
</linearGradient>
<linearGradient id="paint49_linear_2_1014" x1="262.161" y1="134.409" x2="262.161" y2="139.977" gradientUnits="userSpaceOnUse">
<stop stop-color="#FFEFA4"/>
<stop offset="1" stop-color="#FE8F01"/>
</linearGradient>
<linearGradient id="paint50_linear_2_1014" x1="253.845" y1="152.098" x2="253.845" y2="138.819" gradientUnits="userSpaceOnUse">
<stop stop-color="#2E405C"/>
<stop offset="1" stop-color="#526381"/>
</linearGradient>
<linearGradient id="paint51_linear_2_1014" x1="126.47" y1="287.423" x2="120.129" y2="260.093" gradientUnits="userSpaceOnUse">
<stop stop-color="white"/>
<stop offset="1" stop-color="#AEBDDF"/>
</linearGradient>
<linearGradient id="paint52_linear_2_1014" x1="271.832" y1="217.551" x2="89.009" y2="217.551" gradientUnits="userSpaceOnUse">
<stop stop-color="#ACBDDE"/>
<stop offset="1" stop-color="#2E405C"/>
</linearGradient>
<linearGradient id="paint53_linear_2_1014" x1="124.015" y1="271.806" x2="125.764" y2="288.86" gradientUnits="userSpaceOnUse">
<stop stop-color="white"/>
<stop offset="1" stop-color="#AEBDDF"/>
</linearGradient>
<linearGradient id="paint54_linear_2_1014" x1="165.968" y1="66.5436" x2="93.4875" y2="107.211" gradientUnits="userSpaceOnUse">
<stop stop-color="#FFEFA4"/>
<stop offset="1" stop-color="#FE8F01"/>
</linearGradient>
<linearGradient id="paint55_linear_2_1014" x1="176.088" y1="97.6688" x2="140.449" y2="120.08" gradientUnits="userSpaceOnUse">
<stop stop-color="#FFD2BB"/>
<stop offset="1" stop-color="#FF6B5A"/>
</linearGradient>
<linearGradient id="paint56_linear_2_1014" x1="176.372" y1="85.0868" x2="103.892" y2="125.754" gradientUnits="userSpaceOnUse">
<stop stop-color="#FFEFA4"/>
<stop offset="1" stop-color="#FE8F01"/>
</linearGradient>
<linearGradient id="paint57_linear_2_1014" x1="91.3173" y1="43.8329" x2="75.8898" y2="114.645" gradientUnits="userSpaceOnUse">
<stop stop-color="#FFD2BB"/>
<stop offset="1" stop-color="#FF6B5A"/>
</linearGradient>
<linearGradient id="paint58_linear_2_1014" x1="83.3591" y1="17.0869" x2="83.3591" y2="88.3255" gradientUnits="userSpaceOnUse">
<stop stop-color="#ACBDDE"/>
<stop offset="1" stop-color="#2E405C"/>
</linearGradient>
<linearGradient id="paint59_linear_2_1014" x1="185.274" y1="298.49" x2="55.1846" y2="298.49" gradientUnits="userSpaceOnUse">
<stop stop-color="white"/>
<stop offset="1" stop-color="#AEBDDF"/>
</linearGradient>
<linearGradient id="paint60_linear_2_1014" x1="57.334" y1="301.121" x2="272.081" y2="301.121" gradientUnits="userSpaceOnUse">
<stop stop-color="white"/>
<stop offset="1" stop-color="#AEBDDF"/>
</linearGradient>
<linearGradient id="paint61_linear_2_1014" x1="87.1779" y1="270.267" x2="87.1779" y2="334.561" gradientUnits="userSpaceOnUse">
<stop stop-color="white"/>
<stop offset="1" stop-color="#AEBDDF"/>
</linearGradient>
<linearGradient id="paint62_linear_2_1014" x1="87.1778" y1="206.444" x2="87.1778" y2="313.741" gradientUnits="userSpaceOnUse">
<stop stop-color="white"/>
<stop offset="1" stop-color="#AEBDDF"/>
</linearGradient>
<linearGradient id="paint63_linear_2_1014" x1="91.3921" y1="157.765" x2="96.9397" y2="207.694" gradientUnits="userSpaceOnUse">
<stop stop-color="white"/>
<stop offset="1" stop-color="#AEBDDF"/>
</linearGradient>
<linearGradient id="paint64_linear_2_1014" x1="209.947" y1="290.902" x2="160.532" y2="290.902" gradientUnits="userSpaceOnUse">
<stop stop-color="white"/>
<stop offset="1" stop-color="#AEBDDF"/>
</linearGradient>
<linearGradient id="paint65_linear_2_1014" x1="271.832" y1="184.487" x2="89.0092" y2="184.487" gradientUnits="userSpaceOnUse">
<stop stop-color="#ACBDDE"/>
<stop offset="1" stop-color="#2E405C"/>
</linearGradient>
<linearGradient id="paint66_linear_2_1014" x1="172.177" y1="297.01" x2="173.386" y2="277.078" gradientUnits="userSpaceOnUse">
<stop stop-color="white"/>
<stop offset="1" stop-color="#AEBDDF"/>
</linearGradient>
<linearGradient id="paint67_linear_2_1014" x1="171.992" y1="271.446" x2="172.595" y2="291.488" gradientUnits="userSpaceOnUse">
<stop stop-color="white"/>
<stop offset="1" stop-color="#AEBDDF"/>
</linearGradient>
<linearGradient id="paint68_linear_2_1014" x1="237.165" y1="223.798" x2="70.0507" y2="223.798" gradientUnits="userSpaceOnUse">
<stop stop-color="#ACBDDE"/>
<stop offset="1" stop-color="#2E405C"/>
</linearGradient>
<linearGradient id="paint69_linear_2_1014" x1="78.5424" y1="116.15" x2="78.5424" y2="71.2168" gradientUnits="userSpaceOnUse">
<stop stop-color="#ACBDDE"/>
<stop offset="1" stop-color="#2E405C"/>
</linearGradient>
<linearGradient id="paint70_linear_2_1014" x1="76.9033" y1="191.884" x2="76.9033" y2="31.0165" gradientUnits="userSpaceOnUse">
<stop stop-color="#FFEFA4"/>
<stop offset="1" stop-color="#FE8F01"/>
</linearGradient>
<linearGradient id="paint71_linear_2_1014" x1="55.5204" y1="130.389" x2="55.5204" y2="207.92" gradientUnits="userSpaceOnUse">
<stop stop-color="white"/>
<stop offset="1" stop-color="#AEBDDF"/>
</linearGradient>
<linearGradient id="paint72_linear_2_1014" x1="98.0504" y1="175.196" x2="98.0504" y2="285.82" gradientUnits="userSpaceOnUse">
<stop stop-color="white"/>
<stop offset="1" stop-color="#AEBDDF"/>
</linearGradient>
<linearGradient id="paint73_linear_2_1014" x1="188.811" y1="121.173" x2="181.213" y2="125.701" gradientUnits="userSpaceOnUse">
<stop stop-color="#FFD2BB"/>
<stop offset="1" stop-color="#FF6B5A"/>
</linearGradient>
<linearGradient id="paint74_linear_2_1014" x1="191.846" y1="115.937" x2="167.824" y2="128.95" gradientUnits="userSpaceOnUse">
<stop stop-color="#FFD2BB"/>
<stop offset="1" stop-color="#FF6B5A"/>
</linearGradient>
<linearGradient id="paint75_linear_2_1014" x1="148.243" y1="191.884" x2="148.243" y2="31.0163" gradientUnits="userSpaceOnUse">
<stop stop-color="#FFEFA4"/>
<stop offset="1" stop-color="#FE8F01"/>
</linearGradient>
<linearGradient id="paint76_linear_2_1014" x1="114.07" y1="191.883" x2="114.07" y2="31.0165" gradientUnits="userSpaceOnUse">
<stop stop-color="#FFEFA4"/>
<stop offset="1" stop-color="#FE8F01"/>
</linearGradient>
<linearGradient id="paint77_linear_2_1014" x1="293.567" y1="302.346" x2="187.623" y2="302.346" gradientUnits="userSpaceOnUse">
<stop stop-color="white"/>
<stop offset="1" stop-color="#AEBDDF"/>
</linearGradient>
<linearGradient id="paint78_linear_2_1014" x1="245.316" y1="296.849" x2="347.986" y2="296.849" gradientUnits="userSpaceOnUse">
<stop stop-color="white"/>
<stop offset="1" stop-color="#AEBDDF"/>
</linearGradient>
<linearGradient id="paint79_linear_2_1014" x1="242.727" y1="254.292" x2="324.494" y2="254.292" gradientUnits="userSpaceOnUse">
<stop stop-color="#79D985" stop-opacity="0.2"/>
<stop offset="1" stop-color="#027A71"/>
</linearGradient>
<linearGradient id="paint80_linear_2_1014" x1="242.727" y1="215.494" x2="324.494" y2="215.494" gradientUnits="userSpaceOnUse">
<stop stop-color="#79D985" stop-opacity="0.2"/>
<stop offset="1" stop-color="#027A71"/>
</linearGradient>
<linearGradient id="paint81_linear_2_1014" x1="230.279" y1="212.684" x2="313.357" y2="212.684" gradientUnits="userSpaceOnUse">
<stop stop-color="#79D985" stop-opacity="0.2"/>
<stop offset="1" stop-color="#027A71"/>
</linearGradient>
<linearGradient id="paint82_linear_2_1014" x1="246.795" y1="259.286" x2="293.94" y2="259.286" gradientUnits="userSpaceOnUse">
<stop stop-color="#79D985"/>
<stop offset="1" stop-color="#027A71"/>
</linearGradient>
<linearGradient id="paint83_linear_2_1014" x1="245.562" y1="232.347" x2="338.738" y2="232.347" gradientUnits="userSpaceOnUse">
<stop stop-color="#79D985"/>
<stop offset="1" stop-color="#027A71"/>
</linearGradient>
<linearGradient id="paint84_linear_2_1014" x1="239.399" y1="293.283" x2="309.949" y2="293.283" gradientUnits="userSpaceOnUse">
<stop stop-color="#79D985"/>
<stop offset="1" stop-color="#027A71"/>
</linearGradient>
<linearGradient id="paint85_linear_2_1014" x1="246.425" y1="285.195" x2="350.94" y2="285.195" gradientUnits="userSpaceOnUse">
<stop stop-color="#79D985"/>
<stop offset="1" stop-color="#027A71"/>
</linearGradient>
<linearGradient id="paint86_linear_2_1014" x1="246.794" y1="281.811" x2="293.939" y2="281.811" gradientUnits="userSpaceOnUse">
<stop stop-color="#79D985"/>
<stop offset="1" stop-color="#027A71"/>
</linearGradient>
<linearGradient id="paint87_linear_2_1014" x1="254.435" y1="223.778" x2="254.435" y2="240.837" gradientUnits="userSpaceOnUse">
<stop stop-color="white" stop-opacity="0.8"/>
<stop offset="1" stop-color="white" stop-opacity="0"/>
</linearGradient>
<linearGradient id="paint88_linear_2_1014" x1="225.596" y1="216.312" x2="325.002" y2="216.312" gradientUnits="userSpaceOnUse">
<stop stop-color="white"/>
<stop offset="1" stop-color="#AEBDDF"/>
</linearGradient>
<linearGradient id="paint89_linear_2_1014" x1="305.707" y1="210.815" x2="215.24" y2="210.815" gradientUnits="userSpaceOnUse">
<stop stop-color="white"/>
<stop offset="1" stop-color="#AEBDDF"/>
</linearGradient>
<linearGradient id="paint90_linear_2_1014" x1="255.557" y1="261.271" x2="255.557" y2="295.216" gradientUnits="userSpaceOnUse">
<stop stop-color="white" stop-opacity="0.8"/>
<stop offset="1" stop-color="white" stop-opacity="0"/>
</linearGradient>
</defs>
</svg>
