<svg width="43" height="42" viewBox="0 0 43 42" fill="none" xmlns="http://www.w3.org/2000/svg">
<path fill-rule="evenodd" clip-rule="evenodd" d="M42.1581 16.5784C42.1581 18.3256 40.7417 19.742 38.9945 19.742C37.2474 19.742 35.8308 18.3256 35.8308 16.5784C35.8308 14.8312 37.2474 13.4146 38.9945 13.4146C40.7417 13.4146 42.1581 14.8312 42.1581 16.5784ZM34.0737 12.0087C35.8208 12.0087 37.2372 10.5923 37.2372 8.84516C37.2372 7.09801 35.8208 5.68164 34.0737 5.68164C32.3265 5.68164 30.9099 7.09801 30.9099 8.84516C30.9099 10.5923 32.3265 12.0087 34.0737 12.0087ZM0.715706 15.3606C3.77264 3.95181 15.5157 -2.30477 27.0523 0.786621C28.8225 1.26072 29.8732 3.08025 29.3989 4.85065C28.9245 6.62082 27.105 7.6713 25.3348 7.19696C17.0696 4.98235 9.16389 9.47303 7.12611 17.0783C5.08384 24.7001 9.68835 32.598 17.9363 34.8081C26.1689 37.0138 34.0473 32.484 36.0954 24.8405C36.5697 23.0704 38.3892 22.0198 40.1594 22.4941C41.9296 22.9685 42.98 24.788 42.5057 26.5582C39.4554 37.9424 27.7879 44.3183 16.2187 41.2184C4.66498 38.1227 -2.33688 26.7528 0.715706 15.3606Z" fill="url(#paint0_linear_2_118)"/>
<defs>
<linearGradient id="paint0_linear_2_118" x1="21.3098" y1="1.47025" x2="21.3098" y2="40.5162" gradientUnits="userSpaceOnUse">
<stop stop-color="#DA2E4E"/>
<stop offset="1" stop-color="#283271"/>
</linearGradient>
</defs>
</svg>
