<svg width="365" height="456" viewBox="0 0 365 456" fill="none" xmlns="http://www.w3.org/2000/svg">
<path d="M174.329 326.074V396.617C174.329 402.044 169.906 406.467 164.479 406.467H114.547" stroke="url(#paint0_linear_2_1447)" stroke-width="6" stroke-miterlimit="10"/>
<path d="M190.061 326.074V396.617C190.061 402.044 194.484 406.467 199.91 406.467H249.797" stroke="url(#paint1_linear_2_1447)" stroke-width="6" stroke-miterlimit="10"/>
<path d="M238.26 406.148C238.26 402.135 243.96 398.122 255.405 395.021C278.297 388.865 315.415 388.865 338.306 395.021C349.752 398.076 355.452 402.089 355.452 406.148C355.452 410.16 349.752 414.173 338.306 417.274C315.415 423.43 278.297 423.43 255.405 417.274C243.96 414.219 238.26 410.16 238.26 406.148Z" fill="url(#paint2_linear_2_1447)"/>
<path d="M244.689 394.976C244.689 398.533 249.797 402.135 259.965 404.871C280.349 410.343 313.363 410.343 333.701 404.871C343.869 402.135 348.977 398.578 348.977 394.976V403.366C348.977 406.923 343.869 410.525 333.701 413.261C313.317 418.733 280.303 418.733 259.965 413.261C249.797 410.525 244.689 406.968 244.689 403.366V394.976Z" fill="url(#paint3_linear_2_1447)"/>
<path d="M244.689 394.976C244.689 391.419 249.797 387.817 259.965 385.081C280.349 379.608 313.363 379.608 333.701 385.081C343.869 387.817 348.977 391.373 348.977 394.976C348.977 398.533 343.869 402.135 333.701 404.871C313.317 410.343 280.303 410.343 259.965 404.871C249.797 402.135 244.689 398.578 244.689 394.976Z" fill="url(#paint4_linear_2_1447)"/>
<path d="M253.992 394.976C253.992 392.057 258.187 389.093 266.532 386.859C283.267 382.39 310.444 382.39 327.18 386.859C335.57 389.093 339.72 392.057 339.72 394.976C339.72 397.894 335.524 400.858 327.18 403.093C310.444 407.561 283.267 407.561 266.532 403.093C258.141 400.858 253.992 397.94 253.992 394.976Z" fill="url(#paint5_linear_2_1447)"/>
<path d="M8.9375 406.148C8.9375 402.135 14.6375 398.122 26.0831 395.021C48.9743 388.865 86.0927 388.865 108.984 395.021C120.429 398.076 126.129 402.089 126.129 406.148C126.129 410.16 120.429 414.173 108.984 417.274C86.0927 423.43 48.9743 423.43 26.0831 417.274C14.6375 414.219 8.9375 410.16 8.9375 406.148Z" fill="url(#paint6_linear_2_1447)"/>
<path d="M15.3672 394.976C15.3672 398.533 20.4744 402.135 30.6432 404.871C51.0264 410.343 84.0408 410.343 104.378 404.871C114.547 402.135 119.654 398.578 119.654 394.976V403.366C119.654 406.923 114.547 410.525 104.378 413.261C83.9952 418.733 50.9808 418.733 30.6432 413.261C20.4744 410.525 15.3672 406.968 15.3672 403.366V394.976Z" fill="url(#paint7_linear_2_1447)"/>
<path d="M15.3672 394.976C15.3672 391.419 20.4744 387.817 30.6432 385.081C51.0264 379.608 84.0408 379.608 104.378 385.081C114.547 387.817 119.654 391.373 119.654 394.976C119.654 398.533 114.547 402.135 104.378 404.871C83.9952 410.343 50.9808 410.343 30.6432 404.871C20.4744 402.135 15.3672 398.578 15.3672 394.976Z" fill="url(#paint8_linear_2_1447)"/>
<path d="M24.6238 394.976C24.6238 392.057 28.819 389.093 37.1638 386.859C53.899 382.39 81.0766 382.39 97.8118 386.859C106.202 389.093 110.352 392.057 110.352 394.976C110.352 397.894 106.157 400.858 97.8118 403.093C81.0766 407.561 53.899 407.561 37.1638 403.093C28.819 400.858 24.6238 397.94 24.6238 394.976Z" fill="url(#paint9_linear_2_1447)"/>
<path d="M301.142 302.225C301.142 310.388 289.514 318.55 266.304 324.752C219.837 337.201 144.552 337.201 98.0855 324.752C74.8751 318.55 63.2471 310.388 63.2471 302.225C63.2471 294.063 74.8751 285.901 98.0855 279.699C144.552 267.25 219.837 267.25 266.304 279.699C289.514 285.901 301.142 294.063 301.142 302.225Z" fill="url(#paint10_linear_2_1447)"/>
<path d="M321.754 301.906C321.754 311.482 308.119 321.058 280.896 328.354C226.404 342.946 138.031 342.946 83.5392 328.354C56.2704 321.058 42.6816 311.482 42.6816 301.906C42.6816 292.33 56.316 282.754 83.5392 275.458C138.031 260.866 226.404 260.866 280.896 275.458C308.119 282.754 321.754 292.33 321.754 301.906Z" stroke="url(#paint11_linear_2_1447)" stroke-width="2" stroke-miterlimit="10"/>
<path d="M360.742 305.873C360.742 318.14 343.322 330.361 308.438 339.709C238.716 358.404 125.674 358.404 55.9511 339.709C21.0671 330.361 3.64795 318.14 3.64795 305.873C3.64795 293.607 21.0671 281.386 55.9511 272.038C125.674 253.342 238.716 253.342 308.438 272.038C343.322 281.386 360.742 293.653 360.742 305.873Z" stroke="url(#paint12_linear_2_1447)" stroke-width="2" stroke-miterlimit="10"/>
<path d="M287.554 295.385C287.554 295.34 287.554 295.34 287.554 295.385L277.339 271.901H87.0049L76.836 295.34V295.385C76.3344 296.48 76.1064 297.62 76.1064 298.76C76.1064 306.056 86.4577 313.306 107.206 318.869C148.656 329.996 215.825 329.996 257.275 318.869C277.978 313.306 288.374 306.056 288.374 298.76C288.329 297.62 288.055 296.525 287.554 295.385Z" fill="url(#paint13_linear_2_1447)"/>
<path d="M239.993 297.985C205.291 304.916 159.098 304.916 124.351 297.985C122.709 297.665 121.113 298.76 120.794 300.447L118.469 314.537C118.195 316.133 119.244 317.684 120.84 317.957C157.457 324.934 206.796 324.934 243.413 317.957C245.009 317.638 246.057 316.133 245.784 314.537L243.458 300.447C243.276 298.76 241.68 297.665 239.993 297.985Z" fill="url(#paint14_linear_2_1447)"/>
<path d="M178.524 317.137C192.797 317.273 207.161 316.635 220.658 315.221" stroke="white" stroke-width="2" stroke-miterlimit="10" stroke-linecap="round" stroke-linejoin="round"/>
<path d="M178.524 310.525C197.585 310.707 216.737 309.521 233.837 306.968" stroke="white" stroke-width="2" stroke-miterlimit="10" stroke-linecap="round" stroke-linejoin="round"/>
<path d="M277.522 273.224C277.522 279.745 268.219 286.311 249.614 291.281C212.405 301.268 152.03 301.268 114.821 291.281C96.216 286.311 86.9136 279.745 86.9136 273.224C86.9136 266.703 96.216 260.137 114.821 255.166C152.03 245.18 212.405 245.18 249.614 255.166C268.219 260.137 277.522 266.703 277.522 273.224Z" fill="url(#paint15_linear_2_1447)"/>
<path d="M247.745 270.351C247.745 274.865 241.361 279.334 228.547 282.754C202.966 289.594 161.424 289.594 135.842 282.754C123.029 279.334 116.645 274.82 116.645 270.351C116.645 265.837 123.029 261.368 135.842 257.948C161.424 251.108 202.966 251.108 228.547 257.948C241.361 261.368 247.745 265.837 247.745 270.351Z" fill="url(#paint16_linear_2_1447)"/>
<path d="M135.842 259.863C161.424 253.023 202.966 253.023 228.547 259.863C240.449 263.055 246.787 267.159 247.654 271.309C247.699 270.989 247.745 270.67 247.745 270.351C247.745 265.837 241.361 261.368 228.547 257.948C202.966 251.108 161.424 251.108 135.842 257.948C123.029 261.368 116.645 265.882 116.645 270.351C116.645 270.67 116.69 270.989 116.736 271.309C117.602 267.113 123.941 263.009 135.842 259.863Z" fill="url(#paint17_linear_2_1447)"/>
<path opacity="0.2" d="M160.74 319.189C164.115 319.189 166.85 316.453 166.85 313.078C166.85 309.703 164.115 306.968 160.74 306.968C157.365 306.968 154.63 309.703 154.63 313.078C154.63 316.453 157.365 319.189 160.74 319.189Z" stroke="white" stroke-width="2" stroke-miterlimit="10" stroke-linecap="round" stroke-linejoin="round"/>
<path d="M160.74 316.954C162.881 316.954 164.616 315.219 164.616 313.078C164.616 310.937 162.881 309.202 160.74 309.202C158.599 309.202 156.864 310.937 156.864 313.078C156.864 315.219 158.599 316.954 160.74 316.954Z" stroke="white" stroke-width="3" stroke-miterlimit="10" stroke-linecap="round" stroke-linejoin="round"/>
<path d="M128.09 310.935C128.821 310.935 129.413 310.343 129.413 309.613C129.413 308.882 128.821 308.29 128.09 308.29C127.36 308.29 126.768 308.882 126.768 309.613C126.768 310.343 127.36 310.935 128.09 310.935Z" fill="white"/>
<path d="M132.377 311.619C133.107 311.619 133.699 311.027 133.699 310.297C133.699 309.566 133.107 308.974 132.377 308.974C131.647 308.974 131.054 309.566 131.054 310.297C131.054 311.027 131.647 311.619 132.377 311.619Z" fill="white"/>
<path opacity="0.2" d="M136.663 312.257C137.394 312.257 137.986 311.665 137.986 310.935C137.986 310.205 137.394 309.613 136.663 309.613C135.933 309.613 135.341 310.205 135.341 310.935C135.341 311.665 135.933 312.257 136.663 312.257Z" fill="white"/>
<path d="M140.95 312.805C141.68 312.805 142.272 312.212 142.272 311.482C142.272 310.752 141.68 310.16 140.95 310.16C140.219 310.16 139.627 310.752 139.627 311.482C139.627 312.212 140.219 312.805 140.95 312.805Z" fill="white"/>
<path d="M292.934 168.845C292.934 161.23 282.127 153.661 260.513 147.869C217.238 136.287 147.151 136.287 103.877 147.869C82.2623 153.661 71.4551 161.276 71.4551 168.845V82.2509C71.4551 74.6357 82.2623 67.0661 103.877 61.2749C147.151 49.6925 217.238 49.6925 260.513 61.2749C282.127 67.0661 292.934 74.6813 292.934 82.2509V168.845Z" fill="url(#paint18_linear_2_1447)"/>
<path d="M116.645 67.8413V270.305V271.263H116.736C117.602 275.413 123.941 279.517 135.842 282.709C161.424 289.549 202.966 289.549 228.547 282.709C240.449 279.517 246.787 275.413 247.654 271.263H247.745V67.8413H116.645Z" fill="url(#paint19_linear_2_1447)"/>
<path d="M116.645 59.2686V79.1958V80.1534H116.736C117.602 84.303 123.941 88.407 135.842 91.599C161.424 98.439 202.966 98.439 228.547 91.599C240.449 88.407 246.787 84.303 247.654 80.1534H247.745V59.2686H116.645Z" fill="url(#paint20_linear_2_1447)"/>
<path d="M106.43 54.4806C106.43 59.679 113.818 64.8774 128.638 68.8446C158.232 76.779 206.203 76.779 235.798 68.8446C250.572 64.8774 258.005 59.679 258.005 54.4806V66.6558C258.005 71.8542 250.618 77.0526 235.798 81.0198C206.203 88.9542 158.232 88.9542 128.638 81.0198C113.863 77.0526 106.43 71.8542 106.43 66.6558V54.4806Z" fill="url(#paint21_linear_2_1447)"/>
<path d="M106.43 54.4805C106.43 49.2821 113.818 44.0837 128.638 40.1166C158.232 32.2278 206.203 32.2278 235.752 40.1166C250.526 44.0837 257.959 49.2821 257.959 54.4805C257.959 59.6789 250.572 64.8773 235.752 68.8445C206.158 76.7789 158.186 76.7789 128.592 68.8445C113.818 64.8773 106.43 59.6789 106.43 54.4805Z" fill="url(#paint22_linear_2_1447)"/>
<path d="M125.993 54.4805C125.993 50.6045 131.465 46.7741 142.455 43.8101C164.388 37.9277 200.002 37.9277 221.981 43.8101C232.971 46.7741 238.443 50.6045 238.443 54.4805C238.443 58.3565 232.971 62.1869 221.981 65.1509C200.047 71.0333 164.434 71.0333 142.455 65.1509C131.465 62.1869 125.993 58.3565 125.993 54.4805Z" fill="url(#paint23_linear_2_1447)"/>
<path d="M135.751 234.509C135.067 234.509 134.474 233.962 134.474 233.233V180.245C134.474 179.561 135.022 178.969 135.751 178.969C136.435 178.969 137.028 179.516 137.028 180.245V233.233C137.028 233.917 136.435 234.509 135.751 234.509Z" fill="url(#paint24_linear_2_1447)"/>
<path d="M222.026 163.966C221.342 163.966 220.75 163.419 220.75 162.689V109.702C220.75 109.018 221.297 108.425 222.026 108.425C222.71 108.425 223.303 108.973 223.303 109.702V162.689C223.303 163.419 222.71 163.966 222.026 163.966Z" fill="url(#paint25_linear_2_1447)"/>
<path d="M229.733 216.634C229.049 216.634 228.456 216.087 228.456 215.357V162.416C228.456 161.732 229.003 161.139 229.733 161.139C230.417 161.139 231.01 161.686 231.01 162.416V215.403C230.964 216.087 230.417 216.634 229.733 216.634Z" fill="url(#paint26_linear_2_1447)"/>
<path d="M192.249 280.565C191.565 280.565 190.973 280.018 190.973 279.289V226.347C190.973 225.663 191.52 225.07 192.249 225.07C192.933 225.07 193.526 225.617 193.526 226.347V279.334C193.526 280.018 192.979 280.565 192.249 280.565Z" fill="url(#paint27_linear_2_1447)"/>
<path d="M166.622 170.943C165.938 170.943 165.345 170.396 165.345 169.666V116.679C165.345 115.995 165.893 115.402 166.622 115.402C167.306 115.402 167.899 115.949 167.899 116.679V169.666C167.899 170.35 167.352 170.943 166.622 170.943Z" fill="url(#paint28_linear_2_1447)"/>
<path d="M148.063 190.414L182.218 181.294L216.326 190.414L182.218 199.58L148.063 190.414Z" fill="url(#paint29_linear_2_1447)"/>
<path d="M148.063 145.088L182.218 154.208V199.58L148.063 190.414V145.088Z" fill="url(#paint30_linear_2_1447)"/>
<path d="M182.218 154.208L216.326 145.088V190.414L182.218 199.58V154.208Z" fill="url(#paint31_linear_2_1447)"/>
<path d="M148.063 145.088L182.218 135.922L216.326 145.088L182.218 154.208L148.063 145.088Z" fill="url(#paint32_linear_2_1447)"/>
<path d="M190.882 170.715L193.435 170.031" stroke="white" stroke-miterlimit="10" stroke-linecap="round" stroke-linejoin="round"/>
<path d="M190.882 174.682L193.435 173.998" stroke="white" stroke-miterlimit="10" stroke-linecap="round" stroke-linejoin="round"/>
<path d="M194.666 181.431C193.937 181.248 193.435 180.428 193.435 179.288V168.8C193.435 167.34 194.301 165.881 195.396 165.608L203.102 163.556C203.376 163.51 203.604 163.51 203.832 163.556C204.561 163.738 205.063 164.559 205.063 165.699V176.187C205.063 177.646 204.197 179.105 203.102 179.379L195.396 181.431C195.168 181.476 194.894 181.476 194.666 181.431Z" stroke="white" stroke-miterlimit="10" stroke-linecap="round" stroke-linejoin="round"/>
<path d="M190.882 178.695L193.435 178.011" stroke="white" stroke-miterlimit="10" stroke-linecap="round" stroke-linejoin="round"/>
<path d="M196.308 165.334V161.869" stroke="white" stroke-miterlimit="10" stroke-linecap="round" stroke-linejoin="round"/>
<path d="M195.441 179.333C195.122 179.242 194.894 178.877 194.894 178.376V168.891C194.894 168.252 195.305 167.614 195.761 167.477L202.692 165.608C202.783 165.562 202.92 165.562 203.011 165.608C203.33 165.699 203.558 166.064 203.558 166.565V176.05C203.558 176.689 203.148 177.327 202.692 177.464L195.761 179.333C195.669 179.333 195.578 179.333 195.441 179.333Z" fill="white"/>
<path d="M199.272 164.559V161.093" stroke="white" stroke-miterlimit="10" stroke-linecap="round" stroke-linejoin="round"/>
<path d="M196.308 184.623V181.157" stroke="white" stroke-miterlimit="10" stroke-linecap="round" stroke-linejoin="round"/>
<path d="M202.19 163.738V160.318" stroke="white" stroke-miterlimit="10" stroke-linecap="round" stroke-linejoin="round"/>
<path d="M199.272 183.848V180.382" stroke="white" stroke-miterlimit="10" stroke-linecap="round" stroke-linejoin="round"/>
<path d="M205.063 166.884L207.617 166.2" stroke="white" stroke-miterlimit="10" stroke-linecap="round" stroke-linejoin="round"/>
<path d="M202.19 183.073V179.607" stroke="white" stroke-miterlimit="10" stroke-linecap="round" stroke-linejoin="round"/>
<path d="M205.063 170.897L207.617 170.213" stroke="white" stroke-miterlimit="10" stroke-linecap="round" stroke-linejoin="round"/>
<path d="M205.063 174.91L207.617 174.226" stroke="white" stroke-miterlimit="10" stroke-linecap="round" stroke-linejoin="round"/>
<path d="M156.682 159.953C156.864 159.908 157.047 159.908 157.229 159.953L173.098 164.194C173.919 164.422 174.603 165.516 174.603 166.656V179.607C174.603 180.473 174.192 181.112 173.645 181.248C173.463 181.294 173.28 181.294 173.098 181.248L157.229 177.008C156.408 176.78 155.724 175.685 155.724 174.545V161.595C155.724 160.728 156.089 160.09 156.682 159.953Z" stroke="white" stroke-miterlimit="10" stroke-linecap="round" stroke-linejoin="round"/>
<path d="M163.111 168.982L167.17 170.076V175.092L163.111 173.998V168.982Z" fill="white"/>
<path d="M163.886 167.568L166.394 168.252V169.894L163.886 169.21V167.568Z" stroke="white" stroke-miterlimit="10" stroke-linecap="round" stroke-linejoin="round"/>
<path d="M161.15 182.708L169.13 184.851V185.808L161.15 183.665V182.708Z" stroke="white" stroke-miterlimit="10" stroke-linecap="round" stroke-linejoin="round"/>
<path d="M163.43 178.695L166.85 179.607V184.212L163.43 183.3V178.695Z" stroke="white" stroke-miterlimit="10" stroke-linecap="round" stroke-linejoin="round"/>
<path d="M165.118 179.151V174.545" stroke="white" stroke-miterlimit="10" stroke-linecap="round" stroke-linejoin="round"/>
<path d="M260.513 104.595C254.995 106.1 249.021 107.376 242.729 108.471C238.989 109.109 236.253 112.392 236.253 116.223V186.857C236.253 191.782 240.722 195.476 245.556 194.564C250.8 193.56 255.816 192.466 260.513 191.189C282.127 185.398 292.934 177.783 292.934 170.213V83.6189C292.934 91.1885 282.127 98.8037 260.513 104.595Z" fill="url(#paint33_linear_2_1447)"/>
<path d="M253.399 120.601C253.399 120.601 266.076 117.956 276.199 113.897" stroke="white" stroke-width="6" stroke-miterlimit="10" stroke-linecap="round" stroke-linejoin="round"/>
<path d="M253.399 128.079C253.399 128.079 259.737 126.756 267.033 124.522" stroke="white" stroke-width="6" stroke-miterlimit="10" stroke-linecap="round" stroke-linejoin="round"/>
<g opacity="0.4">
<path opacity="0.4" d="M280.421 160.976C283.094 151.002 279.758 141.443 272.971 139.625C266.184 137.806 258.516 144.417 255.844 154.391C253.172 164.364 256.507 173.923 263.294 175.742C270.081 177.56 277.749 170.949 280.421 160.976Z" stroke="white" stroke-width="6" stroke-miterlimit="10"/>
</g>
<path d="M263.294 175.731C256.5 173.907 253.171 164.377 255.816 154.39C258.506 144.404 266.167 137.837 272.962 139.616" stroke="white" stroke-width="6" stroke-miterlimit="10" stroke-linecap="round" stroke-linejoin="round"/>
<path d="M128.136 116.177C128.136 112.393 125.4 109.109 121.661 108.425C115.368 107.331 109.394 106.009 103.877 104.549C82.2623 98.7582 71.4551 91.143 71.4551 83.5734V170.168C71.4551 177.783 82.2623 185.353 103.877 191.144C108.573 192.421 113.589 193.515 118.833 194.518C123.667 195.43 128.136 191.737 128.136 186.812V116.177Z" fill="url(#paint34_linear_2_1447)"/>
<path opacity="0.5" d="M82.3992 163.556V156.305" stroke="white" stroke-width="6" stroke-miterlimit="10" stroke-linecap="round" stroke-linejoin="round"/>
<path d="M93.0239 167.933V137.928" stroke="white" stroke-width="6" stroke-miterlimit="10" stroke-linecap="round" stroke-linejoin="round"/>
<path opacity="0.5" d="M103.603 171.08V149.192" stroke="white" stroke-width="6" stroke-miterlimit="10" stroke-linecap="round" stroke-linejoin="round"/>
<path d="M114.228 173.451V131.317" stroke="white" stroke-width="6" stroke-miterlimit="10" stroke-linecap="round" stroke-linejoin="round"/>
<path d="M321.662 260.912C319.519 249.968 315.643 233.324 315.233 227.533C314.594 219.461 326.952 216.178 329.141 227.168C332.333 243.037 333.61 251.29 334.886 259.042C336.437 268.846 323.486 270.214 321.662 260.912Z" fill="url(#paint35_linear_2_1447)"/>
<path d="M320.842 291.646C321.708 281.204 321.48 269.485 321.845 262.234C322.392 252.567 335.753 253.661 334.932 262.234C334.111 270.807 329.414 290.461 329.414 291.646C329.414 292.832 329.825 295.933 330.6 298.349C331.238 300.401 332.196 304.597 332.378 305.509C332.561 306.421 331.01 307.196 330.463 305.828C329.87 304.277 328.548 300.219 328.548 300.219C328.548 300.219 329.551 306.512 329.688 308.381C329.734 309.476 327.773 309.841 327.454 308.062C327.043 305.737 326.222 301.085 326.222 301.085C326.222 301.085 326.542 308.153 326.678 309.704C326.815 311.345 324.626 311.573 324.398 309.977C323.942 306.785 323.395 301.405 323.395 301.405C323.395 301.405 323.304 307.013 323.304 308.929C323.304 310.479 321.298 310.479 321.161 308.974C320.887 306.238 320.614 301.313 320.614 300.31C320.614 299.626 318.379 302.727 316.874 303.457C315.37 304.186 314.138 302.681 315.734 300.812C317.33 298.942 318.242 298.076 318.562 295.887C318.881 293.607 320.75 292.832 320.842 291.646Z" fill="url(#paint36_linear_2_1447)"/>
<path d="M318.562 369.44C318.562 369.44 316.601 384.123 317.102 390.872C317.422 395.204 315.78 395.842 309.396 395.614C303.012 395.386 297.038 391.009 301.553 390.553C308.94 389.777 306.386 384.533 306.934 367.114L318.562 369.44Z" fill="url(#paint37_linear_2_1447)"/>
<path d="M318.288 374.365C318.288 374.365 322.073 359.089 320.614 338.341C319.884 327.989 322.027 320.237 324.581 308.336C328.183 291.646 328.229 278.331 321.754 262.599L302.966 263.648C302.966 263.648 303.559 289.366 304.015 305.463C304.517 323.156 306.295 374.41 306.295 374.41C306.295 374.41 311.038 376.827 318.288 374.365Z" fill="url(#paint38_linear_2_1447)"/>
<path d="M307.481 386.084C308.712 388.729 313.637 390.37 317.148 387.361C320.112 394.611 319.474 399.946 310.354 397.575C304.106 395.933 302.054 394.748 299.273 393.243C296.674 391.829 296.856 388.592 300.413 388.683C306.386 388.82 305.885 385.035 306.523 382.983C306.842 381.98 306.842 384.67 307.481 386.084Z" fill="url(#paint39_linear_2_1447)"/>
<path d="M310.764 396.344C304.517 394.702 302.465 393.517 299.683 392.012C298.543 391.419 297.95 390.461 297.905 389.595C297.084 390.644 297.54 392.331 299.273 393.243C302.054 394.748 304.152 395.933 310.354 397.575C315.734 398.989 318.151 397.712 318.653 394.93C317.695 396.8 315.278 397.529 310.764 396.344Z" fill="url(#paint40_linear_2_1447)"/>
<path d="M295.215 371.036C295.215 371.036 293.254 385.719 293.755 392.468C294.075 396.8 292.433 397.438 286.049 397.21C279.665 396.982 272.323 396.754 270.454 395.614C268.584 394.429 272.232 392.833 276.747 392.377C284.134 391.601 283.039 386.129 283.587 368.71L295.215 371.036Z" fill="url(#paint41_linear_2_1447)"/>
<path d="M294.941 375.961C294.941 375.961 299.729 360.867 298.27 340.119C297.54 329.768 300.139 325.39 304.106 314.309C308.53 301.952 313.044 280.474 308.119 263.648L285.046 267.569C285.046 267.569 280.258 290.917 280.668 307.013C281.17 324.706 282.948 375.961 282.948 375.961C282.948 375.961 287.736 378.377 294.941 375.961Z" fill="url(#paint42_linear_2_1447)"/>
<path d="M294.986 397.393C294.986 397.393 294.758 393.38 293.664 390.325C293.664 390.325 290.746 391.966 287.462 390.826C283.678 389.504 283.951 385.354 282.811 386.084C281.808 386.722 282.674 389.504 277.339 391.054C268.994 393.517 267.034 394.337 267.444 396.617C267.946 399.353 286.14 400.448 290.381 400.448C294.713 400.493 295.078 398.396 294.986 397.393Z" fill="url(#paint43_linear_2_1447)"/>
<path d="M267.626 395.249C267.626 395.295 267.626 395.341 267.626 395.386C268.128 398.122 285.365 398.943 289.651 398.943C292.57 398.943 294.622 398.213 294.986 397.301C294.986 397.347 294.986 397.393 294.986 397.393C295.032 398.35 294.667 400.493 290.426 400.493C286.14 400.493 267.946 399.399 267.49 396.663C267.398 396.116 267.398 395.66 267.626 395.249Z" fill="url(#paint44_linear_2_1447)"/>
<path d="M293.573 218.641C293.573 218.641 298.543 216.771 299.957 214.719C302.054 211.664 302.1 207.469 302.1 207.469H313.454C313.454 207.469 314.184 217.364 320.112 218.869C320.112 218.869 322.21 227.077 308.438 226.347C295.306 225.663 293.573 218.641 293.573 218.641Z" fill="url(#paint45_linear_2_1447)"/>
<path d="M282.674 275.367C283.678 278.149 314.184 284.533 325.949 273.999C325.949 273.999 321.89 262.28 325.31 247.551C329.323 230.132 328.958 222.334 324.17 220.328C322.711 219.735 319.428 218.458 319.428 218.458C320.75 223.52 304.334 225.481 295.397 217.501C290.426 219.461 284.042 222.289 283.45 228.581C282.629 237.565 279.847 239.252 280.759 243.265C281.945 248.645 285.547 248.645 285.593 260.41C285.638 267.706 282.674 275.367 282.674 275.367Z" fill="url(#paint46_linear_2_1447)"/>
<path d="M317.786 200.492C318.151 186.173 306.66 184.532 300.869 187.268C295.078 190.004 295.26 198.349 294.758 200.264C294.257 202.133 293.254 202.361 293.254 202.909C293.254 203.866 294.576 204.003 294.576 204.003C294.576 204.003 293.664 209.977 297.084 211.39C300.914 212.895 317.422 214.81 317.786 200.492Z" fill="url(#paint47_linear_2_1447)"/>
<path d="M296.035 193.287C296.035 193.287 295.26 184.532 304.517 182.571C313.774 180.61 324.262 185.444 323.942 197.482C323.623 209.521 323.806 215.266 327.271 216.862C327.271 216.862 321.48 225.709 309.442 223.702C297.358 221.696 296.354 212.758 298.817 208.016C301.234 203.273 304.061 200.264 302.465 197.117C300.869 193.971 296.309 192.877 297.631 190.141C297.631 190.095 296.719 191.326 296.035 193.287Z" fill="url(#paint48_linear_2_1447)"/>
<path d="M272.916 260.501C275.834 249.74 281.443 231.317 283.723 225.982C286.915 218.549 298.68 221.468 295.716 234.145C292.114 249.603 288.785 257.127 286.277 264.56C282.902 274.683 269.724 272.129 272.916 260.501Z" fill="url(#paint49_linear_2_1447)"/>
<path d="M246.514 233.187C246.514 233.187 245.875 237.337 245.374 238.294C244.872 239.252 244.142 239.069 244.006 238.75C243.869 238.431 244.234 232.822 244.234 232.822L246.514 233.187Z" fill="url(#paint50_linear_2_1447)"/>
<path d="M252.122 242.398C250.025 239.753 246.605 238.705 245.693 237.428C244.781 236.151 243.96 234.373 243.96 234.373C243.96 234.373 243.595 235.695 243.413 236.972C243.185 238.203 242.364 238.887 241.817 238.477C241.27 238.066 241.589 235.148 241.726 233.324C241.862 231.5 243.276 231.545 243.276 231.545C243.367 229.63 245.374 230.177 245.374 230.177C245.966 228.49 247.654 229.129 247.654 229.129C247.654 229.129 245.054 224.66 244.188 223.201C243.413 221.878 245.1 220.465 246.194 222.152C246.742 223.018 250.526 227.533 253.354 231.454C255.77 234.829 256.044 235.695 257.23 236.881C262.93 242.626 271.639 247.505 282.173 257.355C291.749 266.338 280.394 273.862 274.375 269.12C268.63 264.651 257.503 249.238 252.122 242.398Z" fill="url(#paint51_linear_2_1447)"/>
<path d="M45.1895 209.338C45.1895 209.338 47.6063 205.964 47.2415 201.586C47.0135 198.896 44.4143 190.597 47.9255 184.121C51.4823 177.601 62.2895 179.379 64.7063 182.525C67.1231 185.672 67.8527 188.727 67.5791 192.056C67.2599 195.385 68.3087 195.476 68.8559 196.297C69.3575 197.117 67.2599 198.075 67.2599 198.075C67.2599 198.075 67.2143 204.687 64.4783 206.101C63.1103 206.785 61.7423 206.42 61.7423 206.42L61.5599 211.937L45.1895 209.338Z" fill="url(#paint52_linear_2_1447)"/>
<path d="M45.7823 201.039C42.3167 195.065 42.7727 189.229 43.9127 185.216C45.3719 180.109 48.8375 179.789 48.8375 179.789C48.8375 179.789 50.4791 176.096 56.4071 175.777C61.6967 175.503 67.8071 176.643 68.9015 180.838C69.8591 184.441 68.1719 185.809 66.8039 186.219C65.5727 186.584 64.5695 187.131 65.8463 190.323C67.1231 193.469 64.0223 195.339 64.2047 197.573C64.3871 199.808 66.5303 198.166 67.2599 198.166C68.0351 198.166 67.8527 201.586 67.5335 202.863C66.8951 205.28 65.3447 206.739 63.2927 206.374C60.7391 205.873 62.3351 201.404 62.6087 197.437C62.8823 193.469 62.5175 192.238 60.6479 191.873C57.8207 191.326 55.3583 195.932 59.0519 198.622C59.7815 199.124 60.5567 201.085 58.0487 203.593C55.6775 205.918 48.4727 205.69 45.7823 201.039Z" fill="url(#paint53_linear_2_1447)"/>
<path d="M67.6248 239.799C64.1136 235.558 52.896 220.693 47.4696 215.175C40.128 207.742 28.4088 218.002 34.656 225.298C44.688 237.017 53.5344 246.001 57.6384 249.649C63.7032 255.029 73.8264 247.277 67.6248 239.799Z" fill="url(#paint54_linear_2_1447)"/>
<path d="M89.1937 250.606C89.1937 250.606 96.8089 252.293 98.4049 252.202C100.001 252.111 101.415 252.248 101.597 253.114C101.597 253.114 105.108 253.981 105.564 254.3C106.02 254.619 106.02 255.668 106.02 255.668C106.02 255.668 108.163 257.036 108.756 257.446C109.349 257.902 109.805 258.632 109.805 259.133C109.805 259.635 109.759 261.869 109.531 262.052C109.303 262.234 108.483 261.915 108.209 261.14C107.935 260.365 107.799 259.27 107.799 259.27L106.066 258.267C106.066 258.267 109.851 263.785 109.942 264.149C110.033 264.514 109.121 265.061 108.118 264.195C107.115 263.329 105.701 261.459 105.701 261.459L102.965 260.091C102.965 260.091 99.8185 259.772 98.6329 260.228C97.4473 260.729 99.1345 261.961 99.9553 262.69C100.822 263.42 101.734 264.058 101.095 264.879C100.275 265.973 99.2257 265.061 97.8121 264.195C96.3985 263.329 94.6201 262.143 93.1153 260.228C91.6105 258.313 88.2817 257.401 88.2817 257.401L89.1937 250.606Z" fill="url(#paint55_linear_2_1447)"/>
<path d="M90.4704 249.74C90.4704 249.74 71.5008 240.802 66.6216 238.75C61.788 236.698 56.6352 239.571 55.632 243.721C54.6288 247.87 58.0944 251.609 66.0288 253.661C73.9632 255.713 89.376 258.723 89.376 258.723C89.376 258.723 93.252 253.616 90.4704 249.74Z" fill="url(#paint56_linear_2_1447)"/>
<path d="M36.7537 375.961C36.7537 375.961 36.7993 380.612 35.5225 384.989C34.2457 389.413 33.6529 391.647 33.6073 394.064C33.5161 396.481 35.6137 400.083 46.6033 397.028C53.9905 394.976 60.2377 392.787 60.7393 389.048C61.2409 385.309 57.4561 385.537 53.2609 385.582C47.6065 385.628 48.1537 376.736 48.1537 376.736L36.7537 375.961Z" fill="url(#paint57_linear_2_1447)"/>
<path d="M60.6935 389.048C60.7391 388.683 60.7391 388.364 60.7391 388.09C60.5567 388.592 60.2831 389.093 59.7815 389.686C58.1399 391.647 47.7887 395.523 40.9943 396.435C37.4831 396.891 35.1575 396.116 33.7439 395.204C34.3823 397.393 37.3007 399.627 46.6031 397.028C53.9447 394.976 60.1919 392.787 60.6935 389.048Z" fill="url(#paint58_linear_2_1447)"/>
<path d="M30.2328 269.621C30.2328 269.621 28.9104 275.504 30.3696 287.588C32.1024 301.906 36.024 310.661 35.568 313.762C35.112 316.909 34.5192 336.425 35.2488 356.717C35.8416 373.088 36.3888 378.605 36.3888 378.605C39.9 380.84 44.46 380.794 47.9256 378.423L48.1992 378.241C48.1992 378.241 55.3584 323.931 55.5408 319.097C55.7232 314.264 56.4528 269.029 56.4528 269.029L30.2328 269.621Z" fill="url(#paint59_linear_2_1447)"/>
<path d="M70.0873 383.53C70.0873 383.53 70.817 389.777 69.8138 395.067C68.6738 400.995 71.0905 402.91 73.9633 403.001C82.8097 403.184 94.6657 401.725 101.323 400.083C105.427 399.08 104.424 393.197 97.9033 392.605C84.7249 391.419 81.9433 382.892 81.9433 382.892L70.0873 383.53Z" fill="url(#paint60_linear_2_1447)"/>
<path d="M42.6816 268.208L73.416 269.895C73.416 269.895 75.8328 284.761 77.9304 295.203C79.7088 304.186 79.8912 313.945 79.8912 319.599C79.8912 325.253 81.9888 383.576 81.9888 383.576C74.1912 386.54 70.0872 383.576 70.0872 383.576C70.0872 383.576 59.4624 343.721 58.6872 332.048C57.912 320.374 57.912 316.361 56.6808 314.264C54.492 310.525 45.4632 285.809 42.6816 268.208Z" fill="url(#paint61_linear_2_1447)"/>
<path d="M69.5857 398.806C71.4097 403.001 96.3529 399.49 99.4081 398.715C100.822 398.35 103.922 397.393 103.558 396.116C104.196 397.803 103.421 399.581 101.323 400.129C94.7113 401.77 82.8097 403.184 73.9633 403.047C71.8201 402.956 69.9505 401.861 69.5857 398.806Z" fill="url(#paint62_linear_2_1447)"/>
<path d="M39.5808 212.621C39.5808 212.621 41.4504 208.517 43.0464 207.651C46.3752 205.873 57.8664 207.195 61.1952 209.201C64.524 211.208 65.5728 216.452 65.5728 216.452L39.5808 212.621Z" fill="url(#paint63_linear_2_1447)"/>
<path d="M76.0608 272.403C76.0608 272.403 66.576 283.757 42.7728 282.207C29.2752 281.341 25.8552 274.592 27.0864 272.129C28.3176 269.667 34.6104 249.922 31.8288 231.591C29.0472 213.26 36.1152 210.524 42.2256 209.566C48.336 208.609 74.1 210.113 73.1424 224.341C72.1848 238.477 65.7096 256.169 76.0608 272.403Z" fill="url(#paint64_linear_2_1447)"/>
<path d="M98.2223 221.65C93.0239 219.872 72.7775 214.81 65.2079 213.26C57.6383 211.709 49.2023 224.888 63.7943 229.721C78.4319 234.601 90.8351 235.513 96.3071 236.105C104.424 236.926 109.44 225.481 98.2223 221.65Z" fill="url(#paint65_linear_2_1447)"/>
<path d="M127.178 201.085C127.178 201.085 127.817 205.234 128.318 206.192C128.82 207.149 129.549 206.967 129.686 206.648C129.823 206.329 129.458 200.72 129.458 200.72L127.178 201.085Z" fill="url(#paint66_linear_2_1447)"/>
<path d="M114.729 207.149C114.729 207.149 117.876 202.772 120.293 199.397C123.074 195.476 126.859 190.961 127.452 190.095C128.546 188.408 130.234 189.821 129.458 191.144C128.592 192.649 125.993 197.072 125.993 197.072C125.993 197.072 127.68 196.433 128.273 198.121C128.273 198.121 130.279 197.528 130.37 199.489C130.37 199.489 131.83 199.443 131.921 201.267C132.058 203.091 132.377 206.009 131.83 206.42C131.282 206.83 130.462 206.146 130.234 204.915C130.006 203.684 129.686 202.316 129.686 202.316C129.686 202.316 128.866 204.049 127.954 205.371C127.042 206.648 123.667 207.742 121.524 210.341L114.729 207.149Z" fill="url(#paint67_linear_2_1447)"/>
<path d="M114.684 205.827C114.684 205.827 97.4927 219.188 93.5255 222.653C89.5583 226.119 90.1967 232.001 93.4799 234.692C96.7631 237.382 102.281 235.741 107.616 229.493C112.951 223.246 122.345 210.661 122.345 210.661C122.345 210.661 119.426 204.961 114.684 205.827Z" fill="url(#paint68_linear_2_1447)"/>
<defs>
<linearGradient id="paint0_linear_2_1447" x1="134.445" y1="343.977" x2="164.609" y2="408.927" gradientUnits="userSpaceOnUse">
<stop stop-color="#ECF0F8"/>
<stop offset="1" stop-color="#AEBDDF"/>
</linearGradient>
<linearGradient id="paint1_linear_2_1447" x1="229.948" y1="343.977" x2="199.784" y2="408.927" gradientUnits="userSpaceOnUse">
<stop stop-color="#ECF0F8"/>
<stop offset="1" stop-color="#AEBDDF"/>
</linearGradient>
<linearGradient id="paint2_linear_2_1447" x1="296.863" y1="433.96" x2="296.863" y2="398.71" gradientUnits="userSpaceOnUse">
<stop stop-color="white"/>
<stop offset="1" stop-color="#AEBDDF"/>
</linearGradient>
<linearGradient id="paint3_linear_2_1447" x1="296.863" y1="416.784" x2="296.863" y2="369.676" gradientUnits="userSpaceOnUse">
<stop stop-color="white"/>
<stop offset="1" stop-color="#AEBDDF"/>
</linearGradient>
<linearGradient id="paint4_linear_2_1447" x1="296.863" y1="349.871" x2="296.863" y2="440.363" gradientUnits="userSpaceOnUse">
<stop stop-color="white"/>
<stop offset="1" stop-color="#AEBDDF"/>
</linearGradient>
<linearGradient id="paint5_linear_2_1447" x1="296.863" y1="367.179" x2="296.863" y2="449.287" gradientUnits="userSpaceOnUse">
<stop stop-color="#ACBDDE"/>
<stop offset="1" stop-color="#2E405C"/>
</linearGradient>
<linearGradient id="paint6_linear_2_1447" x1="67.5301" y1="432.771" x2="67.5301" y2="398.987" gradientUnits="userSpaceOnUse">
<stop stop-color="white"/>
<stop offset="1" stop-color="#AEBDDF"/>
</linearGradient>
<linearGradient id="paint7_linear_2_1447" x1="67.5302" y1="416.427" x2="67.5302" y2="380.27" gradientUnits="userSpaceOnUse">
<stop stop-color="white"/>
<stop offset="1" stop-color="#AEBDDF"/>
</linearGradient>
<linearGradient id="paint8_linear_2_1447" x1="67.5302" y1="349.871" x2="67.5302" y2="440.363" gradientUnits="userSpaceOnUse">
<stop stop-color="white"/>
<stop offset="1" stop-color="#AEBDDF"/>
</linearGradient>
<linearGradient id="paint9_linear_2_1447" x1="67.53" y1="367.179" x2="67.53" y2="449.287" gradientUnits="userSpaceOnUse">
<stop stop-color="#ACBDDE"/>
<stop offset="1" stop-color="#2E405C"/>
</linearGradient>
<linearGradient id="paint10_linear_2_1447" x1="182.197" y1="348.391" x2="182.197" y2="274.626" gradientUnits="userSpaceOnUse">
<stop stop-color="white"/>
<stop offset="1" stop-color="#AEBDDF"/>
</linearGradient>
<linearGradient id="paint11_linear_2_1447" x1="42.1821" y1="301.909" x2="322.211" y2="301.909" gradientUnits="userSpaceOnUse">
<stop stop-color="#ECF0F8"/>
<stop offset="1" stop-color="#AEBDDF"/>
</linearGradient>
<linearGradient id="paint12_linear_2_1447" x1="3.19195" y1="305.879" x2="361.201" y2="305.879" gradientUnits="userSpaceOnUse">
<stop stop-color="#ECF0F8"/>
<stop offset="1" stop-color="#AEBDDF"/>
</linearGradient>
<linearGradient id="paint13_linear_2_1447" x1="182.197" y1="329.351" x2="182.197" y2="160.691" gradientUnits="userSpaceOnUse">
<stop stop-color="white"/>
<stop offset="1" stop-color="#AEBDDF"/>
</linearGradient>
<linearGradient id="paint14_linear_2_1447" x1="108.325" y1="310.555" x2="254.464" y2="310.555" gradientUnits="userSpaceOnUse">
<stop stop-color="#ACBDDE"/>
<stop offset="1" stop-color="#2E405C"/>
</linearGradient>
<linearGradient id="paint15_linear_2_1447" x1="182.197" y1="226.176" x2="182.197" y2="330.221" gradientUnits="userSpaceOnUse">
<stop stop-color="white"/>
<stop offset="1" stop-color="#AEBDDF"/>
</linearGradient>
<linearGradient id="paint16_linear_2_1447" x1="182.197" y1="176.968" x2="182.197" y2="285.636" gradientUnits="userSpaceOnUse">
<stop stop-color="#79D985"/>
<stop offset="1" stop-color="#027A71"/>
</linearGradient>
<linearGradient id="paint17_linear_2_1447" x1="182.197" y1="226.825" x2="182.197" y2="260.312" gradientUnits="userSpaceOnUse">
<stop stop-color="white"/>
<stop offset="1" stop-color="#AEBDDF"/>
</linearGradient>
<linearGradient id="paint18_linear_2_1447" x1="182.197" y1="141.102" x2="182.197" y2="19.3891" gradientUnits="userSpaceOnUse">
<stop stop-color="#FFEFA4" stop-opacity="0.1"/>
<stop offset="1" stop-color="#FE8F01"/>
</linearGradient>
<linearGradient id="paint19_linear_2_1447" x1="115.958" y1="177.885" x2="277.958" y2="177.885" gradientUnits="userSpaceOnUse">
<stop stop-color="#79D985" stop-opacity="0.2"/>
<stop offset="1" stop-color="#027A71"/>
</linearGradient>
<linearGradient id="paint20_linear_2_1447" x1="53.1487" y1="77.9981" x2="294.698" y2="77.9981" gradientUnits="userSpaceOnUse">
<stop stop-color="#79D985" stop-opacity="0.2"/>
<stop offset="1" stop-color="#027A71"/>
</linearGradient>
<linearGradient id="paint21_linear_2_1447" x1="182.197" y1="83.8248" x2="182.197" y2="25.2101" gradientUnits="userSpaceOnUse">
<stop stop-color="white"/>
<stop offset="1" stop-color="#AEBDDF"/>
</linearGradient>
<linearGradient id="paint22_linear_2_1447" x1="182.197" y1="14.2352" x2="182.197" y2="106.341" gradientUnits="userSpaceOnUse">
<stop stop-color="white"/>
<stop offset="1" stop-color="#AEBDDF"/>
</linearGradient>
<linearGradient id="paint23_linear_2_1447" x1="182.197" y1="10.3096" x2="182.197" y2="99.6667" gradientUnits="userSpaceOnUse">
<stop stop-color="#ACBDDE"/>
<stop offset="1" stop-color="#2E405C"/>
</linearGradient>
<linearGradient id="paint24_linear_2_1447" x1="135.753" y1="180.724" x2="135.753" y2="231.404" gradientUnits="userSpaceOnUse">
<stop stop-color="white" stop-opacity="0.8"/>
<stop offset="1" stop-color="white" stop-opacity="0"/>
</linearGradient>
<linearGradient id="paint25_linear_2_1447" x1="222.022" y1="110.189" x2="222.022" y2="160.869" gradientUnits="userSpaceOnUse">
<stop stop-color="white" stop-opacity="0.8"/>
<stop offset="1" stop-color="white" stop-opacity="0"/>
</linearGradient>
<linearGradient id="paint26_linear_2_1447" x1="229.714" y1="162.87" x2="229.714" y2="213.55" gradientUnits="userSpaceOnUse">
<stop stop-color="white" stop-opacity="0.8"/>
<stop offset="1" stop-color="white" stop-opacity="0"/>
</linearGradient>
<linearGradient id="paint27_linear_2_1447" x1="192.266" y1="226.799" x2="192.266" y2="277.479" gradientUnits="userSpaceOnUse">
<stop stop-color="white" stop-opacity="0.8"/>
<stop offset="1" stop-color="white" stop-opacity="0"/>
</linearGradient>
<linearGradient id="paint28_linear_2_1447" x1="166.632" y1="117.159" x2="166.632" y2="167.839" gradientUnits="userSpaceOnUse">
<stop stop-color="white" stop-opacity="0.8"/>
<stop offset="1" stop-color="white" stop-opacity="0"/>
</linearGradient>
<linearGradient id="paint29_linear_2_1447" x1="182.197" y1="159.799" x2="182.197" y2="193.85" gradientUnits="userSpaceOnUse">
<stop stop-color="white" stop-opacity="0.8"/>
<stop offset="1" stop-color="white" stop-opacity="0"/>
</linearGradient>
<linearGradient id="paint30_linear_2_1447" x1="144.032" y1="172.317" x2="200.22" y2="172.317" gradientUnits="userSpaceOnUse">
<stop stop-color="white" stop-opacity="0.8"/>
<stop offset="1" stop-color="white" stop-opacity="0"/>
</linearGradient>
<linearGradient id="paint31_linear_2_1447" x1="199.253" y1="194.93" x2="199.253" y2="145.516" gradientUnits="userSpaceOnUse">
<stop stop-color="white" stop-opacity="0.8"/>
<stop offset="1" stop-color="white" stop-opacity="0"/>
</linearGradient>
<linearGradient id="paint32_linear_2_1447" x1="182.197" y1="153.295" x2="182.197" y2="121.308" gradientUnits="userSpaceOnUse">
<stop stop-color="white" stop-opacity="0.8"/>
<stop offset="1" stop-color="white" stop-opacity="0"/>
</linearGradient>
<linearGradient id="paint33_linear_2_1447" x1="181.265" y1="139.15" x2="292.825" y2="139.15" gradientUnits="userSpaceOnUse">
<stop stop-color="#FFEFA4" stop-opacity="0.1"/>
<stop offset="1" stop-color="#FE8F01"/>
</linearGradient>
<linearGradient id="paint34_linear_2_1447" x1="182.335" y1="139.15" x2="71.5223" y2="139.15" gradientUnits="userSpaceOnUse">
<stop stop-color="#FFEFA4" stop-opacity="0.1"/>
<stop offset="1" stop-color="#FE8F01"/>
</linearGradient>
<linearGradient id="paint35_linear_2_1447" x1="332.995" y1="349.185" x2="321.8" y2="199.921" gradientUnits="userSpaceOnUse">
<stop stop-color="#FFD2BB"/>
<stop offset="1" stop-color="#FF6B5A"/>
</linearGradient>
<linearGradient id="paint36_linear_2_1447" x1="330.024" y1="349.129" x2="318.791" y2="199.356" gradientUnits="userSpaceOnUse">
<stop stop-color="#FFD2BB"/>
<stop offset="1" stop-color="#FF6B5A"/>
</linearGradient>
<linearGradient id="paint37_linear_2_1447" x1="291.286" y1="378.331" x2="333.569" y2="386.077" gradientUnits="userSpaceOnUse">
<stop stop-color="#FFD2BB"/>
<stop offset="1" stop-color="#FF6B5A"/>
</linearGradient>
<linearGradient id="paint38_linear_2_1447" x1="314.985" y1="407.458" x2="314.985" y2="273.697" gradientUnits="userSpaceOnUse">
<stop stop-color="#ACBDDE"/>
<stop offset="1" stop-color="#2E405C"/>
</linearGradient>
<linearGradient id="paint39_linear_2_1447" x1="299.363" y1="389.289" x2="342.891" y2="393.983" gradientUnits="userSpaceOnUse">
<stop stop-color="white"/>
<stop offset="1" stop-color="#AEBDDF"/>
</linearGradient>
<linearGradient id="paint40_linear_2_1447" x1="291.787" y1="376.447" x2="315.34" y2="400.803" gradientUnits="userSpaceOnUse">
<stop stop-color="white"/>
<stop offset="1" stop-color="#AEBDDF"/>
</linearGradient>
<linearGradient id="paint41_linear_2_1447" x1="257.843" y1="378.741" x2="315.51" y2="389.306" gradientUnits="userSpaceOnUse">
<stop stop-color="#FFD2BB"/>
<stop offset="1" stop-color="#FF6B5A"/>
</linearGradient>
<linearGradient id="paint42_linear_2_1447" x1="295.444" y1="409.184" x2="295.444" y2="274.79" gradientUnits="userSpaceOnUse">
<stop stop-color="#ACBDDE"/>
<stop offset="1" stop-color="#2E405C"/>
</linearGradient>
<linearGradient id="paint43_linear_2_1447" x1="275.797" y1="387.898" x2="303.99" y2="421.443" gradientUnits="userSpaceOnUse">
<stop stop-color="white"/>
<stop offset="1" stop-color="#AEBDDF"/>
</linearGradient>
<linearGradient id="paint44_linear_2_1447" x1="249.546" y1="397.875" x2="293.307" y2="397.875" gradientUnits="userSpaceOnUse">
<stop stop-color="white"/>
<stop offset="1" stop-color="#AEBDDF"/>
</linearGradient>
<linearGradient id="paint45_linear_2_1447" x1="309.295" y1="175.764" x2="305.726" y2="240.238" gradientUnits="userSpaceOnUse">
<stop stop-color="#FFD2BB"/>
<stop offset="1" stop-color="#FF6B5A"/>
</linearGradient>
<linearGradient id="paint46_linear_2_1447" x1="304.328" y1="200.918" x2="304.328" y2="305.133" gradientUnits="userSpaceOnUse">
<stop stop-color="#FFEFA4"/>
<stop offset="1" stop-color="#FE8F01"/>
</linearGradient>
<linearGradient id="paint47_linear_2_1447" x1="306.374" y1="177.674" x2="304.168" y2="238.837" gradientUnits="userSpaceOnUse">
<stop stop-color="#FFD2BB"/>
<stop offset="1" stop-color="#FF6B5A"/>
</linearGradient>
<linearGradient id="paint48_linear_2_1447" x1="311.656" y1="138.287" x2="311.656" y2="217.171" gradientUnits="userSpaceOnUse">
<stop stop-color="#ACBDDE"/>
<stop offset="1" stop-color="#2E405C"/>
</linearGradient>
<linearGradient id="paint49_linear_2_1447" x1="284.309" y1="182.36" x2="284.309" y2="291.583" gradientUnits="userSpaceOnUse">
<stop stop-color="#FFD2BB"/>
<stop offset="1" stop-color="#FF6B5A"/>
</linearGradient>
<linearGradient id="paint50_linear_2_1447" x1="245.736" y1="247.739" x2="245.112" y2="233.286" gradientUnits="userSpaceOnUse">
<stop stop-color="#FFD2BB"/>
<stop offset="1" stop-color="#FF6B5A"/>
</linearGradient>
<linearGradient id="paint51_linear_2_1447" x1="263.705" y1="182.36" x2="263.705" y2="291.584" gradientUnits="userSpaceOnUse">
<stop stop-color="#FFD2BB"/>
<stop offset="1" stop-color="#FF6B5A"/>
</linearGradient>
<linearGradient id="paint52_linear_2_1447" x1="62.0295" y1="172.553" x2="50.5758" y2="225.125" gradientUnits="userSpaceOnUse">
<stop stop-color="#FFD2BB"/>
<stop offset="1" stop-color="#FF6B5A"/>
</linearGradient>
<linearGradient id="paint53_linear_2_1447" x1="19.2085" y1="132.621" x2="62.4863" y2="198.522" gradientUnits="userSpaceOnUse">
<stop stop-color="#ACBDDE"/>
<stop offset="1" stop-color="#2E405C"/>
</linearGradient>
<linearGradient id="paint54_linear_2_1447" x1="107.632" y1="210.517" x2="42.3247" y2="235.677" gradientUnits="userSpaceOnUse">
<stop stop-color="white"/>
<stop offset="1" stop-color="#AEBDDF"/>
</linearGradient>
<linearGradient id="paint55_linear_2_1447" x1="121.866" y1="264.54" x2="79.5177" y2="253.358" gradientUnits="userSpaceOnUse">
<stop stop-color="#FFD2BB"/>
<stop offset="1" stop-color="#FF6B5A"/>
</linearGradient>
<linearGradient id="paint56_linear_2_1447" x1="73.4882" y1="202.88" x2="73.4882" y2="264.44" gradientUnits="userSpaceOnUse">
<stop stop-color="white"/>
<stop offset="1" stop-color="#AEBDDF"/>
</linearGradient>
<linearGradient id="paint57_linear_2_1447" x1="57.5168" y1="383.23" x2="1.8452" y2="394.888" gradientUnits="userSpaceOnUse">
<stop stop-color="white"/>
<stop offset="1" stop-color="#AEBDDF"/>
</linearGradient>
<linearGradient id="paint58_linear_2_1447" x1="46.9407" y1="383.856" x2="47.5061" y2="398.697" gradientUnits="userSpaceOnUse">
<stop stop-color="white"/>
<stop offset="1" stop-color="#AEBDDF"/>
</linearGradient>
<linearGradient id="paint59_linear_2_1447" x1="43.0752" y1="426.463" x2="43.0752" y2="293.649" gradientUnits="userSpaceOnUse">
<stop stop-color="#ACBDDE"/>
<stop offset="1" stop-color="#2E405C"/>
</linearGradient>
<linearGradient id="paint60_linear_2_1447" x1="92.1124" y1="388.388" x2="41.1991" y2="416.224" gradientUnits="userSpaceOnUse">
<stop stop-color="white"/>
<stop offset="1" stop-color="#AEBDDF"/>
</linearGradient>
<linearGradient id="paint61_linear_2_1447" x1="62.3399" y1="423.718" x2="62.3399" y2="292.543" gradientUnits="userSpaceOnUse">
<stop stop-color="#ACBDDE"/>
<stop offset="1" stop-color="#2E405C"/>
</linearGradient>
<linearGradient id="paint62_linear_2_1447" x1="85.2148" y1="381.707" x2="86.7888" y2="399.021" gradientUnits="userSpaceOnUse">
<stop stop-color="white"/>
<stop offset="1" stop-color="#AEBDDF"/>
</linearGradient>
<linearGradient id="paint63_linear_2_1447" x1="52.5449" y1="226.243" x2="52.5449" y2="192.883" gradientUnits="userSpaceOnUse">
<stop stop-color="#ACBDDE"/>
<stop offset="1" stop-color="#2E405C"/>
</linearGradient>
<linearGradient id="paint64_linear_2_1447" x1="51.47" y1="189.141" x2="51.47" y2="326.781" gradientUnits="userSpaceOnUse">
<stop stop-color="white"/>
<stop offset="1" stop-color="#AEBDDF"/>
</linearGradient>
<linearGradient id="paint65_linear_2_1447" x1="80.2633" y1="189.141" x2="80.2633" y2="326.781" gradientUnits="userSpaceOnUse">
<stop stop-color="white"/>
<stop offset="1" stop-color="#AEBDDF"/>
</linearGradient>
<linearGradient id="paint66_linear_2_1447" x1="128.271" y1="213.76" x2="128.509" y2="201.746" gradientUnits="userSpaceOnUse">
<stop stop-color="#FFD2BB"/>
<stop offset="1" stop-color="#FF6B5A"/>
</linearGradient>
<linearGradient id="paint67_linear_2_1447" x1="136.704" y1="187.723" x2="112.199" y2="222.577" gradientUnits="userSpaceOnUse">
<stop stop-color="#FFD2BB"/>
<stop offset="1" stop-color="#FF6B5A"/>
</linearGradient>
<linearGradient id="paint68_linear_2_1447" x1="106.56" y1="189.141" x2="106.56" y2="326.781" gradientUnits="userSpaceOnUse">
<stop stop-color="white"/>
<stop offset="1" stop-color="#AEBDDF"/>
</linearGradient>
</defs>
</svg>
