<svg width="329" height="329" viewBox="0 0 329 329" fill="none" xmlns="http://www.w3.org/2000/svg">
<rect width="329" height="329"/>
<path d="M137.664 268.925H69.1008V277.479H137.664V268.925Z" fill="url(#paint0_linear_2_827)"/>
<path d="M37.1219 262.147L69.1007 270.701V277.479L37.1219 268.925V262.147Z" fill="url(#paint1_linear_2_827)"/>
<path d="M69.1008 270.701L101.08 262.147V268.925L69.1008 277.479V270.701Z" fill="url(#paint2_linear_2_827)"/>
<path d="M37.1219 262.147L69.1008 253.56L101.08 262.147L69.1008 270.701L37.1219 262.147Z" fill="url(#paint3_linear_2_827)"/>
<path d="M24.4554 204.901L120.622 179.141L216.789 204.901L120.622 230.695L24.4554 204.901Z" fill="url(#paint4_linear_2_827)"/>
<path d="M40.0829 196.183L120.622 217.765V225.891L40.0829 204.309V196.183Z" fill="url(#paint5_linear_2_827)"/>
<path d="M120.622 217.765L201.161 196.183V204.309L120.622 225.891V217.765Z" fill="url(#paint6_linear_2_827)"/>
<path d="M40.0829 196.183L120.622 174.6L201.161 196.183L120.622 217.765L40.0829 196.183Z" fill="url(#paint7_linear_2_827)"/>
<path d="M40.0829 181.049L120.622 159.466L201.161 181.049L120.622 202.631L40.0829 181.049Z" fill="url(#paint8_linear_2_827)"/>
<path d="M40.0829 78.4994L120.622 100.082V202.631L40.0829 181.049V78.4994Z" fill="url(#paint9_linear_2_827)"/>
<path d="M120.622 100.082L201.161 78.4994V181.049L120.622 202.631V100.082Z" fill="url(#paint10_linear_2_827)"/>
<path d="M40.0829 78.4994L120.622 56.917L201.161 78.4994L120.622 100.082L40.0829 78.4994Z" fill="url(#paint11_linear_2_827)"/>
<path d="M71.9632 78.3678L120.622 65.3394L169.281 78.3678L120.622 91.4291L71.9632 78.3678Z" fill="url(#paint12_linear_2_827)"/>
<path d="M169.281 78.3678L120.622 65.3394V91.4291L169.281 78.3678Z" fill="url(#paint13_linear_2_827)"/>
<path d="M88.1169 82.7106L120.622 91.4291L153.127 82.7106L120.622 73.9921L88.1169 82.7106Z" fill="url(#paint14_linear_2_827)"/>
<path d="M71.9632 13.489V78.3678L120.622 91.4291L169.281 78.3678V13.489H71.9632Z" fill="url(#paint15_linear_2_827)"/>
<path d="M85.2218 13.489V81.921L120.622 91.4291L156.023 81.921V13.489H85.2218Z" fill="url(#paint16_linear_2_827)"/>
<path d="M89.6633 71.3272C89.3672 71.3272 89.1698 71.0969 89.1698 70.8337V49.7448C89.1698 49.4487 89.4001 49.2513 89.6633 49.2513C89.9594 49.2513 90.1568 49.4816 90.1568 49.7448V70.8337C90.1897 71.0969 89.9594 71.3272 89.6633 71.3272Z" fill="url(#paint17_linear_2_827)"/>
<path d="M135.362 48.692C135.065 48.692 134.868 48.4617 134.868 48.1985V27.1096C134.868 26.8135 135.098 26.6161 135.362 26.6161C135.658 26.6161 135.855 26.8464 135.855 27.1096V48.1985C135.855 48.4946 135.625 48.692 135.362 48.692Z" fill="url(#paint18_linear_2_827)"/>
<path d="M151.581 69.6822C151.285 69.6822 151.088 69.4519 151.088 69.1887V48.0998C151.088 47.8037 151.318 47.6063 151.581 47.6063C151.877 47.6063 152.075 47.8366 152.075 48.0998V69.1887C152.075 69.4519 151.844 69.6822 151.581 69.6822Z" fill="url(#paint19_linear_2_827)"/>
<path d="M126.808 82.4145C126.511 82.4145 126.314 82.1842 126.314 81.921V60.8321C126.314 60.536 126.544 60.3386 126.808 60.3386C127.104 60.3386 127.301 60.5689 127.301 60.8321V81.921C127.301 82.1842 127.071 82.4145 126.808 82.4145Z" fill="url(#paint20_linear_2_827)"/>
<path d="M100.159 51.4885C99.8624 51.4885 99.665 51.2582 99.665 50.995V29.8732C99.665 29.5771 99.8953 29.3797 100.159 29.3797C100.455 29.3797 100.652 29.61 100.652 29.8732V50.9621C100.652 51.2582 100.422 51.4885 100.159 51.4885Z" fill="url(#paint21_linear_2_827)"/>
<path d="M248.688 226.985H243.059V274.248H248.688V226.985Z" fill="url(#paint22_linear_2_827)"/>
<path d="M298.521 212.936H292.891V260.199H298.521V212.936Z" fill="url(#paint23_linear_2_827)"/>
<path d="M154.775 201.041H149.145V248.303H154.775V201.041Z" fill="url(#paint24_linear_2_827)"/>
<path d="M143.638 201.897C143.638 202.338 144.25 202.778 145.499 203.097L241.443 228.796C243.94 229.457 247.979 229.457 250.475 228.796L302.51 214.845C303.759 214.502 304.371 214.086 304.371 213.646V215.946C304.371 216.387 303.759 216.827 302.51 217.146L250.475 231.097C247.979 231.758 243.94 231.758 241.443 231.097L145.499 205.397C144.25 205.055 143.638 204.614 143.638 204.198V201.897Z" fill="url(#paint25_linear_2_827)"/>
<path d="M143.638 201.897C143.638 201.457 144.25 201.016 145.499 200.698L197.534 186.747C200.031 186.086 204.069 186.086 206.566 186.747L302.51 212.446C303.759 212.789 304.371 213.23 304.371 213.646C304.371 214.086 303.759 214.527 302.51 214.845L250.475 228.796C247.979 229.457 243.94 229.457 241.443 228.796L145.499 203.097C144.275 202.778 143.638 202.338 143.638 201.897Z" fill="url(#paint26_linear_2_827)"/>
<path d="M265.845 206.939L236.524 199.083L226.366 201.799L255.688 209.656L265.845 206.939Z" fill="url(#paint27_linear_2_827)"/>
<path d="M246.289 173.554V200.013C246.289 201.897 245.188 202.729 244.331 202.95L238.482 204.492C237.796 204.688 237.062 204.688 236.377 204.492L223.821 201.139C223.356 201.016 223.356 200.331 223.821 200.208L229.377 198.715C230.233 198.471 230.943 197.32 230.943 196.146V169.442L246.289 173.554Z" fill="url(#paint28_linear_2_827)"/>
<path d="M245.775 173.726V199.841C245.775 200.992 245.09 202.118 244.233 202.362L238.163 204.002C237.478 204.174 236.768 204.174 236.107 204.002L223.845 200.722C223.38 200.6 223.38 199.939 223.845 199.817L229.279 198.373C230.135 198.153 230.821 197.027 230.821 195.852V169.712L245.775 173.726Z" fill="url(#paint29_linear_2_827)"/>
<path d="M265.209 200.355C266.213 200.086 266.922 198.936 266.922 197.394V164.131C266.922 162.1 265.723 160.117 264.23 159.726L212.562 145.872C212.219 145.774 211.876 145.774 211.583 145.872L212.513 145.628C212.831 145.554 213.149 145.554 213.492 145.628L265.16 159.481C266.653 159.872 267.852 161.855 267.852 163.886V197.124C267.852 198.691 267.143 199.817 266.139 200.086L265.209 200.355Z" fill="url(#paint30_linear_2_827)"/>
<path d="M265.209 200.355C264.891 200.429 264.573 200.429 264.23 200.355L212.562 186.502C211.069 186.11 209.87 184.128 209.87 182.096V148.834C209.87 147.267 210.579 146.142 211.583 145.872C211.901 145.799 212.219 145.799 212.562 145.872L264.23 159.726C265.723 160.117 266.923 162.1 266.923 164.131V197.394C266.947 198.936 266.213 200.086 265.209 200.355Z" fill="url(#paint31_linear_2_827)"/>
<path d="M212.17 147.757C212.341 147.708 212.513 147.708 212.684 147.757L263.838 161.463C264.622 161.684 265.282 162.712 265.282 163.813L265.209 196.904C265.209 197.736 264.842 198.348 264.303 198.471C264.132 198.52 263.961 198.52 263.789 198.471L212.635 184.764C211.852 184.544 211.191 183.516 211.191 182.415L211.264 149.299C211.264 148.516 211.632 147.904 212.17 147.757Z" fill="url(#paint32_linear_2_827)"/>
<path d="M266.115 216.558L231.114 207.184L218.999 210.439L253.975 219.789L266.115 216.558Z" fill="url(#paint33_linear_2_827)"/>
<path d="M194.327 203.048C194.327 203.146 194.45 203.219 194.719 203.292L233.537 213.695C234.051 213.841 234.883 213.841 235.397 213.695L246.265 210.782C246.509 210.709 246.656 210.635 246.656 210.537V211.198C246.656 211.296 246.534 211.369 246.265 211.443L235.397 214.355C234.883 214.502 234.051 214.502 233.537 214.355L194.719 203.953C194.45 203.88 194.327 203.782 194.327 203.709V203.048Z" fill="url(#paint34_linear_2_827)"/>
<path d="M194.327 203.048C194.327 202.95 194.45 202.876 194.719 202.803L205.586 199.89C206.1 199.743 206.932 199.743 207.446 199.89L246.265 210.292C246.534 210.366 246.656 210.464 246.656 210.537C246.656 210.635 246.534 210.709 246.265 210.782L235.398 213.695C234.884 213.841 234.051 213.841 233.537 213.695L194.719 203.292C194.45 203.219 194.327 203.121 194.327 203.048Z" fill="url(#paint35_linear_2_827)"/>
<path d="M206.345 201.604L205.439 201.359C205.292 201.31 205.292 201.261 205.439 201.212L206.345 200.967C206.491 200.918 206.761 200.918 206.908 200.967L207.813 201.212C207.96 201.261 207.96 201.31 207.813 201.359L206.908 201.604C206.736 201.628 206.491 201.628 206.345 201.604ZM209.331 202.24L210.236 201.995C210.383 201.946 210.383 201.897 210.236 201.848L209.331 201.604C209.184 201.555 208.915 201.555 208.768 201.604L207.862 201.848C207.715 201.897 207.715 201.946 207.862 201.995L208.768 202.24C208.939 202.289 209.184 202.289 209.331 202.24ZM211.778 202.901L212.684 202.656C212.831 202.607 212.831 202.558 212.684 202.509L211.778 202.264C211.631 202.216 211.362 202.216 211.215 202.264L210.31 202.509C210.163 202.558 210.163 202.607 210.31 202.656L211.215 202.901C211.387 202.95 211.631 202.95 211.778 202.901ZM214.226 203.562L215.131 203.317C215.278 203.268 215.278 203.219 215.131 203.17L214.226 202.925C214.079 202.876 213.81 202.876 213.663 202.925L212.757 203.17C212.61 203.219 212.61 203.268 212.757 203.317L213.663 203.562C213.81 203.611 214.079 203.611 214.226 203.562ZM216.673 204.223L217.579 203.978C217.726 203.929 217.726 203.88 217.579 203.831L216.673 203.586C216.527 203.537 216.257 203.537 216.11 203.586L215.205 203.831C215.058 203.88 215.058 203.929 215.205 203.978L216.11 204.223C216.257 204.247 216.502 204.247 216.673 204.223ZM219.096 204.859L220.002 204.614C220.149 204.565 220.149 204.516 220.002 204.467L219.096 204.223C218.95 204.174 218.68 204.174 218.534 204.223L217.628 204.467C217.481 204.516 217.481 204.565 217.628 204.614L218.534 204.859C218.705 204.908 218.95 204.908 219.096 204.859ZM221.544 205.52L222.45 205.275C222.597 205.226 222.597 205.177 222.45 205.128L221.544 204.883C221.397 204.834 221.128 204.834 220.981 204.883L220.076 205.128C219.929 205.177 219.929 205.226 220.076 205.275L220.981 205.52C221.152 205.569 221.397 205.569 221.544 205.52ZM223.992 206.181L224.897 205.936C225.044 205.887 225.044 205.838 224.897 205.789L223.992 205.544C223.845 205.495 223.576 205.495 223.429 205.544L222.523 205.789C222.376 205.838 222.376 205.887 222.523 205.936L223.429 206.181C223.6 206.23 223.845 206.23 223.992 206.181ZM226.439 206.841L227.345 206.597C227.492 206.548 227.492 206.499 227.345 206.45L226.439 206.205C226.292 206.156 226.023 206.156 225.876 206.205L224.971 206.45C224.824 206.499 224.824 206.548 224.971 206.597L225.876 206.841C226.023 206.866 226.292 206.866 226.439 206.841ZM228.887 207.478L229.792 207.233C229.939 207.184 229.939 207.135 229.792 207.086L228.887 206.841C228.74 206.792 228.471 206.792 228.324 206.841L227.418 207.086C227.271 207.135 227.271 207.184 227.418 207.233L228.324 207.478C228.471 207.527 228.715 207.527 228.887 207.478ZM231.334 208.139L232.24 207.894C232.387 207.845 232.387 207.796 232.24 207.747L231.334 207.502C231.188 207.453 230.918 207.453 230.771 207.502L229.866 207.747C229.719 207.796 229.719 207.845 229.866 207.894L230.771 208.139C230.918 208.188 231.163 208.188 231.334 208.139ZM233.757 208.799L234.663 208.555C234.81 208.506 234.81 208.457 234.663 208.408L233.757 208.163C233.611 208.114 233.341 208.114 233.195 208.163L232.289 208.408C232.142 208.457 232.142 208.506 232.289 208.555L233.195 208.799C233.366 208.848 233.611 208.848 233.757 208.799ZM236.205 209.46L237.111 209.216C237.257 209.167 237.257 209.118 237.111 209.069L236.205 208.824C236.058 208.775 235.789 208.775 235.642 208.824L234.737 209.069C234.59 209.118 234.59 209.167 234.737 209.216L235.642 209.46C235.813 209.485 236.058 209.485 236.205 209.46ZM238.653 210.097L239.558 209.852C239.705 209.803 239.705 209.754 239.558 209.705L238.653 209.46C238.506 209.411 238.237 209.411 238.09 209.46L237.184 209.705C237.037 209.754 237.037 209.803 237.184 209.852L238.09 210.097C238.261 210.146 238.506 210.146 238.653 210.097ZM241.1 210.758L242.006 210.513C242.153 210.464 242.153 210.415 242.006 210.366L241.1 210.121C240.953 210.072 240.684 210.072 240.537 210.121L239.632 210.366C239.485 210.415 239.485 210.464 239.632 210.513L240.537 210.758C240.684 210.806 240.953 210.806 241.1 210.758ZM204.901 203.586L206.051 203.268C206.149 203.243 206.149 203.195 206.051 203.17L202.208 202.142C202.11 202.118 201.988 202.118 201.89 202.142L200.74 202.46C200.642 202.485 200.642 202.534 200.74 202.558L204.582 203.586C204.68 203.586 204.803 203.586 204.901 203.586ZM207.201 204.125L208.107 203.88C208.254 203.831 208.254 203.782 208.107 203.733L207.201 203.488C207.054 203.439 206.785 203.439 206.638 203.488L205.733 203.733C205.586 203.782 205.586 203.831 205.733 203.88L206.638 204.125C206.81 204.174 207.054 204.174 207.201 204.125ZM209.649 204.785L210.554 204.541C210.701 204.492 210.701 204.443 210.554 204.394L209.649 204.149C209.502 204.1 209.233 204.1 209.086 204.149L208.18 204.394C208.033 204.443 208.033 204.492 208.18 204.541L209.086 204.785C209.257 204.834 209.502 204.834 209.649 204.785ZM212.096 205.446L213.002 205.202C213.149 205.153 213.149 205.104 213.002 205.055L212.096 204.81C211.95 204.761 211.68 204.761 211.533 204.81L210.628 205.055C210.481 205.104 210.481 205.153 210.628 205.202L211.533 205.446C211.705 205.471 211.95 205.471 212.096 205.446ZM214.544 206.083L215.45 205.838C215.596 205.789 215.596 205.74 215.45 205.691L214.544 205.446C214.397 205.397 214.128 205.397 213.981 205.446L213.075 205.691C212.929 205.74 212.929 205.789 213.075 205.838L213.981 206.083C214.128 206.132 214.397 206.132 214.544 206.083ZM216.992 206.744L217.897 206.499C218.044 206.45 218.044 206.401 217.897 206.352L216.992 206.107C216.845 206.058 216.575 206.058 216.429 206.107L215.523 206.352C215.376 206.401 215.376 206.45 215.523 206.499L216.429 206.744C216.575 206.792 216.82 206.792 216.992 206.744ZM219.439 207.404L220.345 207.16C220.492 207.111 220.492 207.062 220.345 207.013L219.439 206.768C219.292 206.719 219.023 206.719 218.876 206.768L217.971 207.013C217.824 207.062 217.824 207.111 217.971 207.16L218.876 207.404C219.023 207.453 219.268 207.453 219.439 207.404ZM221.862 208.065L222.768 207.82C222.915 207.772 222.915 207.723 222.768 207.674L221.862 207.429C221.715 207.38 221.446 207.38 221.299 207.429L220.394 207.674C220.247 207.723 220.247 207.772 220.394 207.82L221.299 208.065C221.471 208.09 221.715 208.09 221.862 208.065ZM224.31 208.702L225.215 208.457C225.362 208.408 225.362 208.359 225.215 208.31L224.31 208.065C224.163 208.016 223.894 208.016 223.747 208.065L222.841 208.31C222.694 208.359 222.694 208.408 222.841 208.457L223.747 208.702C223.918 208.751 224.163 208.751 224.31 208.702ZM226.757 209.362L227.663 209.118C227.81 209.069 227.81 209.02 227.663 208.971L226.757 208.726C226.611 208.677 226.341 208.677 226.194 208.726L225.289 208.971C225.142 209.02 225.142 209.069 225.289 209.118L226.194 209.362C226.366 209.411 226.611 209.411 226.757 209.362ZM229.205 210.023L230.111 209.779C230.257 209.73 230.257 209.681 230.111 209.632L229.205 209.387C229.058 209.338 228.789 209.338 228.642 209.387L227.736 209.632C227.59 209.681 227.59 209.73 227.736 209.779L228.642 210.023C228.789 210.072 229.058 210.072 229.205 210.023ZM231.653 210.684L232.558 210.439C232.705 210.39 232.705 210.341 232.558 210.292L231.653 210.048C231.506 209.999 231.236 209.999 231.09 210.048L230.184 210.292C230.037 210.341 230.037 210.39 230.184 210.439L231.09 210.684C231.236 210.709 231.481 210.709 231.653 210.684ZM236.401 212.03L237.6 211.712C237.674 211.688 237.674 211.663 237.6 211.639L233.953 210.66C233.88 210.635 233.757 210.635 233.684 210.66L232.485 210.978C232.411 211.002 232.411 211.027 232.485 211.051L236.132 212.03C236.181 212.055 236.327 212.055 236.401 212.03ZM205.831 202.558L206.932 202.264C207.03 202.24 207.03 202.191 206.932 202.167L204.533 201.53C204.436 201.506 204.264 201.506 204.166 201.53L203.065 201.824C202.967 201.848 202.967 201.897 203.065 201.922L205.464 202.558C205.586 202.583 205.733 202.583 205.831 202.558ZM208.376 203.195L209.282 202.95C209.429 202.901 209.429 202.852 209.282 202.803L208.376 202.558C208.229 202.509 207.96 202.509 207.813 202.558L206.908 202.803C206.761 202.852 206.761 202.901 206.908 202.95L207.813 203.195C207.985 203.243 208.229 203.243 208.376 203.195ZM210.824 203.855L211.729 203.611C211.876 203.562 211.876 203.513 211.729 203.464L210.824 203.219C210.677 203.17 210.408 203.17 210.261 203.219L209.355 203.464C209.208 203.513 209.208 203.562 209.355 203.611L210.261 203.855C210.432 203.88 210.677 203.88 210.824 203.855ZM213.271 204.492L214.177 204.247C214.324 204.198 214.324 204.149 214.177 204.1L213.271 203.855C213.124 203.806 212.855 203.806 212.708 203.855L211.803 204.1C211.656 204.149 211.656 204.198 211.803 204.247L212.708 204.492C212.855 204.541 213.124 204.541 213.271 204.492ZM215.719 205.153L216.624 204.908C216.771 204.859 216.771 204.81 216.624 204.761L215.719 204.516C215.572 204.467 215.303 204.467 215.156 204.516L214.25 204.761C214.103 204.81 214.103 204.859 214.25 204.908L215.156 205.153C215.303 205.202 215.548 205.202 215.719 205.153ZM218.166 205.813L219.072 205.569C219.219 205.52 219.219 205.471 219.072 205.422L218.166 205.177C218.02 205.128 217.75 205.128 217.603 205.177L216.698 205.422C216.551 205.471 216.551 205.52 216.698 205.569L217.603 205.813C217.75 205.862 217.995 205.862 218.166 205.813ZM220.59 206.474L221.495 206.23C221.642 206.181 221.642 206.132 221.495 206.083L220.59 205.838C220.443 205.789 220.173 205.789 220.027 205.838L219.121 206.083C218.974 206.132 218.974 206.181 219.121 206.23L220.027 206.474C220.198 206.499 220.443 206.499 220.59 206.474ZM223.037 207.111L223.943 206.866C224.09 206.817 224.09 206.768 223.943 206.719L223.037 206.474C222.89 206.425 222.621 206.425 222.474 206.474L221.569 206.719C221.422 206.768 221.422 206.817 221.569 206.866L222.474 207.111C222.645 207.16 222.89 207.16 223.037 207.111ZM225.485 207.771L226.39 207.527C226.537 207.478 226.537 207.429 226.39 207.38L225.485 207.135C225.338 207.086 225.069 207.086 224.922 207.135L224.016 207.38C223.869 207.429 223.869 207.478 224.016 207.527L224.922 207.771C225.093 207.82 225.338 207.82 225.485 207.771ZM227.932 208.432L228.838 208.188C228.985 208.139 228.985 208.09 228.838 208.041L227.932 207.796C227.785 207.747 227.516 207.747 227.369 207.796L226.464 208.041C226.317 208.09 226.317 208.139 226.464 208.188L227.369 208.432C227.516 208.481 227.785 208.481 227.932 208.432ZM230.38 209.093L231.285 208.848C231.432 208.799 231.432 208.751 231.285 208.702L230.38 208.457C230.233 208.408 229.964 208.408 229.817 208.457L228.911 208.702C228.764 208.751 228.764 208.799 228.911 208.848L229.817 209.093C229.964 209.118 230.208 209.118 230.38 209.093ZM232.827 209.73L233.733 209.485C233.88 209.436 233.88 209.387 233.733 209.338L232.827 209.093C232.681 209.044 232.411 209.044 232.264 209.093L231.359 209.338C231.212 209.387 231.212 209.436 231.359 209.485L232.264 209.73C232.411 209.779 232.656 209.779 232.827 209.73ZM235.25 210.39L236.156 210.146C236.303 210.097 236.303 210.048 236.156 209.999L235.25 209.754C235.104 209.705 234.834 209.705 234.688 209.754L233.782 209.999C233.635 210.048 233.635 210.097 233.782 210.146L234.688 210.39C234.859 210.439 235.104 210.439 235.25 210.39ZM238.751 211.394L239.876 211.1C239.974 211.076 239.974 211.027 239.876 211.002L237.576 210.39C237.478 210.366 237.331 210.366 237.233 210.39L236.107 210.684C236.009 210.709 236.009 210.758 236.107 210.782L238.408 211.394C238.506 211.418 238.653 211.418 238.751 211.394ZM201.229 203.806L202.331 203.513C202.429 203.488 202.429 203.439 202.331 203.415L199.932 202.778C199.834 202.754 199.663 202.754 199.565 202.778L198.463 203.072C198.366 203.097 198.366 203.146 198.463 203.17L200.862 203.806C200.96 203.831 201.131 203.831 201.229 203.806ZM203.775 204.418L204.68 204.174C204.827 204.125 204.827 204.076 204.68 204.027L203.775 203.782C203.628 203.733 203.359 203.733 203.212 203.782L202.306 204.027C202.159 204.076 202.159 204.125 202.306 204.174L203.212 204.418C203.383 204.467 203.628 204.467 203.775 204.418ZM206.222 205.079L207.128 204.834C207.275 204.785 207.275 204.737 207.128 204.688L206.222 204.443C206.075 204.394 205.806 204.394 205.659 204.443L204.754 204.688C204.607 204.737 204.607 204.785 204.754 204.834L205.659 205.079C205.806 205.128 206.075 205.128 206.222 205.079ZM218.411 208.359L219.39 208.09C219.537 208.041 219.537 207.992 219.39 207.967L208.645 205.079C208.498 205.03 208.278 205.03 208.131 205.079L207.152 205.348C207.005 205.397 207.005 205.446 207.152 205.471L217.897 208.359C218.044 208.408 218.264 208.408 218.411 208.359ZM220.883 209.02L221.789 208.775C221.936 208.726 221.936 208.677 221.789 208.628L220.883 208.383C220.736 208.334 220.467 208.334 220.32 208.383L219.415 208.628C219.268 208.677 219.268 208.726 219.415 208.775L220.32 209.02C220.467 209.044 220.712 209.044 220.883 209.02ZM223.331 209.656L224.236 209.411C224.383 209.362 224.383 209.313 224.236 209.265L223.331 209.02C223.184 208.971 222.915 208.971 222.768 209.02L221.862 209.265C221.715 209.313 221.715 209.362 221.862 209.411L222.768 209.656C222.915 209.705 223.159 209.705 223.331 209.656ZM225.754 210.317L226.66 210.072C226.806 210.023 226.806 209.974 226.66 209.925L225.754 209.681C225.607 209.632 225.338 209.632 225.191 209.681L224.285 209.925C224.139 209.974 224.139 210.023 224.285 210.072L225.191 210.317C225.362 210.366 225.607 210.366 225.754 210.317ZM228.201 210.978L229.107 210.733C229.254 210.684 229.254 210.635 229.107 210.586L228.201 210.341C228.055 210.292 227.785 210.292 227.639 210.341L226.733 210.586C226.586 210.635 226.586 210.684 226.733 210.733L227.639 210.978C227.81 211.027 228.055 211.027 228.201 210.978ZM230.649 211.639L231.555 211.394C231.702 211.345 231.702 211.296 231.555 211.247L230.649 211.002C230.502 210.953 230.233 210.953 230.086 211.002L229.181 211.247C229.034 211.296 229.034 211.345 229.181 211.394L230.086 211.639C230.257 211.663 230.502 211.663 230.649 211.639ZM234.149 212.618L235.25 212.324C235.348 212.3 235.348 212.251 235.25 212.226L232.974 211.614C232.876 211.59 232.705 211.59 232.607 211.614L231.506 211.908C231.408 211.932 231.408 211.981 231.506 212.006L233.782 212.618C233.904 212.642 234.051 212.642 234.149 212.618Z" fill="url(#paint36_linear_2_827)"/>
<path d="M215.988 143.718C216.208 143.669 216.429 143.669 216.649 143.718L259.8 155.295C260.828 155.565 261.635 156.911 261.635 158.306V192.156C261.635 193.208 261.146 193.992 260.461 194.187C260.24 194.236 260.02 194.236 259.8 194.187L216.649 182.635C215.621 182.366 214.813 181.019 214.813 179.624V145.75C214.813 144.673 215.303 143.914 215.988 143.718Z" fill="url(#paint37_linear_2_827)"/>
<path d="M229.621 147.194L216.649 143.718C216.404 143.645 216.184 143.645 215.988 143.718C215.303 143.914 214.813 144.673 214.813 145.75V179.6C214.813 180.995 215.646 182.341 216.649 182.61L229.621 186.086V147.194Z" fill="url(#paint38_linear_2_827)"/>
<path d="M259.8 155.295L216.649 143.718C216.404 143.645 216.184 143.645 215.988 143.718C215.303 143.914 214.813 144.673 214.813 145.75V151.257L261.66 163.813V158.306C261.635 156.911 260.828 155.565 259.8 155.295Z" fill="url(#paint39_linear_2_827)"/>
<path d="M232.95 177.715C233.023 177.691 233.121 177.691 233.219 177.715L256.373 183.908C256.789 184.005 257.108 184.568 257.108 185.107V189.806C257.108 190.222 256.912 190.541 256.642 190.614C256.569 190.638 256.471 190.638 256.373 190.614L233.219 184.422C232.803 184.324 232.485 183.761 232.485 183.222V178.547C232.485 178.107 232.681 177.789 232.95 177.715Z" fill="white"/>
<path d="M234.859 179.82C235.006 179.771 235.177 179.771 235.349 179.82C236.107 180.016 236.719 181.019 236.719 182.047C236.719 182.831 236.352 183.418 235.863 183.54C235.716 183.589 235.545 183.589 235.373 183.54C234.614 183.345 234.003 182.341 234.003 181.313C234.003 180.53 234.345 179.967 234.859 179.82Z" fill="url(#paint40_linear_2_827)"/>
<path d="M238.996 181.68C239.02 181.68 239.045 181.68 239.069 181.68L253.167 185.45C253.29 185.474 253.388 185.645 253.388 185.792C253.388 185.915 253.339 186.012 253.241 186.037C253.216 186.037 253.192 186.037 253.167 186.037L239.069 182.268C238.947 182.243 238.849 182.072 238.849 181.925C238.873 181.803 238.922 181.705 238.996 181.68Z" fill="url(#paint41_linear_2_827)"/>
<path d="M238.996 183.1C239.02 183.1 239.045 183.1 239.069 183.1L245.237 184.74C245.36 184.764 245.457 184.936 245.457 185.082C245.457 185.205 245.408 185.303 245.311 185.327C245.286 185.327 245.262 185.327 245.237 185.327L239.069 183.687C238.947 183.663 238.849 183.491 238.849 183.345C238.873 183.198 238.922 183.124 238.996 183.1Z" fill="url(#paint42_linear_2_827)"/>
<path d="M232.95 168.023C233.023 167.998 233.121 167.998 233.219 168.023L256.373 174.215C256.789 174.313 257.108 174.876 257.108 175.414V180.089C257.108 180.505 256.912 180.824 256.642 180.897C256.569 180.922 256.471 180.922 256.373 180.897L233.219 174.705C232.803 174.607 232.485 174.044 232.485 173.505V168.831C232.485 168.414 232.681 168.096 232.95 168.023Z" fill="white"/>
<path d="M234.859 170.128C235.006 170.079 235.177 170.079 235.349 170.128C236.107 170.324 236.719 171.327 236.719 172.355C236.719 173.138 236.352 173.726 235.863 173.848C235.716 173.897 235.545 173.897 235.373 173.848C234.614 173.652 234.003 172.649 234.003 171.621C234.003 170.838 234.345 170.25 234.859 170.128Z" fill="url(#paint43_linear_2_827)"/>
<path d="M238.996 171.988C239.02 171.988 239.045 171.988 239.069 171.988L253.167 175.757C253.29 175.782 253.388 175.953 253.388 176.1C253.388 176.222 253.339 176.32 253.241 176.345C253.216 176.345 253.192 176.345 253.167 176.345L239.069 172.575C238.947 172.551 238.849 172.379 238.849 172.233C238.873 172.11 238.922 172.012 238.996 171.988Z" fill="url(#paint44_linear_2_827)"/>
<path d="M238.996 173.407C239.02 173.407 239.045 173.407 239.069 173.407L245.237 175.047C245.36 175.072 245.457 175.243 245.457 175.39C245.457 175.512 245.408 175.61 245.311 175.635C245.286 175.635 245.262 175.635 245.237 175.635L239.069 173.995C238.947 173.97 238.849 173.799 238.849 173.652C238.873 173.505 238.922 173.432 238.996 173.407Z" fill="url(#paint45_linear_2_827)"/>
<path d="M232.95 158.33C233.023 158.306 233.121 158.306 233.219 158.33L256.373 164.523C256.789 164.621 257.108 165.184 257.108 165.722V170.397C257.108 170.813 256.912 171.131 256.642 171.205C256.569 171.229 256.471 171.229 256.373 171.205L233.219 165.012C232.803 164.914 232.485 164.351 232.485 163.813V159.138C232.485 158.722 232.681 158.404 232.95 158.33Z" fill="white"/>
<path d="M234.859 160.435C235.006 160.386 235.177 160.386 235.349 160.435C236.107 160.631 236.719 161.635 236.719 162.663C236.719 163.446 236.352 164.033 235.863 164.156C235.716 164.205 235.545 164.205 235.373 164.156C234.614 163.96 234.003 162.956 234.003 161.928C234.003 161.145 234.345 160.558 234.859 160.435Z" fill="url(#paint46_linear_2_827)"/>
<path d="M238.996 162.296C239.02 162.296 239.045 162.296 239.069 162.296L253.167 166.065C253.29 166.089 253.388 166.261 253.388 166.407C253.388 166.53 253.339 166.628 253.241 166.652C253.216 166.652 253.192 166.652 253.167 166.652L239.069 162.883C238.947 162.858 238.849 162.687 238.849 162.54C238.873 162.393 238.922 162.32 238.996 162.296Z" fill="url(#paint47_linear_2_827)"/>
<path d="M238.996 163.691C239.02 163.691 239.045 163.691 239.069 163.691L245.237 165.33C245.36 165.355 245.457 165.526 245.457 165.673C245.457 165.796 245.408 165.893 245.311 165.918C245.286 165.918 245.262 165.918 245.237 165.918L239.069 164.278C238.947 164.254 238.849 164.082 238.849 163.935C238.873 163.813 238.922 163.715 238.996 163.691Z" fill="url(#paint48_linear_2_827)"/>
<path d="M217.383 146.288C217.481 146.264 217.555 146.264 217.653 146.288L258.747 157.302C259.163 157.425 259.531 157.988 259.531 158.575V160.582C259.531 161.023 259.335 161.365 259.041 161.439C258.943 161.463 258.87 161.463 258.772 161.439L217.677 150.4C217.261 150.278 216.894 149.715 216.894 149.128V147.121C216.894 146.704 217.09 146.362 217.383 146.288Z" fill="white"/>
<path d="M256.74 158.037C256.96 157.988 257.23 158.11 257.401 158.404C257.646 158.795 257.646 159.334 257.401 159.579C257.328 159.652 257.279 159.701 257.181 159.701C256.96 159.75 256.691 159.628 256.52 159.334C256.275 158.942 256.275 158.404 256.52 158.159C256.593 158.11 256.667 158.061 256.74 158.037Z" stroke="#2E405C" stroke-miterlimit="10" stroke-linecap="round"/>
<path d="M257.817 160.288L257.401 159.579" stroke="#2E405C" stroke-miterlimit="10" stroke-linecap="round"/>
<path d="M217.31 154.732C217.383 154.708 217.481 154.708 217.554 154.732L226.292 157.082C226.659 157.18 226.978 157.67 226.978 158.184C226.978 158.575 226.806 158.869 226.537 158.942C226.464 158.967 226.366 158.967 226.292 158.942L217.554 156.593C217.187 156.495 216.869 156.005 216.869 155.491C216.893 155.1 217.065 154.806 217.31 154.732Z" fill="white"/>
<g opacity="0.5">
<path opacity="0.5" d="M217.31 159.383C217.383 159.358 217.481 159.358 217.554 159.383L221.079 160.337C221.446 160.435 221.764 160.925 221.764 161.439C221.764 161.83 221.593 162.124 221.324 162.198C221.25 162.222 221.152 162.222 221.079 162.198L217.554 161.243C217.187 161.145 216.869 160.656 216.869 160.142C216.893 159.726 217.065 159.456 217.31 159.383Z" fill="white"/>
</g>
<path d="M179.935 283.989C179.935 283.989 180.18 287.22 179.495 290.377C178.785 293.51 178.491 295.101 178.54 296.814C178.589 298.528 180.205 300.951 187.768 298.307C192.859 296.521 197.117 294.709 197.289 292.066C197.46 289.423 194.817 289.569 191.88 289.961C189.457 290.279 188.453 283.989 188.453 283.989H179.935Z" fill="url(#paint49_linear_2_827)"/>
<path d="M176.949 262.426C178.467 276.377 179.789 285.335 179.789 285.335C179.789 285.335 183.974 287.122 188.943 285.188C188.943 285.188 193.715 246.272 194.425 240.789C195.135 235.307 194.009 226.251 186.446 226.055C177.537 225.859 174.551 240.3 176.949 262.426Z" fill="url(#paint50_linear_2_827)"/>
<path d="M197.289 292.041C197.313 291.797 197.289 291.576 197.264 291.381C197.167 291.723 196.995 292.115 196.677 292.555C195.625 294 188.551 297.181 183.827 298.136C181.38 298.625 179.74 298.16 178.687 297.597C179.226 299.115 181.355 300.51 187.768 298.283C192.834 296.496 197.118 294.685 197.289 292.041Z" fill="url(#paint51_linear_2_827)"/>
<path d="M176.509 191.691C172.275 190.173 158.176 184.348 152.033 182.757C143.76 180.603 139.771 192.694 147.211 195.24C159.156 199.303 169.142 201.946 173.572 202.803C180.107 204.051 183.998 194.359 176.509 191.691Z" fill="url(#paint52_linear_2_827)"/>
<path d="M196.236 190.296C196.236 190.296 202.282 188.313 203.383 187.603C204.485 186.894 205.537 186.38 206.027 186.918C206.027 186.918 208.866 186.061 209.331 186.11C209.796 186.135 210.212 186.869 210.212 186.869C210.212 186.869 212.268 186.943 212.88 186.992C213.492 187.04 214.104 187.383 214.299 187.726C214.495 188.068 215.401 189.659 215.327 189.904C215.254 190.124 214.544 190.247 214.03 189.831C213.516 189.415 212.978 188.68 212.978 188.68L211.338 188.705C211.338 188.705 216.306 191.03 216.527 191.226C216.747 191.422 216.331 192.18 215.254 192.009C214.177 191.813 212.39 191.079 212.39 191.079L209.894 191.275C209.894 191.275 207.544 192.352 206.908 193.184C206.271 194.016 207.96 194.187 208.866 194.334C209.771 194.481 210.677 194.555 210.579 195.387C210.457 196.488 209.331 196.292 207.985 196.268C206.614 196.243 204.876 196.17 203.016 195.436C201.156 194.701 198.439 195.46 198.439 195.46L196.236 190.296Z" fill="url(#paint53_linear_2_827)"/>
<path d="M196.75 189.17C196.75 189.17 179.642 190.785 175.383 191.373C171.1 191.936 168.701 196.096 169.729 199.425C170.757 202.754 174.747 203.978 181.208 202.093C187.67 200.208 199.785 195.925 199.785 195.925C199.785 195.925 200.348 190.712 196.75 189.17Z" fill="url(#paint54_linear_2_827)"/>
<path d="M153.77 180.603C153.77 180.603 155.753 177.838 155.435 174.264C155.239 172.061 153.11 165.282 155.998 159.946C158.91 154.61 167.746 156.079 169.753 158.649C171.736 161.219 172.348 163.715 172.103 166.456C171.858 169.198 172.715 169.271 173.131 169.956C173.547 170.642 171.834 171.425 171.834 171.425C171.834 171.425 171.785 176.834 169.533 177.984C168.407 178.547 167.281 178.229 167.281 178.229L167.134 182.757L153.77 180.603Z" fill="url(#paint55_linear_2_827)"/>
<path d="M154.26 173.799C151.421 168.904 151.788 164.131 152.743 160.851C153.966 156.666 156.781 156.397 156.781 156.397C156.781 156.397 158.103 153.362 162.973 153.117C167.281 152.897 172.299 153.827 173.204 157.253C173.988 160.191 172.592 161.316 171.491 161.659C170.463 161.977 169.655 162.418 170.708 165.012C171.76 167.607 169.19 169.124 169.337 170.96C169.484 172.796 171.222 171.449 171.858 171.449C172.494 171.449 172.348 174.24 172.078 175.292C171.564 177.275 170.292 178.474 168.578 178.156C166.498 177.764 167.795 174.068 168.04 170.862C168.285 167.631 167.966 166.603 166.449 166.334C164.124 165.893 162.092 169.638 165.127 171.865C165.715 172.282 166.351 173.897 164.295 175.953C162.362 177.813 156.487 177.617 154.26 173.799Z" fill="url(#paint56_linear_2_827)"/>
<path d="M143.246 305.258C143.246 303.619 145.89 301.979 151.152 300.73C161.701 298.234 178.81 298.234 189.383 300.73C194.67 301.979 197.289 303.619 197.289 305.258C197.289 306.898 194.645 308.538 189.383 309.786C178.834 312.283 161.726 312.283 151.152 309.786C145.89 308.538 143.246 306.898 143.246 305.258Z" fill="url(#paint57_linear_2_827)"/>
<path d="M142.952 302.713C142.952 304.23 145.106 305.748 149.414 306.898C158.029 309.199 172.005 309.199 180.645 306.898C184.953 305.748 187.107 304.23 187.107 302.713V305.136C187.107 306.653 184.953 308.171 180.645 309.321C172.03 311.622 158.054 311.622 149.414 309.321C145.106 308.171 142.952 306.653 142.952 305.136V302.713Z" fill="url(#paint58_linear_2_827)"/>
<path d="M142.952 302.713C142.952 301.195 145.106 299.678 149.414 298.528C158.029 296.227 172.005 296.227 180.645 298.528C184.953 299.678 187.107 301.195 187.107 302.713C187.107 304.23 184.953 305.748 180.645 306.898C172.03 309.199 158.054 309.199 149.414 306.898C145.106 305.723 142.952 304.206 142.952 302.713Z" fill="url(#paint59_linear_2_827)"/>
<path d="M162.68 246.149C162.68 246.321 162.9 246.468 163.365 246.59C164.295 246.835 165.764 246.835 166.694 246.59C167.159 246.468 167.379 246.296 167.379 246.149V302.395C167.379 302.566 167.159 302.713 166.694 302.835C165.764 303.08 164.295 303.08 163.365 302.835C162.9 302.713 162.68 302.542 162.68 302.395V246.149Z" fill="url(#paint60_linear_2_827)"/>
<path d="M195.208 246.468C194.939 246.394 194.67 246.394 194.376 246.468L181.747 249.845C178.761 250.653 175.726 250.604 172.911 249.845L145.523 242.503C148.337 243.261 151.397 243.286 154.358 242.503L166.988 239.125C167.257 239.051 167.551 239.051 167.82 239.125L195.208 246.468Z" fill="url(#paint61_linear_2_827)"/>
<path d="M242.936 297.891H213.174V303.447H242.936V297.891Z" fill="url(#paint62_linear_2_827)"/>
<path d="M171.638 246.149C163.365 248.621 144.176 249.356 139.477 233.667C139.477 233.667 168.089 227.719 175.114 225.859C182.921 223.779 192.394 223.093 193.666 230.803C195.306 240.814 181.331 243.261 171.638 246.149Z" fill="url(#paint63_linear_2_827)"/>
<path d="M205.929 289.471C205.929 289.471 206.173 293.877 205.268 297.524C204.24 301.636 205.831 303.08 207.838 303.227C214.006 303.716 222.401 303.227 227.1 302.346C230.013 301.807 229.572 297.671 225.02 296.986C215.841 295.59 214.618 289.52 214.618 289.52L205.929 289.471Z" fill="url(#paint64_linear_2_827)"/>
<path d="M204.95 300.118C206.027 303.129 223.625 301.709 225.803 301.318C226.807 301.122 229.009 300.559 228.814 299.653C229.181 300.877 228.569 302.077 227.076 302.346C222.376 303.202 213.981 303.716 207.813 303.227C206.32 303.129 205.048 302.272 204.95 300.118Z" fill="url(#paint65_linear_2_827)"/>
<path d="M145.498 233.667C145.498 233.667 149.096 249.698 168.554 249.356C181.306 249.135 195.208 244.069 196.359 244.754C197.509 245.464 194.278 254.765 199.027 268.569C203.555 281.762 205.733 290.891 205.733 290.891C205.733 290.891 209.992 292.555 214.887 289.985C214.887 289.985 212.611 249.674 212.317 244.142C212.023 238.611 210.751 228.307 197.876 228.307C190.509 228.331 145.498 233.667 145.498 233.667Z" fill="url(#paint66_linear_2_827)"/>
<path d="M149.17 183.296C149.17 183.296 150.687 179.918 152.033 179.208C154.75 177.764 164.173 178.841 166.866 180.481C169.558 182.121 170.439 186.404 170.439 186.404L149.17 183.296Z" fill="url(#paint67_linear_2_827)"/>
<path d="M178.834 230.265C178.834 230.265 171.32 241.524 151.813 240.275C140.75 239.565 137.96 234.058 138.963 232.002C139.991 229.971 145.131 213.817 142.83 198.813C140.53 183.81 146.355 181.558 151.348 180.775C156.341 179.991 177.439 181.24 176.656 192.866C175.873 204.467 170.366 216.974 178.834 230.265Z" fill="url(#paint68_linear_2_827)"/>
<path d="M148.925 221.772C148.509 221.649 148.044 221.723 147.652 221.967C146.918 222.457 146.697 223.436 147.187 224.17L160.355 244.412C163.145 248.719 167.355 251.681 172.079 252.929L144.69 245.586C139.991 244.314 135.781 241.377 132.967 237.069L119.799 216.852C119.309 216.118 119.529 215.114 120.264 214.649C120.655 214.38 121.12 214.331 121.536 214.453L148.925 221.772Z" fill="url(#paint69_linear_2_827)"/>
<path d="M148.925 221.772C149.292 221.87 149.635 222.09 149.855 222.432L163.023 242.674C165.373 246.296 168.922 248.793 172.887 249.845C175.701 250.604 178.761 250.628 181.723 249.845L194.352 246.468C194.621 246.394 194.915 246.394 195.184 246.468C195.723 246.614 196.163 247.031 196.31 247.594C196.53 248.45 196.041 249.331 195.184 249.552L182.555 252.929C180.792 253.394 179.03 253.615 177.292 253.615C175.506 253.615 173.768 253.37 172.079 252.929C167.38 251.656 163.17 248.719 160.355 244.412L147.187 224.195C146.698 223.46 146.918 222.457 147.652 221.992C148.044 221.723 148.509 221.649 148.925 221.772Z" fill="url(#paint70_linear_2_827)"/>
<path d="M223.992 196.659C223.992 196.659 223.11 199.988 223.184 200.869C223.257 201.75 223.845 201.873 224.065 201.677C224.285 201.481 225.827 197.149 225.827 197.149L223.992 196.659Z" fill="url(#paint71_linear_2_827)"/>
<path d="M212.659 197.149C212.659 197.149 216.527 194.971 219.39 193.135C222.254 191.275 223.111 191.642 223.845 192.009C224.604 192.376 224.432 193.233 224.432 193.233C224.432 193.233 225.901 193.306 225.803 194.75C225.803 194.75 227.516 194.971 226.929 196.439C226.929 196.439 228.03 196.88 227.516 198.299C227.027 199.719 226.317 202.02 225.778 202.142C225.24 202.264 224.824 201.481 225.069 200.478C225.313 199.474 225.485 198.348 225.485 198.348C225.485 198.348 224.285 199.401 223.184 200.062C222.083 200.722 219.219 200.453 216.747 201.726L212.659 197.149Z" fill="url(#paint72_linear_2_827)"/>
<path d="M213.051 196.121C213.051 196.121 195.796 200.551 191.684 201.873C187.572 203.194 186.128 207.796 187.719 210.904C189.31 214.013 193.984 214.576 200.005 211.59C206.026 208.604 217.187 202.24 217.187 202.24C217.187 202.24 216.869 197.027 213.051 196.121Z" fill="url(#paint73_linear_2_827)"/>
<path d="M195.526 202.656C192.198 199.645 178.638 189.219 173.449 185.596C168.26 181.974 158.911 190.369 168.309 198.789C177.708 207.208 185.467 210.684 189.383 212.887C195.208 216.167 202.698 209.167 195.526 202.656Z" fill="url(#paint74_linear_2_827)"/>
<defs>
<linearGradient id="paint0_linear_2_827" x1="135.351" y1="273.204" x2="66.7687" y2="273.204" gradientUnits="userSpaceOnUse">
<stop stop-color="white" stop-opacity="0"/>
<stop offset="1" stop-color="#AEBDDF"/>
</linearGradient>
<linearGradient id="paint1_linear_2_827" x1="33.733" y1="269.809" x2="91.2374" y2="269.809" gradientUnits="userSpaceOnUse">
<stop stop-color="white"/>
<stop offset="1" stop-color="#AEBDDF"/>
</linearGradient>
<linearGradient id="paint2_linear_2_827" x1="99.3041" y1="269.809" x2="18.1519" y2="269.809" gradientUnits="userSpaceOnUse">
<stop stop-color="white"/>
<stop offset="1" stop-color="#AEBDDF"/>
</linearGradient>
<linearGradient id="paint3_linear_2_827" x1="69.0882" y1="244.163" x2="69.0882" y2="283.381" gradientUnits="userSpaceOnUse">
<stop stop-color="white"/>
<stop offset="1" stop-color="#AEBDDF"/>
</linearGradient>
<linearGradient id="paint4_linear_2_827" x1="120.623" y1="194.736" x2="120.623" y2="231.134" gradientUnits="userSpaceOnUse">
<stop stop-color="white"/>
<stop offset="1" stop-color="#AEBDDF"/>
</linearGradient>
<linearGradient id="paint5_linear_2_827" x1="45.2753" y1="211.026" x2="233.097" y2="211.026" gradientUnits="userSpaceOnUse">
<stop stop-color="white"/>
<stop offset="1" stop-color="#AEBDDF"/>
</linearGradient>
<linearGradient id="paint6_linear_2_827" x1="201.166" y1="211.026" x2="81.3113" y2="211.026" gradientUnits="userSpaceOnUse">
<stop stop-color="white"/>
<stop offset="1" stop-color="#AEBDDF"/>
</linearGradient>
<linearGradient id="paint7_linear_2_827" x1="120.623" y1="145.548" x2="120.623" y2="233.63" gradientUnits="userSpaceOnUse">
<stop stop-color="white"/>
<stop offset="1" stop-color="#AEBDDF"/>
</linearGradient>
<linearGradient id="paint8_linear_2_827" x1="120.623" y1="236.846" x2="120.623" y2="62.5972" gradientUnits="userSpaceOnUse">
<stop stop-color="#79D985" stop-opacity="0.2"/>
<stop offset="1" stop-color="#027A71"/>
</linearGradient>
<linearGradient id="paint9_linear_2_827" x1="223.902" y1="-2.99471" x2="-2.63151" y2="223.539" gradientUnits="userSpaceOnUse">
<stop stop-color="#79D985" stop-opacity="0.2"/>
<stop offset="1" stop-color="#027A71"/>
</linearGradient>
<linearGradient id="paint10_linear_2_827" x1="283.918" y1="17.5325" x2="81.9265" y2="219.524" gradientUnits="userSpaceOnUse">
<stop stop-color="#79D985" stop-opacity="0.2"/>
<stop offset="1" stop-color="#027A71"/>
</linearGradient>
<linearGradient id="paint11_linear_2_827" x1="120.623" y1="134.291" x2="120.623" y2="-39.9575" gradientUnits="userSpaceOnUse">
<stop stop-color="#79D985" stop-opacity="0.2"/>
<stop offset="1" stop-color="#027A71"/>
</linearGradient>
<linearGradient id="paint12_linear_2_827" x1="44.6596" y1="78.3725" x2="136.778" y2="78.3725" gradientUnits="userSpaceOnUse">
<stop stop-color="#79D985"/>
<stop offset="1" stop-color="#027A71"/>
</linearGradient>
<linearGradient id="paint13_linear_2_827" x1="71.8325" y1="78.3724" x2="187.07" y2="78.3724" gradientUnits="userSpaceOnUse">
<stop stop-color="#79D985"/>
<stop offset="1" stop-color="#027A71"/>
</linearGradient>
<linearGradient id="paint14_linear_2_827" x1="120.623" y1="69.4767" x2="120.623" y2="98.1533" gradientUnits="userSpaceOnUse">
<stop stop-color="#79D985"/>
<stop offset="1" stop-color="#027A71"/>
</linearGradient>
<linearGradient id="paint15_linear_2_827" x1="120.623" y1="18.2487" x2="120.623" y2="134.392" gradientUnits="userSpaceOnUse">
<stop stop-color="#79D985" stop-opacity="0"/>
<stop offset="1" stop-color="#027A71"/>
</linearGradient>
<linearGradient id="paint16_linear_2_827" x1="120.623" y1="17.5559" x2="120.623" y2="134.822" gradientUnits="userSpaceOnUse">
<stop stop-color="#79D985" stop-opacity="0"/>
<stop offset="1" stop-color="#027A71"/>
</linearGradient>
<linearGradient id="paint17_linear_2_827" x1="89.6752" y1="49.9275" x2="89.6752" y2="70.0945" gradientUnits="userSpaceOnUse">
<stop stop-color="white" stop-opacity="0.8"/>
<stop offset="1" stop-color="white" stop-opacity="0"/>
</linearGradient>
<linearGradient id="paint18_linear_2_827" x1="135.35" y1="27.3032" x2="135.35" y2="47.4702" gradientUnits="userSpaceOnUse">
<stop stop-color="white" stop-opacity="0.8"/>
<stop offset="1" stop-color="white" stop-opacity="0"/>
</linearGradient>
<linearGradient id="paint19_linear_2_827" x1="151.57" y1="48.2663" x2="151.57" y2="68.4333" gradientUnits="userSpaceOnUse">
<stop stop-color="white" stop-opacity="0.8"/>
<stop offset="1" stop-color="white" stop-opacity="0"/>
</linearGradient>
<linearGradient id="paint20_linear_2_827" x1="126.799" y1="61.0038" x2="126.799" y2="81.1707" gradientUnits="userSpaceOnUse">
<stop stop-color="white" stop-opacity="0.8"/>
<stop offset="1" stop-color="white" stop-opacity="0"/>
</linearGradient>
<linearGradient id="paint21_linear_2_827" x1="100.148" y1="30.0768" x2="100.148" y2="50.2438" gradientUnits="userSpaceOnUse">
<stop stop-color="white" stop-opacity="0.8"/>
<stop offset="1" stop-color="white" stop-opacity="0"/>
</linearGradient>
<linearGradient id="paint22_linear_2_827" x1="245.887" y1="263.969" x2="245.887" y2="186.051" gradientUnits="userSpaceOnUse">
<stop stop-color="white"/>
<stop offset="1" stop-color="#AEBDDF"/>
</linearGradient>
<linearGradient id="paint23_linear_2_827" x1="295.711" y1="245.368" x2="295.711" y2="192.747" gradientUnits="userSpaceOnUse">
<stop stop-color="white"/>
<stop offset="1" stop-color="#AEBDDF"/>
</linearGradient>
<linearGradient id="paint24_linear_2_827" x1="151.963" y1="234.153" x2="151.963" y2="185.709" gradientUnits="userSpaceOnUse">
<stop stop-color="white"/>
<stop offset="1" stop-color="#AEBDDF"/>
</linearGradient>
<linearGradient id="paint25_linear_2_827" x1="224.013" y1="247.003" x2="224.013" y2="221.981" gradientUnits="userSpaceOnUse">
<stop stop-color="white"/>
<stop offset="1" stop-color="#AEBDDF"/>
</linearGradient>
<linearGradient id="paint26_linear_2_827" x1="224.013" y1="225.955" x2="224.013" y2="136.691" gradientUnits="userSpaceOnUse">
<stop stop-color="white"/>
<stop offset="1" stop-color="#AEBDDF"/>
</linearGradient>
<linearGradient id="paint27_linear_2_827" x1="248.711" y1="210.92" x2="244.833" y2="201.176" gradientUnits="userSpaceOnUse">
<stop stop-color="white" stop-opacity="0"/>
<stop offset="1" stop-color="#AEBDDF"/>
</linearGradient>
<linearGradient id="paint28_linear_2_827" x1="234.876" y1="205.541" x2="234.876" y2="188.538" gradientUnits="userSpaceOnUse">
<stop stop-color="#ACBDDE"/>
<stop offset="1" stop-color="#2E405C"/>
</linearGradient>
<linearGradient id="paint29_linear_2_827" x1="234.62" y1="204.414" x2="234.62" y2="193.675" gradientUnits="userSpaceOnUse">
<stop stop-color="white"/>
<stop offset="1" stop-color="#AEBDDF"/>
</linearGradient>
<linearGradient id="paint30_linear_2_827" x1="239.72" y1="122.94" x2="239.72" y2="193.522" gradientUnits="userSpaceOnUse">
<stop stop-color="white"/>
<stop offset="1" stop-color="#AEBDDF"/>
</linearGradient>
<linearGradient id="paint31_linear_2_827" x1="238.393" y1="115.183" x2="238.393" y2="195.652" gradientUnits="userSpaceOnUse">
<stop stop-color="#ACBDDE"/>
<stop offset="1" stop-color="#2E405C"/>
</linearGradient>
<linearGradient id="paint32_linear_2_827" x1="238.228" y1="154.738" x2="238.228" y2="213.548" gradientUnits="userSpaceOnUse">
<stop stop-color="white"/>
<stop offset="1" stop-color="#AEBDDF"/>
</linearGradient>
<linearGradient id="paint33_linear_2_827" x1="245.662" y1="221.312" x2="241.035" y2="209.684" gradientUnits="userSpaceOnUse">
<stop stop-color="white" stop-opacity="0"/>
<stop offset="1" stop-color="#AEBDDF"/>
</linearGradient>
<linearGradient id="paint34_linear_2_827" x1="220.482" y1="215.352" x2="220.482" y2="200.796" gradientUnits="userSpaceOnUse">
<stop stop-color="#ACBDDE"/>
<stop offset="1" stop-color="#2E405C"/>
</linearGradient>
<linearGradient id="paint35_linear_2_827" x1="220.482" y1="214.49" x2="220.482" y2="201.359" gradientUnits="userSpaceOnUse">
<stop stop-color="white"/>
<stop offset="1" stop-color="#AEBDDF"/>
</linearGradient>
<linearGradient id="paint36_linear_2_827" x1="220.268" y1="194.955" x2="220.268" y2="227.032" gradientUnits="userSpaceOnUse">
<stop stop-color="#ACBDDE"/>
<stop offset="1" stop-color="#2E405C"/>
</linearGradient>
<linearGradient id="paint37_linear_2_827" x1="238.228" y1="190.755" x2="238.228" y2="132.041" gradientUnits="userSpaceOnUse">
<stop stop-color="#79D985"/>
<stop offset="1" stop-color="#027A71"/>
</linearGradient>
<linearGradient id="paint38_linear_2_827" x1="222.221" y1="202.076" x2="222.221" y2="136.488" gradientUnits="userSpaceOnUse">
<stop stop-color="#79D985"/>
<stop offset="1" stop-color="#027A71"/>
</linearGradient>
<linearGradient id="paint39_linear_2_827" x1="238.228" y1="173.905" x2="238.228" y2="120.256" gradientUnits="userSpaceOnUse">
<stop stop-color="#79D985"/>
<stop offset="1" stop-color="#027A71"/>
</linearGradient>
<linearGradient id="paint40_linear_2_827" x1="235.353" y1="175.936" x2="235.353" y2="186.894" gradientUnits="userSpaceOnUse">
<stop stop-color="#FFEFA4"/>
<stop offset="1" stop-color="#FE8F01"/>
</linearGradient>
<linearGradient id="paint41_linear_2_827" x1="259.401" y1="188.166" x2="237.166" y2="180.97" gradientUnits="userSpaceOnUse">
<stop stop-color="white"/>
<stop offset="1" stop-color="#AEBDDF"/>
</linearGradient>
<linearGradient id="paint42_linear_2_827" x1="258.923" y1="189.642" x2="236.688" y2="182.445" gradientUnits="userSpaceOnUse">
<stop stop-color="white"/>
<stop offset="1" stop-color="#AEBDDF"/>
</linearGradient>
<linearGradient id="paint43_linear_2_827" x1="235.353" y1="166.756" x2="235.353" y2="177.323" gradientUnits="userSpaceOnUse">
<stop stop-color="#FFEFA4"/>
<stop offset="1" stop-color="#FE8F01"/>
</linearGradient>
<linearGradient id="paint44_linear_2_827" x1="263.264" y1="170.47" x2="240.198" y2="175.453" gradientUnits="userSpaceOnUse">
<stop stop-color="white"/>
<stop offset="1" stop-color="#AEBDDF"/>
</linearGradient>
<linearGradient id="paint45_linear_2_827" x1="263.157" y1="169.978" x2="240.092" y2="174.96" gradientUnits="userSpaceOnUse">
<stop stop-color="white"/>
<stop offset="1" stop-color="#AEBDDF"/>
</linearGradient>
<linearGradient id="paint46_linear_2_827" x1="235.353" y1="159.144" x2="235.353" y2="168.274" gradientUnits="userSpaceOnUse">
<stop stop-color="#FFEFA4"/>
<stop offset="1" stop-color="#FE8F01"/>
</linearGradient>
<linearGradient id="paint47_linear_2_827" x1="257.643" y1="167.388" x2="235.776" y2="161.852" gradientUnits="userSpaceOnUse">
<stop stop-color="white"/>
<stop offset="1" stop-color="#AEBDDF"/>
</linearGradient>
<linearGradient id="paint48_linear_2_827" x1="257.321" y1="168.657" x2="235.455" y2="163.121" gradientUnits="userSpaceOnUse">
<stop stop-color="white"/>
<stop offset="1" stop-color="#AEBDDF"/>
</linearGradient>
<linearGradient id="paint49_linear_2_827" x1="188.923" y1="298.545" x2="185.069" y2="281.934" gradientUnits="userSpaceOnUse">
<stop stop-color="white"/>
<stop offset="1" stop-color="#AEBDDF"/>
</linearGradient>
<linearGradient id="paint50_linear_2_827" x1="277.27" y1="256.079" x2="166.155" y2="256.079" gradientUnits="userSpaceOnUse">
<stop stop-color="#ACBDDE"/>
<stop offset="1" stop-color="#2E405C"/>
</linearGradient>
<linearGradient id="paint51_linear_2_827" x1="187.431" y1="289.053" x2="188.494" y2="299.418" gradientUnits="userSpaceOnUse">
<stop stop-color="white"/>
<stop offset="1" stop-color="#AEBDDF"/>
</linearGradient>
<linearGradient id="paint52_linear_2_827" x1="212.928" y1="164.3" x2="168.877" y2="189.017" gradientUnits="userSpaceOnUse">
<stop stop-color="#FFEFA4"/>
<stop offset="1" stop-color="#FE8F01"/>
</linearGradient>
<linearGradient id="paint53_linear_2_827" x1="219.079" y1="183.217" x2="197.419" y2="196.838" gradientUnits="userSpaceOnUse">
<stop stop-color="#FFD2BB"/>
<stop offset="1" stop-color="#FF6B5A"/>
</linearGradient>
<linearGradient id="paint54_linear_2_827" x1="219.252" y1="175.57" x2="175.2" y2="200.287" gradientUnits="userSpaceOnUse">
<stop stop-color="#FFEFA4"/>
<stop offset="1" stop-color="#FE8F01"/>
</linearGradient>
<linearGradient id="paint55_linear_2_827" x1="167.558" y1="150.497" x2="158.181" y2="193.535" gradientUnits="userSpaceOnUse">
<stop stop-color="#FFD2BB"/>
<stop offset="1" stop-color="#FF6B5A"/>
</linearGradient>
<linearGradient id="paint56_linear_2_827" x1="162.721" y1="134.242" x2="162.721" y2="177.539" gradientUnits="userSpaceOnUse">
<stop stop-color="#ACBDDE"/>
<stop offset="1" stop-color="#2E405C"/>
</linearGradient>
<linearGradient id="paint57_linear_2_827" x1="224.663" y1="305.271" x2="145.597" y2="305.271" gradientUnits="userSpaceOnUse">
<stop stop-color="white"/>
<stop offset="1" stop-color="#AEBDDF"/>
</linearGradient>
<linearGradient id="paint58_linear_2_827" x1="146.903" y1="306.87" x2="277.421" y2="306.87" gradientUnits="userSpaceOnUse">
<stop stop-color="white"/>
<stop offset="1" stop-color="#AEBDDF"/>
</linearGradient>
<linearGradient id="paint59_linear_2_827" x1="165.042" y1="288.118" x2="165.042" y2="327.194" gradientUnits="userSpaceOnUse">
<stop stop-color="white"/>
<stop offset="1" stop-color="#AEBDDF"/>
</linearGradient>
<linearGradient id="paint60_linear_2_827" x1="165.042" y1="249.328" x2="165.042" y2="314.54" gradientUnits="userSpaceOnUse">
<stop stop-color="white"/>
<stop offset="1" stop-color="#AEBDDF"/>
</linearGradient>
<linearGradient id="paint61_linear_2_827" x1="167.603" y1="219.742" x2="170.975" y2="250.087" gradientUnits="userSpaceOnUse">
<stop stop-color="white"/>
<stop offset="1" stop-color="#AEBDDF"/>
</linearGradient>
<linearGradient id="paint62_linear_2_827" x1="239.658" y1="300.659" x2="209.624" y2="300.659" gradientUnits="userSpaceOnUse">
<stop stop-color="white"/>
<stop offset="1" stop-color="#AEBDDF"/>
</linearGradient>
<linearGradient id="paint63_linear_2_827" x1="277.27" y1="235.983" x2="166.155" y2="235.983" gradientUnits="userSpaceOnUse">
<stop stop-color="#ACBDDE"/>
<stop offset="1" stop-color="#2E405C"/>
</linearGradient>
<linearGradient id="paint64_linear_2_827" x1="216.702" y1="304.372" x2="217.437" y2="292.258" gradientUnits="userSpaceOnUse">
<stop stop-color="white"/>
<stop offset="1" stop-color="#AEBDDF"/>
</linearGradient>
<linearGradient id="paint65_linear_2_827" x1="216.59" y1="288.834" x2="216.956" y2="301.016" gradientUnits="userSpaceOnUse">
<stop stop-color="white"/>
<stop offset="1" stop-color="#AEBDDF"/>
</linearGradient>
<linearGradient id="paint66_linear_2_827" x1="256.2" y1="259.875" x2="154.632" y2="259.875" gradientUnits="userSpaceOnUse">
<stop stop-color="#ACBDDE"/>
<stop offset="1" stop-color="#2E405C"/>
</linearGradient>
<linearGradient id="paint67_linear_2_827" x1="159.794" y1="194.45" x2="159.794" y2="167.14" gradientUnits="userSpaceOnUse">
<stop stop-color="#ACBDDE"/>
<stop offset="1" stop-color="#2E405C"/>
</linearGradient>
<linearGradient id="paint68_linear_2_827" x1="158.797" y1="240.478" x2="158.797" y2="142.708" gradientUnits="userSpaceOnUse">
<stop stop-color="#FFEFA4"/>
<stop offset="1" stop-color="#FE8F01"/>
</linearGradient>
<linearGradient id="paint69_linear_2_827" x1="145.801" y1="203.104" x2="145.801" y2="250.225" gradientUnits="userSpaceOnUse">
<stop stop-color="white"/>
<stop offset="1" stop-color="#AEBDDF"/>
</linearGradient>
<linearGradient id="paint70_linear_2_827" x1="171.65" y1="230.336" x2="171.65" y2="297.571" gradientUnits="userSpaceOnUse">
<stop stop-color="white"/>
<stop offset="1" stop-color="#AEBDDF"/>
</linearGradient>
<linearGradient id="paint71_linear_2_827" x1="226.812" y1="197.502" x2="222.194" y2="200.254" gradientUnits="userSpaceOnUse">
<stop stop-color="#FFD2BB"/>
<stop offset="1" stop-color="#FF6B5A"/>
</linearGradient>
<linearGradient id="paint72_linear_2_827" x1="228.656" y1="194.32" x2="214.057" y2="202.229" gradientUnits="userSpaceOnUse">
<stop stop-color="#FFD2BB"/>
<stop offset="1" stop-color="#FF6B5A"/>
</linearGradient>
<linearGradient id="paint73_linear_2_827" x1="202.155" y1="240.478" x2="202.155" y2="142.708" gradientUnits="userSpaceOnUse">
<stop stop-color="#FFEFA4"/>
<stop offset="1" stop-color="#FE8F01"/>
</linearGradient>
<linearGradient id="paint74_linear_2_827" x1="181.386" y1="240.478" x2="181.386" y2="142.708" gradientUnits="userSpaceOnUse">
<stop stop-color="#FFEFA4"/>
<stop offset="1" stop-color="#FE8F01"/>
</linearGradient>
</defs>
</svg>
