<svg width="20" height="21" viewBox="0 0 20 21" fill="none" xmlns="http://www.w3.org/2000/svg">
<g clip-path="url(#clip0_2_2229)">
<circle cx="10" cy="10.5" r="10" fill="white"/>
<path d="M10 0.5C4.48622 0.5 0 4.98622 0 10.5C0 16.0138 4.48622 20.5 10 20.5C15.5138 20.5 20 16.0138 20 10.5C20 4.98622 15.5138 0.5 10 0.5ZM15.589 7.86842L9.198 14.2093C8.82206 14.5852 8.22055 14.6103 7.81955 14.2343L4.43609 11.1516C4.03509 10.7757 4.01003 10.1491 4.3609 9.74812C4.73684 9.34712 5.36341 9.32206 5.76441 9.698L8.44612 12.1541L14.1604 6.43985C14.5614 6.03885 15.188 6.03885 15.589 6.43985C15.99 6.84085 15.99 7.46742 15.589 7.86842Z" fill="#D72F50"/>
</g>
<defs>
<clipPath id="clip0_2_2229">
<rect width="20" height="20" fill="white" transform="translate(0 0.5)"/>
</clipPath>
</defs>
</svg>
